<?xml version="1.0" encoding="UTF-8"?>
<svg width="24px" height="24px" viewBox="0 0 24 24" version="1.1" xmlns="http://www.w3.org/2000/svg" xmlns:xlink="http://www.w3.org/1999/xlink">
    <!-- Generator: Sketch 52.6 (67491) - http://www.bohemiancoding.com/sketch -->
    <title>🌎Icons / 24x24 / Chamada</title>
    <desc>Created with Sketch.</desc>
    <defs>
        <path d="M11.4473897,15.9815287 L11.5675732,15.982968 C14.3598609,15.982968 16.6311134,13.7117155 16.6311134,10.9194279 C16.6311134,9.8536088 16.3036673,8.83600708 15.6825992,7.9716933 L15.6825992,3.14708087 C15.6825992,2.15322798 16.4907793,1.34504783 17.4846322,1.34504783 C18.4784851,1.34504783 19.2873849,2.15322798 19.2873849,3.14708087 L19.2873849,22.6542325 L9.23874779,22.6542325 L9.23874779,20.0303457 C9.23874779,19.6590003 8.93720951,19.357462 8.56586404,19.357462 C8.19451858,19.357462 7.89369996,19.6590003 7.89369996,20.0303457 L7.89369996,22.6542325 L4.36375903,22.6542325 C4.51344868,20.0368227 5.55911721,18.1484302 7.47413716,17.0401511 C9.03796216,16.1333773 10.7817026,15.9973612 11.4473897,15.9815287 M11.6093136,14.6350415 L11.4826532,14.6357612 C9.47983448,14.5897028 7.84980059,12.9229662 7.84980059,10.9194279 C7.84980059,8.86983118 9.51725689,7.20165522 11.5675732,7.20165522 C13.6186093,7.20165522 15.2860655,8.86983118 15.2860655,10.9194279 C15.2860655,12.9316021 13.6502744,14.5990584 11.6093136,14.6350415 M17.4846322,0 C15.7495277,0 14.3375514,1.41197637 14.3375514,3.14708087 L14.3375514,6.68277909 C13.5135386,6.14087379 12.5628655,5.85660739 11.5675732,5.85660739 C8.77600528,5.85660739 6.50475277,8.12785991 6.50475277,10.9194279 C6.50475277,12.5739303 7.32660649,14.129839 8.67453297,15.0725959 C7.99949024,15.2762602 7.37050586,15.5454137 6.79981409,15.8757384 C5.66994513,16.5299109 4.77540556,17.4201325 4.14138355,18.5204954 C3.38429938,19.8353174 3,21.453117 3,23.3271163 C3,23.6984617 3.30225794,24 3.67288374,24 L19.959549,24 C20.3301748,24 20.6317131,23.6984617 20.6317131,23.3271163 L20.6317131,3.14708087 C20.6317131,1.41197637 19.2197367,0 17.4846322,0" id="path-1"></path>
    </defs>
    <g id="🌎Icons-/-24x24-/-Chamada" stroke="none" stroke-width="1" fill="none" fill-rule="evenodd">
        <mask id="mask-2" fill="white">
            <use xlink:href="#path-1"></use>
        </mask>
        <use id="Mask" fill="#7EA7C6" xlink:href="#path-1"></use>
    </g>
</svg>