<?xml version="1.0" encoding="UTF-8"?>
<svg width="24px" height="24px" viewBox="0 0 24 24" version="1.1" xmlns="http://www.w3.org/2000/svg" xmlns:xlink="http://www.w3.org/1999/xlink">
    <!-- Generator: Sketch 52.6 (67491) - http://www.bohemiancoding.com/sketch -->
    <title>🌎Icons / 24x24 / Diário de Classe</title>
    <desc>Created with Sketch.</desc>
    <defs>
        <path d="M6.25926531,22.4542041 L19.4553469,22.4542041 L19.4553469,1.54579592 L6.25926531,1.54579592 L6.25926531,22.4542041 Z M3.54579592,22.4542041 L4.71346939,22.4542041 L4.71346939,1.54579592 L3.54579592,1.54579592 L3.54579592,22.4542041 Z M20.2282449,0 C20.6543673,0 21.0011429,0.34677551 21.0011429,0.772897959 L21.0011429,23.227102 C21.0011429,23.6532245 20.6543673,24 20.2282449,24 L2.77289796,24 C2.34677551,24 2,23.6532245 2,23.227102 L2,0.772897959 C2,0.34677551 2.34677551,0 2.77289796,0 L20.2282449,0 Z M10.3098776,6.30563265 L15.4272653,6.30563265 L15.4272653,4.96457143 L10.3098776,4.96457143 L10.3098776,6.30563265 Z M9.53697959,7.85142857 C9.11085714,7.85142857 8.76408163,7.50465306 8.76408163,7.07853061 L8.76408163,4.19167347 C8.76408163,3.76555102 9.11085714,3.41877551 9.53697959,3.41877551 L16.2001633,3.41877551 C16.6262857,3.41877551 16.9730612,3.76555102 16.9730612,4.19167347 L16.9730612,7.07853061 C16.9730612,7.50465306 16.6262857,7.85142857 16.2001633,7.85142857 L9.53697959,7.85142857 Z M16.2107429,9.36538776 C16.6368653,9.36538776 16.9836408,9.71216327 16.9836408,10.1382857 C16.9836408,10.5644082 16.6368653,10.9111837 16.2107429,10.9111837 L9.52600816,10.9111837 C9.09988571,10.9111837 8.7531102,10.5644082 8.7531102,10.1382857 C8.7531102,9.71216327 9.09988571,9.36538776 9.52600816,9.36538776 L16.2107429,9.36538776 Z M16.2107429,12.381649 C16.6368653,12.381649 16.9836408,12.7284245 16.9836408,13.1545469 C16.9836408,13.5806694 16.6368653,13.9274449 16.2107429,13.9274449 L9.52600816,13.9274449 C9.09988571,13.9274449 8.7531102,13.5806694 8.7531102,13.1545469 C8.7531102,12.7284245 9.09988571,12.381649 9.52600816,12.381649 L16.2107429,12.381649 Z" id="path-1"></path>
    </defs>
    <g id="🌎Icons-/-24x24-/-Diário-de-Classe" stroke="none" stroke-width="1" fill="none" fill-rule="evenodd">
        <mask id="mask-2" fill="white">
            <use xlink:href="#path-1"></use>
        </mask>
        <use id="Mask" fill="#7EA7C6" xlink:href="#path-1"></use>
    </g>
</svg>