<?xml version="1.0" encoding="UTF-8"?>
<svg width="24px" height="24px" viewBox="0 0 24 24" version="1.1" xmlns="http://www.w3.org/2000/svg" xmlns:xlink="http://www.w3.org/1999/xlink">
    <!-- Generator: Sketch 52.6 (67491) - http://www.bohemiancoding.com/sketch -->
    <title>🌎Icons / 24x24 / Central THIN </title>
    <desc>Created with Sketch.</desc>
    <defs>
        <path d="M12.4833804,21.6221883 L23.0302807,21.6221883 L23.026602,8.69368236 L12.4797017,8.69368236 L12.4833804,21.6221883 Z M8.90986836,21.6221883 L8.90986836,14.3162434 C8.90986836,13.885097 8.55891813,13.5348825 8.12777174,13.5348825 L4.36075886,13.5348825 C3.93034821,13.5348825 3.57866224,13.885097 3.57866224,14.3162434 L3.57866224,21.6221883 L8.90986836,21.6221883 Z M0.971183008,8.69368236 L0.974861732,21.6221883 L2.60968646,21.6221883 L2.60968646,14.3162434 C2.60968646,13.3509463 3.39472606,12.5644352 4.36075886,12.5644352 L8.12777174,12.5644352 C9.09380453,12.5644352 9.87884413,13.3509463 9.87884413,14.3162434 L9.87884413,21.6221883 L11.5136689,21.6221883 L11.5099901,8.69368236 L0.971183008,8.69368236 Z M4.29527758,1.96897577 C2.46180178,1.96897577 0.969711519,3.46106603 0.969711519,5.29527758 L0.970447264,7.7232351 L11.5092544,7.7232351 L11.5085186,5.29527758 C11.5085186,3.46106603 10.0164284,1.96897577 8.18295259,1.96897577 L4.29527758,1.96897577 Z M19.6995644,1.96897577 L10.8985863,1.96897577 C11.8624119,2.7576941 12.4782302,3.95548647 12.4782302,5.29527758 L12.4789659,7.7232351 L23.026602,7.7232351 L23.0258662,5.29527758 C23.0258662,3.46106603 21.533776,1.96897577 19.6995644,1.96897577 Z M19.6995644,1 C22.0679266,1 23.994842,2.92617963 23.994842,5.29527758 L23.9999922,22.1070441 C24.000728,22.2357994 23.9492258,22.3586687 23.8579935,22.4499011 C23.7674969,22.5403977 23.6438918,22.5918998 23.5158722,22.5918998 L0.490005972,22.5918998 C0.2221949,22.5918998 0.00515021292,22.3748551 0.00515021292,22.1070441 L0,5.29527758 C0,2.92617963 1.92691538,1 4.29527758,1 L19.6995644,1 Z M20.4270688,16.2377143 L20.4270688,14.0922827 C20.4270688,13.7781197 20.1717654,13.523552 19.8583381,13.523552 L15.6660648,13.523552 C15.3519018,13.523552 15.0965984,13.7781197 15.0965984,14.0922827 L15.0965984,16.2377143 C15.0965984,16.5518772 15.3519018,16.8064449 15.6660648,16.8064449 L19.8583381,16.8064449 C20.1717654,16.8064449 20.4270688,16.5518772 20.4270688,16.2377143 Z M19.8583381,12.5531048 C20.7066518,12.5531048 21.3967803,13.2439691 21.3967803,14.0922827 L21.3967803,16.2377143 C21.3967803,17.0860279 20.7066518,17.7768922 19.8583381,17.7768922 L15.6660648,17.7768922 C14.8170154,17.7768922 14.1268869,17.0860279 14.1268869,16.2377143 L14.1268869,14.0922827 C14.1268869,13.2439691 14.8170154,12.5531048 15.6660648,12.5531048 L19.8583381,12.5531048 Z" id="path-1"></path>
    </defs>
    <g id="🌎Icons-/-24x24-/-Central-THIN-" stroke="none" stroke-width="1" fill="none" fill-rule="evenodd">
        <mask id="mask-2" fill="white">
            <use xlink:href="#path-1"></use>
        </mask>
        <use id="Mask" fill="#7EA7C6" xlink:href="#path-1"></use>
    </g>
</svg>