<?xml version="1.0" encoding="UTF-8"?>
<svg width="24px" height="24px" viewBox="0 0 24 24" version="1.1" xmlns="http://www.w3.org/2000/svg" xmlns:xlink="http://www.w3.org/1999/xlink">
    <!-- Generator: Sketch 52.6 (67491) - http://www.bohemiancoding.com/sketch -->
    <title>🌎Icons / 24x24 / Circular Add / Filled</title>
    <desc>Created with Sketch.</desc>
    <g id="🌎Icons-/-24x24-/-Circular-Add-/-Filled" stroke="none" stroke-width="1" fill="none" fill-rule="evenodd">
        <path d="M18.7421203,12.0845577 C18.7421203,12.5749075 18.3446147,12.9724131 17.8542649,12.9724131 L12.8878554,12.9724131 L12.8878554,17.8542649 L12.8878554,17.9388225 C12.8878554,18.4291724 12.4903499,18.8266779 12,18.8266779 C11.5096501,18.8266779 11.1121446,18.4291724 11.1121446,17.9388225 L11.1121446,17.8542649 L11.1121446,12.9724131 L6.14573512,12.9724131 C5.65538527,12.9724131 5.25787972,12.5749075 5.25787972,12.0845577 C5.25787972,12.0702674 5.25940175,12.0564 5.26007822,12.0422788 C5.25940175,12.0281577 5.25787972,12.0142902 5.25787972,12 C5.25787972,11.5096501 5.65538527,11.1121446 6.14573512,11.1121446 L11.1121446,11.1121446 L11.1121446,6.23037734 L11.1121446,6.14581968 C11.1121446,5.65546982 11.5096501,5.25796427 12,5.25796427 C12.4903499,5.25796427 12.8878554,5.65546982 12.8878554,6.14581968 L12.8878554,6.23037734 L12.8878554,11.1121446 L17.8542649,11.1121446 C18.3446147,11.1121446 18.7421203,11.5096501 18.7421203,12 C18.7421203,12.0142902 18.7405982,12.0281577 18.7400063,12.0422788 C18.7405982,12.0564 18.7421203,12.0702674 18.7421203,12.0845577 M12,0 C5.38319417,0 0,5.38319417 0,12 C0,18.6168058 5.38319417,24 12,24 C18.6168904,24 24.0000846,18.6168058 24.0000846,12 C24.0000846,5.38319417 18.6168904,0 12,0" id="Page-1" fill="#7EA7C6"></path>
    </g>
</svg>