<?xml version="1.0" encoding="UTF-8"?>
<svg width="24px" height="24px" viewBox="0 0 24 24" version="1.1" xmlns="http://www.w3.org/2000/svg" xmlns:xlink="http://www.w3.org/1999/xlink">
    <!-- Generator: Sketch 52.6 (67491) - http://www.bohemiancoding.com/sketch -->
    <title>🌎Icons / 24x24 / Circular Remover</title>
    <desc>Created with Sketch.</desc>
    <g id="🌎Icons-/-24x24-/-Circular-Remover" stroke="none" stroke-width="1" fill="none" fill-rule="evenodd">
        <path d="M16.7076201,16.8271604 C16.7177248,16.8170556 16.7264543,16.8061736 16.7360209,16.7957699 C16.7464246,16.7862033 16.7573066,16.7774738 16.7674114,16.7673691 C17.1141411,16.4206394 17.1141411,15.8584816 16.7674114,15.5117519 L13.2556295,11.9999701 L16.7673516,8.48824808 C17.1140813,8.14151837 17.1140813,7.57936063 16.7673516,7.23263092 C16.4206219,6.88590121 15.8584641,6.88590121 15.5117344,7.23263092 L12.0000124,10.7443529 L8.48823057,7.23257113 C8.14150086,6.88584142 7.57934312,6.88584142 7.23261341,7.23257113 C7.22250868,7.24267586 7.21377915,7.25355788 7.20427234,7.26402135 C7.19380886,7.27352817 7.18292685,7.2822577 7.17282212,7.29236243 C6.82609241,7.63909213 6.82609241,8.20124987 7.17282212,8.54797958 L10.6846039,12.0597614 L7.17282212,15.5715432 C6.82609241,15.9182729 6.82609241,16.4804307 7.17282212,16.8271604 C7.51955183,17.1738901 8.08170957,17.1738901 8.42843928,16.8271604 L11.9402211,13.3153786 L15.4520029,16.8271604 C15.7987326,17.1738901 16.3608904,17.1738901 16.7076201,16.8271604 Z M20.4852938,3.51468873 C25.1641418,8.1935368 25.1641418,15.806523 20.4853535,20.4853113 C15.8065653,25.1640995 8.19357908,25.1640995 3.51473101,20.4852515 C-1.16405727,15.8064632 -1.16405727,8.19347701 3.51473101,3.51468873 C8.19351928,-1.16409955 15.8065055,-1.16409955 20.4852938,3.51468873 Z" id="Page-1" fill="#7EA7C6"></path>
    </g>
</svg>