<?xml version="1.0" encoding="UTF-8"?>
<svg width="24px" height="24px" viewBox="0 0 24 24" version="1.1" xmlns="http://www.w3.org/2000/svg" xmlns:xlink="http://www.w3.org/1999/xlink">
    <!-- Generator: Sketch 52.6 (67491) - http://www.bohemiancoding.com/sketch -->
    <title>🌎Icons / 24x24 / Senha</title>
    <desc>Created with Sketch.</desc>
    <defs>
        <path d="M6.52378776,6.52427347 C6.93031837,6.11774286 6.93031837,5.45651837 6.52378776,5.04998776 C6.13097143,4.65717143 5.44231837,4.65717143 5.04950204,5.04998776 C4.64395102,5.45651837 4.64395102,6.11774286 5.04950204,6.52427347 C5.2464,6.72117143 5.50893061,6.82990612 5.78713469,6.82990612 C6.06533878,6.82990612 6.3268898,6.72117143 6.52378776,6.52427347 Z M23.6493061,22.7361265 C23.6493061,23.4326163 23.0811429,23.9998 22.3846531,23.9998 L19.0932245,23.9998 C18.7552653,23.9998 18.4388571,23.8685347 18.1998367,23.6304939 L17.0919184,22.5225755 C16.8519184,22.2845347 16.7196735,21.9671469 16.7196735,21.6282082 L16.7196735,20.9748204 L16.0682449,20.9748204 C15.4226939,20.9748204 14.8888163,20.4889429 14.8124082,19.8639633 C14.1874286,19.7875551 13.7025306,19.2536776 13.7025306,18.6091061 L13.7025306,18.1202898 L13.2127347,18.1202898 C12.8757551,18.1202898 12.5573878,17.9880449 12.3193469,17.7490245 L10.8636735,16.293351 C10.0515918,16.5519633 9.20326531,16.682249 8.34122449,16.682249 C3.74204082,16.682249 0,12.9411878 0,8.34200408 C0,3.74184082 3.74204082,-0.0002 8.34122449,-0.0002 C12.9404082,-0.0002 16.682449,3.74184082 16.682449,8.34200408 C16.682449,9.20502449 16.5511837,10.0513918 16.2945306,10.8624939 L23.2790204,17.8489429 C23.5170612,18.0869837 23.6493061,18.4043714 23.6493061,18.7423306 L23.6493061,22.7361265 Z M17.4279184,19.5583306 C17.8187755,19.5583306 18.1361633,19.8757184 18.1361633,20.2665755 L18.1361633,21.5655143 L19.1559184,22.5842898 L22.2328163,22.5842898 L22.2328163,18.8050245 L14.9789388,11.5501673 C14.7820408,11.3532694 14.7183673,11.0574327 14.8173061,10.7988204 C15.115102,10.0171061 15.2659592,9.19033061 15.2659592,8.34200408 C15.2659592,4.52257551 12.1596735,1.4162898 8.34122449,1.4162898 C4.52277551,1.4162898 1.4164898,4.52257551 1.4164898,8.34200408 C1.4164898,12.1594735 4.52277551,15.2657592 8.34122449,15.2657592 C9.18955102,15.2657592 10.0163265,15.114902 10.7980408,14.8180857 C11.0586122,14.7171878 11.354449,14.7818408 11.5503673,14.9787388 L13.2754286,16.7038 L14.4097959,16.7038 C14.8006531,16.7038 15.1180408,17.0211878 15.1180408,17.4120449 L15.1180408,18.4572694 L15.5118367,18.4572694 C15.9017143,18.4572694 16.2200816,18.7746571 16.2200816,19.1655143 L16.2200816,19.5583306 L17.4279184,19.5583306 Z M7.52493061,7.52541633 C6.59725714,8.45406939 4.97603265,8.45406939 4.04835918,7.52541633 C3.58403265,7.0610898 3.32835918,6.44394694 3.32835918,5.78664082 C3.32835918,5.13031429 3.58403265,4.51317143 4.04835918,4.0488449 C4.51268571,3.58353878 5.13080816,3.32786531 5.78713469,3.32786531 C6.44346122,3.32786531 7.06060408,3.58353878 7.52493061,4.0488449 C7.99023673,4.51219184 8.24493061,5.13031429 8.24493061,5.78664082 C8.24493061,6.44394694 7.99023673,7.06206939 7.52493061,7.52541633 Z" id="path-1"></path>
    </defs>
    <g id="🌎Icons-/-24x24-/-Senha" stroke="none" stroke-width="1" fill="none" fill-rule="evenodd">
        <mask id="mask-2" fill="white">
            <use xlink:href="#path-1"></use>
        </mask>
        <use id="Mask" fill="#7EA7C6" xlink:href="#path-1"></use>
    </g>
</svg>