<?xml version="1.0" encoding="UTF-8"?>
<svg width="24px" height="24px" viewBox="0 0 24 24" version="1.1" xmlns="http://www.w3.org/2000/svg" xmlns:xlink="http://www.w3.org/1999/xlink">
    <!-- Generator: Sketch 52.6 (67491) - http://www.bohemiancoding.com/sketch -->
    <title>🌎Icons / 24x24 / Gestor</title>
    <desc>Created with Sketch.</desc>
    <g id="🌎Icons-/-24x24-/-Gestor" stroke="none" stroke-width="1" fill="none" fill-rule="evenodd">
        <path d="M23.5,23 L23,23 L23,8.5 C23,8.2 22.8,8 22.5,8 L19.5,8 C19.2,8 19,8.2 19,8.5 L19,23 L17,23 L17,15.5 C17,15.2 16.8,15 16.5,15 L13.5,15 C13.2,15 13,15.2 13,15.5 L13,23 L11,23 L11,13.5 C11,13.2 10.8,13 10.5,13 L7.5,13 C7.2,13 7,13.2 7,13.5 L7,23 L5,23 L5,18.5 C5,18.2 4.8,18 4.5,18 L1.5,18 C1.2,18 1,18.2 1,18.5 L1,23 L0.5,23 C0.2,23 0,23.2 0,23.5 C0,23.8 0.2,24 0.5,24 L23.5,24 C23.8,24 24,23.8 24,23.5 C24,23.2 23.8,23 23.5,23 Z M20,9 L22,9 L22,23 L20,23 L20,9 Z M14,16 L16,16 L16,23 L14,23 L14,16 Z M8,14 L10,14 L10,23 L8,23 L8,14 Z M2,19 L4,19 L4,23 L2,23 L2,19 Z M3.45454465,12 C3.35693699,12 3.16172167,11.9 3.06411401,11.8 C2.96650635,11.6 2.96650635,11.3 3.16172167,11.1 L9.01818125,6.1 C9.11578891,6 9.31100423,6 9.50621955,6 L15.0698562,7.9 L20.4382774,2 L17.6076553,2 C17.3148323,2 17.119617,1.8 17.119617,1.5 C17.119617,1.2 17.3148323,1 17.6076553,1 L21.5119617,1 C21.5119617,1 21.6095694,1 21.6095694,1 C21.6095694,1 21.707177,1 21.707177,1 C21.707177,1.1 21.8047847,1.1 21.8047847,1.1 C21.9023923,1.1 21.9023923,1.1 21.9023923,1.1 C22,1.1 22,1.2 22,1.2 C22,1.3 22,1.3 22,1.3 C22,1.4 22,1.4 22,1.4 C22,1.4 22,1.5 22,1.5 L22,5.5 C22,5.8 21.8047847,6 21.5119617,6 C21.2191387,6 21.0239234,5.8 21.0239234,5.5 L21.0239234,2.8 L15.5578945,8.8 C15.3626791,9 15.1674638,9 14.9722485,9 L9.40861189,7.1 L3.74736762,11.9 C3.64975996,12 3.5521523,12 3.45454465,12 Z" id="Gestor" fill="#7EA7C6"></path>
    </g>
</svg>