<?xml version="1.0" encoding="UTF-8"?>
<svg width="24px" height="24px" viewBox="0 0 24 24" version="1.1" xmlns="http://www.w3.org/2000/svg" xmlns:xlink="http://www.w3.org/1999/xlink">
    <!-- Generator: Sketch 52.6 (67491) - http://www.bohemiancoding.com/sketch -->
    <title>🌎Icons / 24x24 / Marcar Transferido</title>
    <desc>Created with Sketch.</desc>
    <g id="🌎Icons-/-24x24-/-Marcar-Transferido" stroke="none" stroke-width="1" fill="none" fill-rule="evenodd">
        <path d="M2.58235215,20.531671 L4.48482832,18.6850027 L5.71574839,19.8798146 L5.04419229,20.531671 L2.58235215,20.531671 Z M6.60962983,14.3670958 L9.29572819,16.9743994 L10.214065,17.8657975 L6.9775108,19.0280206 L5.36858305,17.4662896 L6.60962983,14.3670958 Z M13.983847,6.65608473 L18.1730259,10.7223363 L11.5835234,17.1185404 L7.39434452,13.052248 L13.983847,6.65608473 Z M18.0173856,2.74086713 C18.1984057,2.56511631 18.4391356,2.46832896 18.6952026,2.46832896 C18.9512696,2.46832896 19.1919995,2.56511631 19.3730616,2.74086713 L22.2065225,5.49116963 C22.3875846,5.66696124 22.487297,5.90062948 22.487297,6.14918494 C22.487297,6.3977404 22.3875846,6.63136786 22.2065225,6.80715946 L19.242675,9.68406455 L15.0534961,5.61781301 L18.0173856,2.74086713 Z M23.2436485,20.531671 L7.18344851,20.531671 L7.20311365,20.5125828 L11.8459354,18.8453768 C11.8523644,18.8430927 11.8585833,18.84036 11.8648862,18.8379128 C11.8695504,18.8361182 11.8742145,18.8343235 11.8788367,18.8324474 C11.898838,18.8241676 11.9185031,18.8152761 11.937538,18.8054872 C11.9400591,18.804182 11.9424963,18.8027137 11.9450174,18.8013677 C11.9626236,18.7921091 11.9797256,18.7820755 11.9964073,18.7715933 C11.9998529,18.76935 12.0033826,18.7672699 12.0067862,18.7650266 C12.0248966,18.7531576 12.0424187,18.7405544 12.0593106,18.7272987 C12.06242,18.7248107 12.0654454,18.7222411 12.0685128,18.7197123 C12.0843962,18.7068644 12.0997334,18.6934455 12.1144402,18.6794148 C12.1156588,18.6781912 12.1170874,18.6771716 12.118348,18.675948 L19.7774996,11.2414721 L23.2761296,7.84543119 C23.7429245,7.39232934 24,6.78994738 24,6.14918494 C24,5.5084225 23.7429245,4.90604054 23.2761716,4.4529387 L20.4427107,1.70259541 C19.9759158,1.24953435 19.3553294,1 18.6952026,1 C18.0350758,1 17.4144894,1.24953435 16.9477365,1.70259541 L13.4490224,5.09867714 L5.78987084,12.533153 C5.788064,12.5349068 5.7865513,12.5368238 5.78474446,12.5386592 C5.76902916,12.554199 5.75386011,12.5702283 5.73957347,12.5871548 C5.73869106,12.5882153 5.73776663,12.5892758 5.73688422,12.5902954 C5.72360605,12.6062431 5.7112523,12.6228842 5.69931876,12.6399331 C5.69570508,12.6450315 5.6920914,12.6502114 5.6886458,12.6553914 C5.67784678,12.6717061 5.66755199,12.688388 5.65805558,12.7056 C5.6548621,12.7114326 5.65200477,12.7173467 5.64893734,12.7232608 C5.64213018,12.736435 5.63574321,12.7498538 5.6296924,12.7634767 C5.62691911,12.7697579 5.62401976,12.776039 5.62141455,12.7824018 C5.62091032,12.783707 5.62023801,12.7849306 5.61973377,12.7862766 L3.83751749,17.2368224 L0.221695033,20.7465773 C0.221400896,20.746822 0.221148779,20.7471075 0.220854642,20.7474338 C0.205475495,20.7624026 0.191062796,20.778024 0.177238372,20.7940125 C0.172784302,20.7991516 0.168624368,20.8044539 0.164296357,20.8097562 C0.154757924,20.8214213 0.145597667,20.8332903 0.136857605,20.845404 C0.132361515,20.8516036 0.127949465,20.8578032 0.123663473,20.8641252 C0.115091489,20.8768915 0.107023739,20.8898617 0.0993341656,20.9029951 C0.0960566423,20.9086237 0.0925270019,20.9140076 0.0893755373,20.9197178 C0.0796270067,20.9374193 0.0707188666,20.9555287 0.0625250585,20.9739236 C0.0591634962,20.9813876 0.0562221292,20.9891371 0.0531547036,20.9967642 C0.0481543797,21.0090411 0.0434481925,21.0213587 0.0391622006,21.0338395 C0.0362628532,21.042364 0.0334475447,21.0508885 0.0308003144,21.0595353 C0.0265143225,21.0738107 0.022816604,21.0882085 0.0194130222,21.1026471 C0.0179423387,21.108969 0.0160934794,21.1151687 0.0147908741,21.1215314 C0.0105469017,21.1421696 0.00743745656,21.1629709 0.0050003239,21.183813 C0.00428599191,21.190135 0.0038237771,21.1964978 0.00327752323,21.2028605 C0.00172280067,21.2202357 0.000840390572,21.237611 0.0005882734,21.2550678 C0.000504234343,21.2586978 0,21.2622055 0,21.2658355 C0,21.2678341 0.0002941367,21.2697511 0.0002941367,21.2717496 C0.000504234343,21.2939785 0.00151270303,21.3162074 0.00378175757,21.3385178 C0.00420195286,21.3426373 0.0050003239,21.3466344 0.00546253871,21.3507539 C0.00756351514,21.3681291 0.010252765,21.3854635 0.0136563468,21.4027164 C0.0152110693,21.4107922 0.01693387,21.4187457 0.0187827293,21.4266991 C0.0218921744,21.4400772 0.0255058538,21.4534553 0.02941367,21.4667927 C0.0317667636,21.4748685 0.0339517791,21.4830258 0.0365990094,21.4910201 C0.0428178996,21.5097413 0.0497091023,21.5283809 0.0576087737,21.5468166 C0.0576928127,21.5470205 0.0577768518,21.5471429 0.0578608908,21.5473876 C0.060970336,21.5546885 0.0646680545,21.5617038 0.0680296168,21.5689231 C0.0739123508,21.5814855 0.0799631629,21.5939663 0.0864761898,21.6061208 C0.0905941036,21.6136663 0.0948800955,21.6210896 0.0992501265,21.628472 C0.106351427,21.6406265 0.113830903,21.6525363 0.121604516,21.6642013 C0.12568041,21.6703194 0.129630246,21.6764374 0.133874218,21.6824331 C0.146017862,21.699482 0.158581701,21.7160415 0.17202795,21.7319484 C0.172322087,21.7322747 0.172532184,21.732601 0.172826321,21.7329273 C0.186860844,21.749446 0.201819796,21.7651082 0.217198943,21.7803217 C0.221568974,21.7846451 0.226107083,21.7887646 0.230603173,21.7929656 C0.242116524,21.8037741 0.253924011,21.8142564 0.266109674,21.82429 C0.271488174,21.8287765 0.276782635,21.8331407 0.282287193,21.8374641 C0.295985559,21.8481503 0.310062101,21.8583063 0.3244748,21.8680951 C0.328172518,21.8705831 0.331744178,21.8733974 0.335525936,21.8758446 C0.352795962,21.887061 0.370654262,21.8974209 0.388848717,21.9072913 C0.396202135,21.9112477 0.40380767,21.9148777 0.411329165,21.9186301 C0.423262711,21.924585 0.435322316,21.9302544 0.447592018,21.9355975 C0.455995924,21.9392683 0.46435781,21.9428575 0.472929794,21.9462021 C0.486880278,21.9516675 0.501082878,21.9566435 0.515453557,21.961334 C0.52234476,21.9635365 0.529067884,21.9661061 0.536085146,21.9681862 C0.555708265,21.9739372 0.575667541,21.9787908 0.595836915,21.9830734 C0.603484469,21.9846641 0.611258082,21.9859285 0.619031695,21.9873153 C0.634452862,21.9900888 0.649958068,21.9923728 0.665631352,21.9942083 C0.67294275,21.9951056 0.680170109,21.9959621 0.687565546,21.9966147 C0.710298111,21.998654 0.733198754,22 0.756351514,22 L5.35748989,22 L23.2436485,22 C23.6613646,22 24,21.6712982 24,21.2658355 C24,20.8603728 23.6613646,20.531671 23.2436485,20.531671 Z" id="Fill-1" fill="#7EA7C6"></path>
    </g>
</svg>