<?xml version="1.0" encoding="UTF-8"?>
<svg width="24px" height="24px" viewBox="0 0 24 24" version="1.1" xmlns="http://www.w3.org/2000/svg" xmlns:xlink="http://www.w3.org/1999/xlink">
    <!-- Generator: Sketch 52.6 (67491) - http://www.bohemiancoding.com/sketch -->
    <title>🌎Icons / 24x24 / News</title>
    <desc>Created with Sketch.</desc>
    <defs>
        <path d="M3,22.9217273 L20,22.9217273 L20,1.07725066 L3,1.07725066 L3,22.9217273 Z M20.4574365,0 C20.756463,0 21,0.24120603 21,0.53862533 L21,23.4613747 C21,23.758794 20.756463,24 20.4574365,24 L2.54256355,24 C2.24250946,24 2,23.758794 2,23.4613747 L2,0.53862533 C2,0.24120603 2.24250946,0 2.54256355,0 L20.4574365,0 Z M17.4583333,4 C17.7833333,4 18,4.2 18,4.5 C18,4.8 17.7833333,5 17.4583333,5 L5.54166667,5 C5.21666667,5 5,4.8 5,4.5 C5,4.2 5.21666667,4 5.54166667,4 L17.4583333,4 Z M5.5,14 C5.2,14 5,13.8 5,13.5 L5,7.5 C5,7.2 5.2,7 5.5,7 L10.5,7 C10.8,7 11,7.2 11,7.5 L11,13.5 C11,13.8 10.8,14 10.5,14 L5.5,14 Z M6,8 L6,13 L10,13 L10,8 L6,8 Z M17.375,9 C17.75,9 18,9.2 18,9.5 C18,9.8 17.75,10 17.375,10 L13.625,10 C13.25,10 13,9.8 13,9.5 C13,9.2 13.25,9 13.625,9 L17.375,9 Z M17.4,11 C17.76,11 18,11.2 18,11.5 C18,11.8 17.76,12 17.4,12 L12.6,12 C12.24,12 12,11.8 12,11.5 C12,11.2 12.24,11 12.6,11 L17.4,11 Z M17.4,13 C17.76,13 18,13.2 18,13.5 C18,13.8 17.76,14 17.4,14 L12.6,14 C12.24,14 12,13.8 12,13.5 C12,13.2 12.24,13 12.6,13 L17.4,13 Z M17.4583333,15 C17.7833333,15 18,15.2 18,15.5 C18,15.8 17.7833333,16 17.4583333,16 L5.54166667,16 C5.21666667,16 5,15.8 5,15.5 C5,15.2 5.21666667,15 5.54166667,15 L17.4583333,15 Z M17.4583333,17 C17.7833333,17 18,17.2 18,17.5 C18,17.8 17.7833333,18 17.4583333,18 L5.54166667,18 C5.21666667,18 5,17.8 5,17.5 C5,17.2 5.21666667,17 5.54166667,17 L17.4583333,17 Z M17.4583333,19 C17.7833333,19 18,19.2 18,19.5 C18,19.8 17.7833333,20 17.4583333,20 L5.54166667,20 C5.21666667,20 5,19.8 5,19.5 C5,19.2 5.21666667,19 5.54166667,19 L17.4583333,19 Z" id="path-1"></path>
    </defs>
    <g id="🌎Icons-/-24x24-/-News" stroke="none" stroke-width="1" fill="none" fill-rule="evenodd">
        <mask id="mask-2" fill="white">
            <use xlink:href="#path-1"></use>
        </mask>
        <use id="Mask" fill="#7EA7C6" xlink:href="#path-1"></use>
    </g>
</svg>