<?xml version="1.0" encoding="UTF-8"?>
<svg width="24px" height="24px" viewBox="0 0 24 24" version="1.1" xmlns="http://www.w3.org/2000/svg" xmlns:xlink="http://www.w3.org/1999/xlink">
    <!-- Generator: Sketch 52.6 (67491) - http://www.bohemiancoding.com/sketch -->
    <title>🌎Icons / 24x24 / OMR THIN</title>
    <desc>Created with Sketch.</desc>
    <defs>
        <path d="M6.59349593,3.83333333 C6.35776464,3.83333333 6.16666667,4.03277013 6.16666667,4.27878788 L6.16666667,19.7212121 C6.16666667,19.9672299 6.35776464,20.1666667 6.59349593,20.1666667 L17.4065041,20.1666667 C17.6422354,20.1666667 17.8333333,19.9672299 17.8333333,19.7212121 L17.8333333,4.27878788 C17.8333333,4.03277013 17.6422354,3.83333333 17.4065041,3.83333333 L6.59349593,3.83333333 Z M6.4751773,2.83333333 L17.5248227,2.83333333 C18.2474932,2.83333333 18.8333333,3.43884986 18.8333333,4.18579235 L18.8333333,19.8142077 C18.8333333,20.5611501 18.2474932,21.1666667 17.5248227,21.1666667 L6.4751773,21.1666667 C5.75250683,21.1666667 5.16666667,20.5611501 5.16666667,19.8142077 L5.16666667,4.18579235 C5.16666667,3.43884986 5.75250683,2.83333333 6.4751773,2.83333333 Z M8.5,17 C7.94771525,17 7.5,16.5522847 7.5,16 C7.5,15.4477153 7.94771525,15 8.5,15 C9.05228475,15 9.5,15.4477153 9.5,16 C9.5,16.5522847 9.05228475,17 8.5,17 Z M11.0409474,15.6666667 L15.3113224,15.6666667 C15.5187038,15.6666667 15.6856032,15.8676717 15.6856032,16.1155211 C15.6856032,16.3633705 15.5187038,16.5652273 15.3113224,16.5652273 L11.0409474,16.5652273 C10.833566,16.5652273 10.6666667,16.3633705 10.6666667,16.1155211 C10.6666667,15.8676717 10.833566,15.6666667 11.0409474,15.6666667 Z M8.5,13 C7.94771525,13 7.5,12.5522847 7.5,12 C7.5,11.4477153 7.94771525,11 8.5,11 C9.05228475,11 9.5,11.4477153 9.5,12 C9.5,12.5522847 9.05228475,13 8.5,13 Z M11.0409474,11.6666667 L15.3113224,11.6666667 C15.5187038,11.6666667 15.6856032,11.8676717 15.6856032,12.1155211 C15.6856032,12.3633705 15.5187038,12.5652273 15.3113224,12.5652273 L11.0409474,12.5652273 C10.833566,12.5652273 10.6666667,12.3633705 10.6666667,12.1155211 C10.6666667,11.8676717 10.833566,11.6666667 11.0409474,11.6666667 Z M8.5,9 C7.94771525,9 7.5,8.55228475 7.5,8 C7.5,7.44771525 7.94771525,7 8.5,7 C9.05228475,7 9.5,7.44771525 9.5,8 C9.5,8.55228475 9.05228475,9 8.5,9 Z M11.0409474,7.66666667 L15.3113224,7.66666667 C15.5187038,7.66666667 15.6856032,7.86767169 15.6856032,8.11552111 C15.6856032,8.36337052 15.5187038,8.56522727 15.3113224,8.56522727 L11.0409474,8.56522727 C10.833566,8.56522727 10.6666667,8.36337052 10.6666667,8.11552111 C10.6666667,7.86767169 10.833566,7.66666667 11.0409474,7.66666667 Z M2,5.33333333 L2,0.448854442 C2,0.201005025 2.20185674,0 2.44970616,0 L7.5,0 L7.5,0.897708883 L2.8985606,0.897708883 L2.8985606,5.33333333 L2,5.33333333 Z M21.8333333,5.33333333 L20.9347727,5.33333333 L20.9347727,0.897708883 L16.3333333,0.897708883 L16.3333333,0 L21.3836272,0 C21.6314766,0 21.8333333,0.201005025 21.8333333,0.448854442 L21.8333333,5.33333333 Z M2,18.6666667 L2.8985606,18.6666667 L2.8985606,23.1022911 L7.5,23.1022911 L7.5,24 L2.44970616,24 C2.20185674,24 2,23.798995 2,23.5511456 L2,18.6666667 Z M21.8333333,18.6666667 L21.8333333,23.5511456 C21.8333333,23.798995 21.6314766,24 21.3836272,24 L16.3333333,24 L16.3333333,23.1022911 L20.9347727,23.1022911 L20.9347727,18.6666667 L21.8333333,18.6666667 Z" id="path-1"></path>
    </defs>
    <g id="🌎Icons-/-24x24-/-OMR-THIN" stroke="none" stroke-width="1" fill="none" fill-rule="evenodd">
        <mask id="mask-2" fill="white">
            <use xlink:href="#path-1"></use>
        </mask>
        <use id="Mask" fill="#7EA7C6" xlink:href="#path-1"></use>
    </g>
</svg>