<?xml version="1.0" encoding="UTF-8"?>
<svg width="24px" height="24px" viewBox="0 0 24 24" version="1.1" xmlns="http://www.w3.org/2000/svg" xmlns:xlink="http://www.w3.org/1999/xlink">
    <!-- Generator: Sketch 52.6 (67491) - http://www.bohemiancoding.com/sketch -->
    <title>🌎Icons / 24x24 / A Melhorar</title>
    <desc>Created with Sketch.</desc>
    <g id="🌎Icons-/-24x24-/-A-Melhorar" stroke="none" stroke-width="1" fill="none" fill-rule="evenodd">
        <path d="M11.9992944,3.64820433 C7.39476469,3.64820433 3.64820433,7.39476469 3.64820433,11.9992944 C3.64820433,16.6052353 7.39476469,20.3503845 11.9992944,20.3503845 C16.6052353,20.3503845 20.3503845,16.6052353 20.3503845,11.9992944 C20.3503845,7.39476469 16.6052353,3.64820433 11.9992944,3.64820433 Z M11.9992944,22 C6.4859945,22 2,17.5140055 2,11.9992944 C2,6.4859945 6.4859945,2 11.9992944,2 C17.5140055,2 22,6.4859945 22,11.9992944 C22,17.5140055 17.5140055,22 11.9992944,22 Z M11.9882876,14.461723 C11.5339025,14.461723 11.1641854,14.0920059 11.1641854,13.6376208 L11.1641854,6.08664362 C11.1641854,5.63225852 11.5339025,5.26254145 11.9882876,5.26254145 C12.4440838,5.26254145 12.8138009,5.63225852 12.8138009,6.08664362 L12.8138009,13.6376208 C12.8138009,14.0920059 12.4440838,14.461723 11.9882876,14.461723 Z M11.9882876,18.6193466 C11.5339025,18.6193466 11.1641854,18.2496296 11.1641854,17.7952445 L11.1641854,16.7086714 C11.1641854,16.2542863 11.5339025,15.8859804 11.9882876,15.8859804 C12.4440838,15.8859804 12.8138009,16.2542863 12.8138009,16.7086714 L12.8138009,17.7952445 C12.8138009,18.2496296 12.4440838,18.6193466 11.9882876,18.6193466 Z" id="Combined-Shape" fill="#7EA7C6"></path>
    </g>
</svg>