<?xml version="1.0" encoding="UTF-8"?>
<svg width="24px" height="24px" viewBox="0 0 24 24" version="1.1" xmlns="http://www.w3.org/2000/svg" xmlns:xlink="http://www.w3.org/1999/xlink">
    <!-- Generator: Sketch 52.6 (67491) - http://www.bohemiancoding.com/sketch -->
    <title>🌎Icons / 24x24 / Chamada THIN</title>
    <desc>Created with Sketch.</desc>
    <defs>
        <path d="M19.5352389,23.0006008 L8.96831821,23.0006008 L8.96831821,20.1534132 C8.96831821,19.8771935 8.74445885,19.6533342 8.46823916,19.6533342 C8.19201948,19.6533342 7.96816012,19.8771935 7.96816012,20.1534132 L7.96816012,23.0006008 L4.01078193,23.0006008 C4.12460872,20.1761786 5.21886363,18.1455086 7.26774591,16.9586746 C8.89091599,16.0192241 10.6871028,15.8765612 11.3996585,15.8606254 C11.4383596,15.8613843 11.4770607,15.8621431 11.5165207,15.8621431 C14.2498814,15.8621431 16.474057,13.6372087 16.474057,10.903848 C16.474057,9.80655769 16.115882,8.79198153 15.5103235,7.97015209 L15.5103235,3.0126158 C15.5103235,1.90318399 16.4133494,1.00015809 17.5227812,1.00015809 C18.6329718,1.00015809 19.5352389,1.90318399 19.5352389,3.0126158 L19.5352389,23.0006008 Z M7.55838366,10.903848 C7.55838366,8.72140892 9.33408164,6.94646979 11.5165207,6.94646979 C13.6989597,6.94646979 15.4738989,8.72140892 15.4738989,10.903848 C15.4738989,13.0604863 13.7391785,14.8194897 11.5916464,14.8589496 C11.5810225,14.8589496 11.5696399,14.8581908 11.5582572,14.8581908 C11.5172795,14.8581908 11.4717488,14.8589496 11.4247004,14.8589496 C9.2847567,14.8096247 7.55838366,13.0559332 7.55838366,10.903848 Z M17.5227812,0 C15.8616688,0 14.5101654,1.35150346 14.5101654,3.0126158 L14.5101654,6.95405824 C13.6777121,6.32194011 12.6403706,5.94555285 11.5165207,5.94555285 C8.78240111,5.94555285 6.55822557,8.1697284 6.55822557,10.903848 C6.55822557,12.7281121 7.54927752,14.3247225 9.02067853,15.186012 C8.30432858,15.3696525 7.52423562,15.6542195 6.76690802,16.0928321 C5.64761122,16.740886 4.76203876,17.6219053 4.13447371,18.712366 C3.38169918,20.0175799 3,21.6286085 3,23.499921 C3,23.7761406 3.22461821,24 3.50083789,24 L20.0353179,24 C20.3115376,24 20.535397,23.7761406 20.535397,23.499921 L20.535397,3.0126158 C20.535397,1.35150346 19.1846524,0 17.5227812,0 Z" id="path-1"></path>
    </defs>
    <g id="🌎Icons-/-24x24-/-Chamada-THIN" stroke="none" stroke-width="1" fill="none" fill-rule="evenodd">
        <mask id="mask-2" fill="white">
            <use xlink:href="#path-1"></use>
        </mask>
        <use id="Mask" fill="#7EA7C6" xlink:href="#path-1"></use>
    </g>
</svg>