<?xml version="1.0" encoding="UTF-8"?>
<svg width="24px" height="32px" viewBox="0 0 24 32" version="1.1" xmlns="http://www.w3.org/2000/svg" xmlns:xlink="http://www.w3.org/1999/xlink">
    <!-- Generator: sketchtool 49.3 (51167) - http://www.bohemiancoding.com/sketch -->
    <title>E1B0FD48-5983-4120-9F79-82A9B9C96D50</title>
    <desc>Created with sketchtool.</desc>
    <defs>
        <path d="M33.0469852,30.6674677 L18.9577576,30.6674677 L18.9577576,26.8712176 C18.9577576,26.5029247 18.6592785,26.2044456 18.2909856,26.2044456 C17.9226926,26.2044456 17.6242135,26.5029247 17.6242135,26.8712176 L17.6242135,30.6674677 L12.3477092,30.6674677 C12.4994783,26.9015714 13.9584848,24.1940114 16.6903279,22.6115661 C18.8545547,21.3589654 21.2494704,21.1687482 22.1995447,21.1475006 C22.2511462,21.1485123 22.3027477,21.1495241 22.3553609,21.1495241 C25.9998419,21.1495241 28.9654093,18.182945 28.9654093,14.538464 C28.9654093,13.0754103 28.4878427,11.722642 27.6804313,10.6268694 L27.6804313,4.01682107 C27.6804313,2.53757865 28.8844658,1.33354412 30.3637082,1.33354412 C31.8439624,1.33354412 33.0469852,2.53757865 33.0469852,4.01682107 L33.0469852,30.6674677 Z M17.0778449,14.538464 C17.0778449,11.6285452 19.4454422,9.26195972 22.3553609,9.26195972 C25.2652797,9.26195972 27.6318652,11.6285452 27.6318652,14.538464 C27.6318652,17.4139817 25.3189047,19.7593196 22.4555285,19.8119328 C22.4413634,19.8119328 22.4261865,19.810921 22.4110096,19.810921 C22.3563727,19.810921 22.2956651,19.8119328 22.2329339,19.8119328 C19.3796756,19.7461663 17.0778449,17.407911 17.0778449,14.538464 Z M30.3637082,0 C28.1488918,0 26.3468872,1.80200462 26.3468872,4.01682107 L26.3468872,9.27207766 C25.2369494,8.42925349 23.8538274,7.9274038 22.3553609,7.9274038 C18.7098682,7.9274038 15.7443008,10.8929712 15.7443008,14.538464 C15.7443008,16.9708161 17.0657034,19.0996301 19.0275714,20.2480159 C18.0724381,20.49287 17.0323142,20.8722927 16.022544,21.4571094 C14.5301483,22.3211813 13.349385,23.4958738 12.5126316,24.9498214 C11.5089322,26.6901066 11,28.8381446 11,31.3332279 C11,31.7015209 11.2994909,32 11.6677839,32 L33.7137572,32 C34.0820501,32 34.3805293,31.7015209 34.3805293,31.3332279 L34.3805293,4.01682107 C34.3805293,1.80200462 32.5795365,0 30.3637082,0 Z" id="path-1"></path>
    </defs>
    <g id="Symbols" stroke="none" stroke-width="1" fill="none" fill-rule="evenodd">
        <g id="Bars-/-Toolbar-/-Inicio" transform="translate(-94.000000, -9.000000)">
            <g id="Group-3">
                <g id="Group" transform="translate(83.000000, 9.000000)">
                    <mask id="mask-2" fill="white">
                        <use xlink:href="#path-1"></use>
                    </mask>
                    <use id="Mask" fill="#757575" xlink:href="#path-1"></use>
                </g>
            </g>
        </g>
    </g>
</svg>