<?xml version="1.0" encoding="UTF-8"?>
<svg width="100px" height="100px" viewBox="0 0 100 100" version="1.1" xmlns="http://www.w3.org/2000/svg" xmlns:xlink="http://www.w3.org/1999/xlink">
    <!-- Generator: sketchtool 51.3 (57544) - http://www.bohemiancoding.com/sketch -->
    <title>58DA6145-AA9E-45E2-9B3A-438C7D0CF5BF</title>
    <desc>Created with sketchtool.</desc>
    <defs></defs>
    <g id="Page-1" stroke="none" stroke-width="1" fill="none" fill-rule="evenodd">
        <g id="🌎Icons-/-110x110-/-Chamada">
            <g id="Group-4" transform="translate(27.272727, 18.181818)">
                <g id="Group-3">
                    <path d="M36.7848994,0 C32.5774511,0 29.1542143,3.37875866 29.1542143,7.53153951 L29.1542143,17.3851456 C27.045685,15.8048503 24.4181922,14.8638821 21.5715814,14.8638821 C14.6463023,14.8638821 9.01266554,20.424321 9.01266554,27.2596199 C9.01266554,31.8202801 11.5229111,35.8118064 15.2498376,37.9650299 C13.4353875,38.4241313 11.4594822,39.1355487 9.54123944,40.2320802 C6.70616124,41.8522149 4.46308581,44.0547633 2.87351994,46.780915 C0.966809718,50.0439498 0,54.0715212 0,58.7498024 C0,59.4403516 0.568937727,60 1.26857736,60 L43.1489291,60 C43.8485688,60 44.4155844,59.4403516 44.4155844,58.7498024 L44.4155844,7.53153951 C44.4155844,3.37875866 40.9942697,0 36.7848994,0 Z" id="Path" fill="#C4E0EA"></path>
                    <path d="M41.8822739,57.5015019 L15.1172136,57.5015019 L15.1172136,50.3835331 C15.1172136,49.6929838 14.5501979,49.1333354 13.8505583,49.1333354 C13.1509187,49.1333354 12.583903,49.6929838 12.583903,50.3835331 L12.583903,57.5015019 L2.56021977,57.5015019 C2.84853281,50.4404465 5.62018214,45.3637715 10.8098168,42.3966864 C14.9211607,40.0480602 19.4707404,39.6914029 21.2755801,39.6515635 C21.3736065,39.6534607 21.4716329,39.6553578 21.5715814,39.6553578 C28.4949385,39.6553578 34.1285753,34.0930218 34.1285753,27.2596199 C34.1285753,24.5163942 33.2213502,21.9799538 31.6875249,19.9253802 L31.6875249,7.53153951 C31.6875249,4.75795997 33.9748083,2.50039523 36.7848994,2.50039523 C39.5969125,2.50039523 41.8822739,4.75795997 41.8822739,7.53153951 L41.8822739,57.5015019 Z M11.5459761,27.2596199 C11.5459761,21.8035223 16.0436595,17.3661745 21.5715814,17.3661745 C27.0995034,17.3661745 31.5952647,21.8035223 31.5952647,27.2596199 C31.5952647,32.6512157 27.201374,37.0487242 21.761868,37.1473741 C21.7349588,37.1473741 21.7061275,37.145477 21.6772962,37.145477 C21.5735035,37.145477 21.4581783,37.1473741 21.3390089,37.1473741 C15.9187238,37.0240617 11.5459761,32.6398331 11.5459761,27.2596199 Z M36.7848994,0 C32.5774511,0 29.1542143,3.37875866 29.1542143,7.53153951 L29.1542143,17.3851456 C27.045685,15.8048503 24.4181922,14.8638821 21.5715814,14.8638821 C14.6463023,14.8638821 9.01266554,20.424321 9.01266554,27.2596199 C9.01266554,31.8202801 11.5229111,35.8118064 15.2498376,37.9650299 C13.4353875,38.4241313 11.4594822,39.1355487 9.54123944,40.2320802 C6.70616124,41.8522149 4.46308581,44.0547633 2.87351994,46.780915 C0.966809718,50.0439498 0,54.0715212 0,58.7498024 C0,59.4403516 0.568937727,60 1.26857736,60 L43.1489291,60 C43.8485688,60 44.4155844,59.4403516 44.4155844,58.7498024 L44.4155844,7.53153951 C44.4155844,3.37875866 40.9942697,0 36.7848994,0 Z" id="Fill-2" fill="#004F6B"></path>
                </g>
            </g>
            <ellipse id="Oval-6" fill="#C4E0EA" cx="9.23853924" cy="9.22529644" rx="4.69308469" ry="4.6798419"></ellipse>
            <ellipse id="Oval-6-Copy" fill="#C4E0EA" cx="11.4374514" cy="90.5217391" rx="2.34654235" ry="2.33992095"></ellipse>
            <ellipse id="Oval-6-Copy-2" fill="#C4E0EA" cx="88.974359" cy="88.9644269" rx="3.51981352" ry="3.50988142"></ellipse>
        </g>
    </g>
</svg>