<?xml version="1.0" encoding="UTF-8"?>
<svg width="15px" height="15px" viewBox="0 0 15 15" version="1.1" xmlns="http://www.w3.org/2000/svg" xmlns:xlink="http://www.w3.org/1999/xlink">
    <!-- Generator: sketchtool 49.3 (51167) - http://www.bohemiancoding.com/sketch -->
    <title>957AC196-BB9F-4E1A-A56C-ADDAFD1820AB</title>
    <desc>Created with sketchtool.</desc>
    <defs>
        <path d="M13.25,12.1893398 L19.2196699,6.21966991 C19.5125631,5.9267767 19.9874369,5.9267767 20.2803301,6.21966991 C20.5732233,6.51256313 20.5732233,6.98743687 20.2803301,7.28033009 L14.3106602,13.25 L20.2803301,19.2196699 C20.5732233,19.5125631 20.5732233,19.9874369 20.2803301,20.2803301 C19.9874369,20.5732233 19.5125631,20.5732233 19.2196699,20.2803301 L13.25,14.3106602 L7.28033009,20.2803301 C6.98743687,20.5732233 6.51256313,20.5732233 6.21966991,20.2803301 C5.9267767,19.9874369 5.9267767,19.5125631 6.21966991,19.2196699 L12.1893398,13.25 L6.21966991,7.28033009 C5.9267767,6.98743687 5.9267767,6.51256313 6.21966991,6.21966991 C6.51256313,5.9267767 6.98743687,5.9267767 7.28033009,6.21966991 L13.25,12.1893398 Z" id="path-1"></path>
    </defs>
    <g id="Symbols" stroke="none" stroke-width="1" fill="none" fill-rule="evenodd">
        <g id="alternativas-/-errada" transform="translate(-6.000000, -6.000000)">
            <g id="alternativas-/-neutra-copy-2">
                <mask id="mask-2" fill="white">
                    <use xlink:href="#path-1"></use>
                </mask>
                <use id="x" fill="#B6494C" fill-rule="nonzero" xlink:href="#path-1"></use>
            </g>
        </g>
    </g>
</svg>