<?xml version="1.0" encoding="UTF-8"?>
<svg width="121px" height="192px" viewBox="0 0 121 192" version="1.1" xmlns="http://www.w3.org/2000/svg" xmlns:xlink="http://www.w3.org/1999/xlink">
    <!-- Generator: sketchtool 49.3 (51167) - http://www.bohemiancoding.com/sketch -->
    <title>64E6D52D-C222-4E8F-83B7-363A4F7CDFD5</title>
    <desc>Created with sketchtool.</desc>
    <defs></defs>
    <g id="Primeiro-acesso" stroke="none" stroke-width="1" fill="none" fill-rule="evenodd">
        <g id="10-Primeiro-Acesso-App_B" transform="translate(-147.000000, -284.000000)">
            <g id="seta" transform="translate(149.000000, 284.000000)">
                <polyline id="Triangle-2" stroke="#F68A33" stroke-width="2.92790781" stroke-linecap="round" stroke-linejoin="round" transform="translate(11.246868, 183.656200) scale(1, -1) translate(-11.246868, -183.656200) " points="0 190 11.2468678 177.312399 11.2468678 177.312399 22.4937356 190"></polyline>
                <path d="M81.4670179,2.91309086 C80.7613095,2.51593383 80.5118454,1.62306593 80.9098241,0.918814604 C81.3078028,0.214563277 82.202518,-0.0343858334 82.9082264,0.362771204 C85.286917,1.70144554 87.5473461,3.05565061 89.6895339,4.42549618 C90.3716927,4.86171012 90.5703388,5.76718858 90.1332223,6.44793894 C89.6961059,7.12868929 88.788754,7.32692522 88.1065952,6.89071128 C86.0117038,5.55110991 83.7985046,4.22519986 81.4670179,2.91309086 Z M94.4663674,11.2686246 C93.8168414,10.7853441 93.6828835,9.86811019 94.1671639,9.21992534 C94.6514442,8.57174049 95.5705759,8.4380591 96.2201018,8.9213396 C98.4376976,10.5713443 100.49249,12.243502 102.384402,13.938086 C102.987346,14.4781429 103.03742,15.4037193 102.496246,16.0054187 C101.955072,16.6071181 101.027581,16.6570892 100.424636,16.1170323 C98.6003051,14.4829799 96.6142416,12.8667529 94.4663674,11.2686246 Z M105.831141,21.5432488 C105.296822,20.9354787 105.357385,20.0105268 105.966413,19.4773109 C106.57544,18.9440951 107.502306,19.0045332 108.036625,19.6123032 C109.888155,21.7183566 111.50266,23.8581879 112.879348,26.0320849 C113.312179,26.7155572 113.107847,27.6197748 112.422961,28.0517115 C111.738074,28.4836482 110.831986,28.2797384 110.399156,27.5962661 C109.106219,25.5546204 107.583811,23.5368521 105.831141,21.5432488 Z M113.791261,34.3069071 C113.503296,33.5511809 113.883759,32.7055843 114.641049,32.4182143 C115.398339,32.1308442 116.245685,32.5105219 116.53365,33.2662481 C117.520811,35.8569263 118.189671,38.4906448 118.539108,41.1653505 C118.64385,41.9670848 118.077482,42.7017542 117.274089,42.8062805 C116.470696,42.9108069 115.734507,42.3456081 115.629764,41.5438738 C115.310132,39.0973047 114.697672,36.6856668 113.791261,34.3069071 Z M115.71307,48.9749543 C115.797229,48.1708086 116.51869,47.5870028 117.324499,47.6709875 C118.130309,47.7549722 118.715322,48.4749441 118.631164,49.2790897 C118.357832,51.8908116 117.796567,54.5337264 116.948633,57.2069106 C116.704128,57.9777332 115.87975,58.4048072 115.107332,58.1608071 C114.334915,57.9168069 113.906957,57.0941305 114.151462,56.3233078 C114.940585,53.8355304 115.4607,51.3863871 115.71307,48.9749543 Z M111.251404,63.3635157 C111.615513,62.6412448 112.497409,62.3502877 113.221174,62.7136448 C113.94494,63.0770019 114.236499,63.9570773 113.87239,64.6793482 C112.724997,66.9553944 111.378787,69.252677 109.834157,71.5714865 C109.385636,72.2448087 108.475074,72.4277972 107.800358,71.9802027 C107.125643,71.5326082 106.942276,70.6239256 107.390796,69.9506034 C108.871557,67.727675 110.158294,65.5318823 111.251404,63.3635157 Z M102.791118,76.1790283 C103.300189,75.5500452 104.223818,75.4519848 104.854103,75.9600043 C105.484387,76.4680239 105.582651,77.3897467 105.07358,78.0187298 C103.476649,79.9918214 101.740722,81.9806565 99.8658486,83.9854076 C99.3130552,84.5764944 98.3847656,84.6084626 97.7924559,84.0568105 C97.2001461,83.5051585 97.1681118,82.5787856 97.7209052,81.9876987 C99.5489783,80.0329904 101.239033,78.0967094 102.791118,76.1790283 Z M92.230362,87.5195945 C92.8161766,86.9610781 93.7447769,86.9822272 94.3044488,87.5668322 C94.8641208,88.1514373 94.842928,89.0781203 94.2571134,89.6366367 C92.4158473,91.3921023 90.4709579,93.1597372 88.4224395,94.9396158 C87.811395,95.4705287 86.8847652,95.406592 86.3527538,94.7968092 C85.8207425,94.1870263 85.8848114,93.2623097 86.4958559,92.7313968 C88.5108238,90.980669 90.4223277,89.2433768 92.230362,87.5195945 Z M80.674537,97.5952882 C81.3051143,97.0876307 82.2286874,97.1862215 82.7373952,97.815497 C83.246103,98.4447724 83.1473081,99.3664386 82.5167308,99.874096 C80.5291996,101.474193 78.4598819,103.084082 76.3087679,104.703797 C75.6620211,105.190775 74.7421387,105.06234 74.254153,104.416928 C73.7661674,103.771517 73.8948687,102.853534 74.5416155,102.366555 C76.6677347,100.765661 78.7120451,99.1752269 80.674537,97.5952882 Z M68.3686609,107.287426 C68.9925725,106.771632 69.9173518,106.858234 70.4342132,107.480858 C70.9510746,108.103481 70.8642932,109.026351 70.2403816,109.542145 C68.1916847,111.235824 66.1977558,112.903224 64.2585997,114.544337 C63.6406894,115.067276 62.714971,114.991321 62.1909498,114.374687 C61.6669286,113.758052 61.7430408,112.834245 62.3609512,112.311306 C64.3088072,110.66283 66.3113754,108.988206 68.3686609,107.287426 Z M56.4100064,117.414183 C57.0208938,116.88309 57.9475425,116.946754 58.4797341,117.55638 C59.0119258,118.166007 58.9481302,119.090742 58.3372428,119.621835 C56.3218941,121.373937 54.373445,123.09391 52.4919046,124.78174 C51.8893649,125.322247 50.9618364,125.272967 50.4202117,124.671671 C49.878587,124.070376 49.9279685,123.144762 50.5305082,122.604256 C52.4235155,120.90614 54.3833452,119.17612 56.4100064,117.414183 Z M44.7424475,127.890721 C45.334878,127.339198 46.2631605,127.371369 46.8158246,127.962576 C47.3684886,128.553783 47.3362516,129.480149 46.7438212,130.031672 C44.7786787,131.861121 42.898992,133.649462 41.1047793,135.396659 C40.5249167,135.961327 39.5961442,135.94998 39.0303079,135.371314 C38.4644716,134.792649 38.4758423,133.865794 39.055705,133.301126 C40.8659277,131.538338 42.7615025,129.734882 44.7424475,127.890721 Z M33.5005866,138.858588 C34.0643326,138.277894 34.9930582,138.263212 35.5749533,138.825794 C36.1568484,139.388376 36.1715611,140.315184 35.6078151,140.895877 C33.7203732,142.840061 31.9506483,144.727411 30.2986811,146.55782 C29.756475,147.158593 28.8288993,147.206979 28.2268826,146.665893 C27.624866,146.124806 27.5763799,145.199146 28.118586,144.598372 C29.7949472,142.740935 31.588934,140.82771 33.5005866,138.858588 Z M22.9722626,150.576053 C23.483985,149.949216 24.4080207,149.855041 25.0361541,150.365707 C25.6642876,150.876373 25.7586574,151.798501 25.2469351,152.425337 C23.5044167,154.559843 21.9475909,156.60377 20.5765192,158.556592 C20.1116159,159.218755 19.1968373,159.379444 18.5333041,158.915501 C17.8697709,158.451557 17.7087495,157.538668 18.1736528,156.876504 C19.5869193,154.863585 21.1864354,152.76361 22.9722626,150.576053 Z M13.9451449,163.645572 C14.3286469,162.933367 15.2180879,162.666258 15.9317667,163.048969 C16.6454456,163.431679 16.9131068,164.319283 16.5296048,165.031489 C15.1824691,167.533267 14.2257312,169.835548 13.6561428,171.933692 C13.4442887,172.714081 12.6386081,173.175324 11.8566047,172.963907 C11.0746013,172.752491 10.612404,171.948474 10.8242581,171.168085 C11.4564377,168.839379 12.4978161,166.33342 13.9451449,163.645572 Z" id="Path-2" fill="#F68A33" fill-rule="nonzero"></path>
            </g>
        </g>
    </g>
</svg>