<?xml version="1.0" encoding="UTF-8"?>
<svg width="24px" height="24px" viewBox="0 0 24 24" version="1.1" xmlns="http://www.w3.org/2000/svg" xmlns:xlink="http://www.w3.org/1999/xlink">
    <!-- Generator: Sketch 52.6 (67491) - http://www.bohemiancoding.com/sketch -->
    <title>🌎Icons / 24x24 / Aluno </title>
    <desc>Created with Sketch.</desc>
    <g id="🌎Icons-/-24x24-/-Aluno-" stroke="none" stroke-width="1" fill="none" fill-rule="evenodd">
        <path d="M22.4703129,10.9378882 L21.0003129,10.9378882 L21.0003129,7.04223602 C20.9971848,5.7701146 20.2001246,4.63343746 19.0003129,4.19006211 L19.0003129,2.38136646 C19.0003129,2.0150053 18.8538669,1.66364933 18.5931914,1.40459287 C18.3325158,1.14553641 17.9789639,1 17.6103129,1 L15.3903129,1 C14.6226371,1 14.0003129,1.61845883 14.0003129,2.38136646 L14.0003129,3.98136646 L10.0003129,3.98136646 L10.0003129,2.38136646 C10.0003129,1.61845883 9.37798875,1 8.61031294,1 L6.39031294,1 C5.62263714,1 5.00031294,1.61845883 5.00031294,2.38136646 L5.00031294,4.19006211 C3.80050132,4.63343746 3.00344113,5.7701146 3.00031294,7.04223602 L3.00031294,10.9378882 L1.53031294,10.9378882 C0.685317276,10.9378882 0.000312943138,11.6186378 0.000312943138,12.4583851 L0.000312943138,20.4086957 C-0.00775304246,20.7933743 0.140392482,21.1650753 0.411324051,21.4399334 C0.68225562,21.7147915 1.05314608,21.8696487 1.44031294,21.8695652 L3.00031294,21.8695652 L3.00031294,22.426087 C3.00031294,22.8056266 3.15202679,23.1696212 3.42207918,23.4379963 C3.69213156,23.7063713 4.0584012,23.8571429 4.44031294,23.8571429 L19.5603129,23.8571429 C20.355603,23.8571429 21.0003129,23.2164373 21.0003129,22.426087 L21.0003129,21.8695652 L22.5603129,21.8695652 C22.9422247,21.8695652 23.3084943,21.7187937 23.5785467,21.4504186 C23.8485991,21.1820436 24.0003129,20.8180489 24.0003129,20.4385093 L24.0003129,12.4881988 C24.0083724,12.0797973 23.8507414,11.6853494 23.5629326,11.39372 C23.2751238,11.1020905 22.8813459,10.9378097 22.4703129,10.9378882 Z M3.00031294,20.8757764 L1.44031294,20.8757764 C1.32361769,20.8757764 1.21170197,20.8297073 1.12918596,20.7477038 C1.04666995,20.6657004 1.00031294,20.5544798 1.00031294,20.4385093 L1.00031294,12.4881988 C0.992053102,12.3434171 1.04422409,12.2016561 1.14452766,12.0963333 C1.24483124,11.9910104 1.38439258,11.9314445 1.53031294,11.931677 L3.00031294,11.9316763 L3.00031294,20.8757764 Z M15.0003129,2.38136646 C15.0003129,2.16731324 15.1749219,1.99378882 15.3903129,1.99378882 L17.6103129,1.99378882 C17.825704,1.99378882 18.0003129,2.16731324 18.0003129,2.38136646 L18.0003129,3.98136646 L15.0003129,3.98136646 L15.0003129,2.38136646 Z M6.00031294,2.38136646 C6.00031294,2.16731324 6.17492189,1.99378882 6.39031294,1.99378882 L8.61031294,1.99378882 C8.825704,1.99378882 9.00031294,2.16731324 9.00031294,2.38136646 L9.00031294,3.98136646 L6.00031294,3.98136646 L6.00031294,2.38136646 Z M17.0003129,22.863354 L7.00031294,22.863354 L7.00031294,14.9130435 L17.0003129,14.9130435 L17.0003129,22.863354 Z M17.0003129,13.9192547 L7.00031294,13.9192547 L7.00031294,11.931677 C7.00031294,10.8339682 7.89574344,9.94409938 9.00031294,9.94409938 L15.0003129,9.94409938 C16.1048824,9.94409938 17.0003129,10.8339682 17.0003129,11.931677 L17.0003129,13.9192547 Z M20.0003129,22.4559006 C20.0003129,22.6973966 19.8033182,22.8931677 19.5603129,22.8931677 L18.0003129,22.8931677 L18.0003129,11.931677 C18.0003129,10.2851138 16.6571672,8.95031056 15.0003129,8.95031056 L9.00031294,8.95031056 C7.34345869,8.95031056 6.00031294,10.2851138 6.00031294,11.931677 L6.00031294,22.863354 L4.44031294,22.863354 C4.32361769,22.863354 4.21170197,22.817285 4.12918596,22.7352815 C4.04666995,22.653278 4.00031294,22.5420574 4.00031294,22.426087 L4.00031294,7.04223602 C4.00031294,5.90061885 4.93156066,4.97515528 6.08031294,4.97515528 L17.9203129,4.97515528 C19.0690652,4.97515528 20.0003129,5.90061885 20.0003129,7.04223602 L20.0003129,22.4559006 Z M23.0003129,20.468323 C23.0003129,20.5842934 22.9539559,20.695514 22.8714399,20.7775175 C22.7889239,20.859521 22.6770082,20.9055901 22.5603129,20.9055901 L21.0003129,20.9055901 L21.0003129,11.931677 L22.4703129,11.931677 C22.7630239,11.931677 23.0003129,12.1674923 23.0003129,12.4583851 L23.0003129,20.468323 Z" id="Shape" fill="#7EA7C6"></path>
    </g>
</svg>