<?xml version="1.0" encoding="UTF-8"?>
<svg width="32px" height="32px" viewBox="0 0 32 32" version="1.1" xmlns="http://www.w3.org/2000/svg" xmlns:xlink="http://www.w3.org/1999/xlink">
    <!-- Generator: sketchtool 49.3 (51167) - http://www.bohemiancoding.com/sketch -->
    <title>F74FA5D5-2AC4-4349-9450-9AF0DE9ECDB6</title>
    <desc>Created with sketchtool.</desc>
    <defs>
        <path d="M38.706813,26.2264974 C35.6720427,26.3344265 32.748145,26.6827432 30.2137732,27.2390687 C27.9217514,27.743392 26.0271049,28.409609 24.6465935,29.1886609 L24.6465935,13.0042003 L32.4429999,4.32375627 C34.4063286,3.98819486 36.5089839,3.78509189 38.706813,3.71935325 L38.706813,26.2264974 Z M17.7862268,27.2390687 C15.2528362,26.6827432 12.3289385,26.3344265 9.29318697,26.2264974 L9.29318697,3.71935325 C15.850371,3.91656917 20.5953272,5.29609944 22.4801619,6.60204167 L15.3068008,14.589777 C15.200834,14.708499 15.1419636,14.8625433 15.1419636,15.0214934 L15.1419636,18.1072848 C15.1419636,18.278009 15.2106457,18.4428462 15.3323113,18.5645118 C15.4529956,18.6851961 15.6168517,18.7538783 15.7885571,18.7538783 L15.7905194,18.7538783 L19.2079475,18.7421042 C19.3904458,18.7421042 19.5650947,18.6636103 19.6867603,18.5272272 L23.3534065,14.4445633 L23.3534065,29.1886609 C21.9728951,28.4086278 20.0782486,27.743392 17.7862268,27.2390687 Z M28.7469185,1.55978988 L31.2027963,3.76939311 L18.9165389,17.4498984 L16.4351505,17.4577478 L16.4351505,15.2697304 L28.7469185,1.55978988 Z M39.3416324,2.4104675 C36.8749617,2.45363914 34.5152389,2.66262915 32.3183909,3.03253164 L29.1305574,0.165542007 C29.0030048,0.0507446811 28.8352241,-0.00714456893 28.6635187,0.000704820901 C28.4918133,0.00953538446 28.331882,0.0860669353 28.2170847,0.214600694 L23.350463,5.6336232 C20.8680935,3.80864006 15.036978,2.5223213 8.65836757,2.4104675 C8.485681,2.40850515 8.31691911,2.47424379 8.19329122,2.59590933 C8.06966333,2.7165937 8,2.88339324 8,3.05706099 L8,26.8544486 C8,27.2047276 8.28061569,27.4922115 8.63089471,27.5010421 C15.2832526,27.6629358 21.1595021,28.9953697 23.6026246,30.8959032 C23.6193046,30.9076773 23.6350034,30.9194514 23.6516833,30.9302443 C23.6575704,30.934169 23.6644386,30.9380937 23.6713068,30.9420184 C23.6830809,30.9479054 23.6958361,30.9557548 23.7085914,30.962623 C23.7164408,30.9655665 23.723309,30.9694912 23.7311584,30.9734159 C23.745876,30.9802841 23.7615748,30.9871524 23.7772736,30.9920582 C23.7821794,30.9930394 23.7861041,30.9950017 23.7900288,30.9969641 C23.8106335,31.0038323 23.8302569,31.0097194 23.8508616,31.0146252 C23.8577298,31.0156064 23.8636169,31.0175687 23.8695039,31.0185499 C23.8852027,31.0214934 23.9009015,31.024437 23.9166002,31.0263993 C23.9234684,31.0273805 23.9293555,31.0283617 23.9362237,31.0293428 C23.9568284,31.030324 23.977433,31.0313052 23.9970565,31.0313052 L24.0009812,31.0313052 C24.022567,31.0313052 24.0441528,31.030324 24.0667198,31.0283617 C24.0706445,31.0283617 24.0765316,31.0273805 24.0814374,31.0273805 C24.1000797,31.024437 24.118722,31.0214934 24.1373643,31.0175687 C24.1403078,31.0165876 24.1442325,31.0156064 24.1481572,31.0146252 C24.1697431,31.0097194 24.1923101,31.0028511 24.2138959,30.9950017 C24.2158582,30.9950017 24.2178206,30.9930394 24.2207641,30.9920582 C24.2394064,30.9861712 24.2580487,30.9783218 24.2757098,30.9694912 C24.2786533,30.9685101 24.2815969,30.9675289 24.2845404,30.9665477 C24.2865027,30.9655665 24.2874839,30.9645854 24.2894463,30.9636042 C24.3129944,30.9508489 24.3365426,30.9380937 24.3591096,30.9223949 C24.3630343,30.9204325 24.366959,30.9165079 24.3708837,30.9135643 C24.3797142,30.9076773 24.3885448,30.9027714 24.3973754,30.8959032 C26.8404979,28.9953697 32.7177286,27.6629358 39.3691053,27.5010421 C39.7203655,27.4922115 40,27.2047276 40,26.8544486 L40,3.05706099 C40,2.88339324 39.9303367,2.7165937 39.8067088,2.59590933 C39.6830809,2.47424379 39.514319,2.40850515 39.3416324,2.4104675 Z" id="path-1"></path>
    </defs>
    <g id="Symbols" stroke="none" stroke-width="1" fill="none" fill-rule="evenodd">
        <g id="Bars-/-Toolbar-/-Inicio" transform="translate(-169.000000, -9.000000)">
            <g id="Group-3">
                <g id="Group-2" transform="translate(161.000000, 9.000000)">
                    <mask id="mask-2" fill="white">
                        <use xlink:href="#path-1"></use>
                    </mask>
                    <use id="Mask" fill="#757575" xlink:href="#path-1"></use>
                </g>
            </g>
        </g>
    </g>
</svg>