<?xml version="1.0" encoding="UTF-8"?>
<svg width="24px" height="24px" viewBox="0 0 24 24" version="1.1" xmlns="http://www.w3.org/2000/svg" xmlns:xlink="http://www.w3.org/1999/xlink">
    <!-- Generator: Sketch 52.6 (67491) - http://www.bohemiancoding.com/sketch -->
    <title>🌎Icons / 24x24 / Diário de Classe THIN</title>
    <desc>Created with Sketch.</desc>
    <defs>
        <path d="M5.84805383,22.9217273 L19.8196065,22.9217273 L19.8196065,1.07725066 L5.84805383,1.07725066 L5.84805383,22.9217273 Z M3.07827272,22.9227493 L4.76978111,22.9227493 L4.76978111,1.07827272 L3.07827272,1.07827272 L3.07827272,22.9227493 Z M20.3582318,0 C20.6556511,0 20.8978792,0.24120603 20.8978792,0.53862533 L20.8978792,23.4613747 C20.8978792,23.758794 20.6556511,24 20.3582318,24 L2.53964739,24 C2.24120603,24 2,23.758794 2,23.4613747 L2,0.53862533 C2,0.24120603 2.24120603,0 2.53964739,0 L20.3582318,0 Z M9.9822843,6.43693041 L15.7068393,6.43693041 L15.7068393,4.56758368 L9.9822843,4.56758368 L9.9822843,6.43693041 Z M9.44365897,7.51520313 C9.14623967,7.51520313 8.90503364,7.27297504 8.90503364,6.97555574 L8.90503364,4.02895835 C8.90503364,3.73051699 9.14623967,3.49033302 9.44365897,3.49033302 L16.2454646,3.49033302 C16.5428839,3.49033302 16.7840899,3.73051699 16.7840899,4.02895835 L16.7840899,6.97555574 C16.7840899,7.27297504 16.5428839,7.51520313 16.2454646,7.51520313 L9.44365897,7.51520313 Z M9.43221191,10.6388212 C9.13479261,10.6388212 8.89358658,10.3976152 8.89358658,10.1001959 C8.89358658,9.80175454 9.13479261,9.56054851 9.43221191,9.56054851 L16.2565029,9.56054851 C16.5549442,9.56054851 16.7951282,9.80175454 16.7951282,10.1001959 C16.7951282,10.3976152 16.5549442,10.6388212 16.2565029,10.6388212 L9.43221191,10.6388212 Z M16.2561962,12.6396048 C16.5546376,12.6396048 16.7948216,12.8808108 16.7948216,13.1782301 C16.7948216,13.4766715 16.5546376,13.7178775 16.2561962,13.7178775 L9.43190529,13.7178775 C9.13448599,13.7178775 8.89327996,13.4766715 8.89327996,13.1782301 C8.89327996,12.8808108 9.13448599,12.6396048 9.43190529,12.6396048 L16.2561962,12.6396048 Z" id="path-1"></path>
    </defs>
    <g id="🌎Icons-/-24x24-/-Diário-de-Classe-THIN" stroke="none" stroke-width="1" fill="none" fill-rule="evenodd">
        <mask id="mask-2" fill="white">
            <use xlink:href="#path-1"></use>
        </mask>
        <use id="Mask" fill="#7EA7C6" xlink:href="#path-1"></use>
    </g>
</svg>