<?xml version="1.0" encoding="UTF-8"?>
<svg width="32px" height="30px" viewBox="0 0 32 30" version="1.1" xmlns="http://www.w3.org/2000/svg" xmlns:xlink="http://www.w3.org/1999/xlink">
    <!-- Generator: sketchtool 49.3 (51167) - http://www.bohemiancoding.com/sketch -->
    <title>0268A589-1CDA-42DF-A2E1-DF445F75E41F</title>
    <desc>Created with sketchtool.</desc>
    <defs></defs>
    <g id="Symbols" stroke="none" stroke-width="1" fill="none" fill-rule="evenodd">
        <g id="Bars-/-Toolbar-/-Conteudo" transform="translate(-169.000000, -9.000000)" fill="#004F6B" fill-rule="nonzero">
            <g id="Group-3">
                <g id="Group-2" transform="translate(161.000000, 9.000000)">
                    <g id="Asset-3" transform="translate(8.000000, 0.000000)">
                        <path d="M21.1420484,0 L23.8110987,2.39821429 L10.4586965,17.25 L7.76163873,17.2589286 L7.76163873,14.8809524 L21.1420484,0 Z M9.23054004,27.8779762 C6.47627561,27.2732143 3.29832402,26.8946429 0,26.7779762 L0,2.34345238 C7.12581006,2.55952381 12.2827561,4.05595238 14.332067,5.47619048 L6.53586592,14.1446429 C6.42047831,14.273664 6.3568207,14.4406847 6.35709497,14.6136905 L6.35709497,17.9630952 C6.35742388,18.3507771 6.67214559,18.6648811 7.06026071,18.664881 L10.7745251,18.6529762 C10.9732409,18.6523243 11.162419,18.5677864 11.2953445,18.4202381 L15.2807449,13.9880952 L15.2807449,29.9928571 C13.7802607,29.1470238 11.7214153,28.425 9.23054004,27.8779762 Z M31.9666294,26.7779762 C28.6683054,26.8970238 25.4903538,27.2732143 22.7360894,27.8779762 C20.2458101,28.425 18.1863687,29.1470238 16.6858845,29.9934524 L16.6858845,12.4244048 L25.1590317,3.00059524 C27.4103703,2.62556707 29.6850154,2.40678931 31.9666294,2.34583333 L31.9666294,26.7779762 Z" id="Shape"></path>
                    </g>
                </g>
            </g>
        </g>
    </g>
</svg>