<?xml version="1.0" encoding="UTF-8"?>
<svg width="24px" height="24px" viewBox="0 0 24 24" version="1.1" xmlns="http://www.w3.org/2000/svg" xmlns:xlink="http://www.w3.org/1999/xlink">
    <!-- Generator: Sketch 52.6 (67491) - http://www.bohemiancoding.com/sketch -->
    <title>🌎Icons / 24x24 / Conteudo THIN </title>
    <desc>Created with Sketch.</desc>
    <defs>
        <path d="M23.0301098,20.6698731 C20.754032,20.7508199 18.5611087,21.0120574 16.6603299,21.4293015 C14.9413135,21.807544 13.5203287,22.3072067 12.4849451,22.8914957 L12.4849451,10.7531502 L18.33225,4.2428172 C19.8047464,3.99114614 21.3817379,3.83881892 23.0301098,3.78951494 L23.0301098,20.6698731 Z M7.33967008,21.4293015 C5.43962715,21.0120574 3.24670387,20.7508199 0.969890231,20.6698731 L0.969890231,3.78951494 C5.88777825,3.93742688 9.44649537,4.97207458 10.8601214,5.95153125 L5.48010057,11.9423327 C5.4006255,12.0313743 5.35647268,12.1469075 5.35647268,12.2661201 L5.35647268,14.5804636 C5.35647268,14.7085068 5.4079843,14.8321347 5.49923346,14.9233838 C5.58974673,15.0138971 5.71263874,15.0654087 5.8414178,15.0654087 L5.84288956,15.0654087 L8.40596063,15.0565782 C8.54283437,15.0565782 8.67382106,14.9977077 8.76507022,14.8954204 L11.5150549,11.8334225 L11.5150549,22.8914957 C10.4796713,22.3064708 9.05868645,21.807544 7.33967008,21.4293015 Z M15.5601889,2.16984241 L17.4020973,3.82704484 L8.18740418,14.0874238 L6.32636291,14.0933109 L6.32636291,12.4522978 L15.5601889,2.16984241 Z M23.5062243,2.80785062 C21.6562213,2.84022936 19.8864291,2.99697186 18.2387932,3.27439873 L15.8479181,1.12415651 C15.7522536,1.03805851 15.6264181,0.994641573 15.4976391,1.00052862 C15.36886,1.00715154 15.2489115,1.0645502 15.1628135,1.16095052 L11.5128472,5.2252174 C9.65107009,3.85648005 5.27773349,2.89174098 0.493775679,2.80785062 C0.364260747,2.80637886 0.237689336,2.85568284 0.144968418,2.946932 C0.0522475011,3.03744528 0,3.16254493 0,3.29279574 L0,21.1408365 C0,21.4035457 0.210461765,21.6191587 0.473171031,21.6257816 C5.46243944,21.7472018 9.86962654,22.7465273 11.7019685,24.1719274 C11.7144784,24.180758 11.7262525,24.1895885 11.7387625,24.1976832 C11.7431778,24.2006267 11.7483289,24.2035703 11.7534801,24.2065138 C11.7623107,24.2109291 11.7718771,24.2168161 11.7814436,24.2219673 C11.7873306,24.2241749 11.7924818,24.2271184 11.7983688,24.2300619 C11.809407,24.2352131 11.8211811,24.2403643 11.8329552,24.2440437 C11.8366346,24.2447796 11.8395781,24.2462513 11.8425216,24.2477231 C11.8579751,24.2528742 11.8726927,24.2572895 11.8881462,24.2609689 C11.8932974,24.2617048 11.8977126,24.2631766 11.9021279,24.2639124 C11.913902,24.2661201 11.9256761,24.2683277 11.9374502,24.2697995 C11.9426013,24.2705354 11.9470166,24.2712712 11.9521678,24.2720071 C11.9676213,24.272743 11.9830748,24.2734789 11.9977924,24.2734789 L12.0007359,24.2734789 C12.0169252,24.2734789 12.0331146,24.272743 12.0500399,24.2712712 C12.0529834,24.2712712 12.0573987,24.2705354 12.0610781,24.2705354 C12.0750598,24.2683277 12.0890415,24.2661201 12.1030232,24.2631766 C12.1052309,24.2624407 12.1081744,24.2617048 12.1111179,24.2609689 C12.1273073,24.2572895 12.1442325,24.2521384 12.1604219,24.2462513 C12.1618937,24.2462513 12.1633654,24.2447796 12.1655731,24.2440437 C12.1795548,24.2396284 12.1935365,24.2337413 12.2067824,24.2271184 C12.20899,24.2263825 12.2111976,24.2256467 12.2134053,24.2249108 C12.214877,24.2241749 12.2156129,24.223439 12.2170847,24.2227031 C12.2347458,24.2131367 12.2524069,24.2035703 12.2693322,24.1917962 C12.2722757,24.1903244 12.2752192,24.1873809 12.2781628,24.1851732 C12.2847857,24.180758 12.2914086,24.1770786 12.2980315,24.1719274 C14.1303735,22.7465273 18.5382964,21.7472018 23.526829,21.6257816 C23.7902741,21.6191587 24,21.4035457 24,21.1408365 L24,3.29279574 C24,3.16254493 23.9477525,3.03744528 23.8550316,2.946932 C23.7623107,2.85568284 23.6357393,2.80637886 23.5062243,2.80785062 Z" id="path-1"></path>
    </defs>
    <g id="🌎Icons-/-24x24-/-Conteudo-THIN-" stroke="none" stroke-width="1" fill="none" fill-rule="evenodd">
        <mask id="mask-2" fill="white">
            <use xlink:href="#path-1"></use>
        </mask>
        <use id="Mask" fill="#7EA7C6" xlink:href="#path-1"></use>
    </g>
</svg>