<?xml version="1.0" encoding="UTF-8"?>
<svg width="24px" height="24px" viewBox="0 0 24 24" version="1.1" xmlns="http://www.w3.org/2000/svg" xmlns:xlink="http://www.w3.org/1999/xlink">
    <!-- Generator: Sketch 52.6 (67491) - http://www.bohemiancoding.com/sketch -->
    <title>🌎Icons / 24x24 / calculator</title>
    <desc>Created with Sketch.</desc>
    <g id="🌎Icons-/-24x24-/-calculator" stroke="none" stroke-width="1" fill="none" fill-rule="evenodd">
        <path d="M11.3177872,1.36442553 L3.34876596,1.36442553 C2.25497872,1.36442553 1.36544681,2.25497872 1.36544681,3.34774468 L1.36544681,11.316766 L11.3177872,11.316766 L11.3177872,1.36442553 Z M11.3177872,12.6822128 L1.36544681,12.6822128 L1.36544681,20.6502128 C1.36544681,21.744 2.25497872,22.6345532 3.34876596,22.6345532 L11.3177872,22.6345532 L11.3177872,12.6822128 Z M22.6355745,3.34774468 C22.6355745,2.25497872 21.7450213,1.36442553 20.6522553,1.36442553 L12.683234,1.36442553 L12.683234,22.6345532 L20.6522553,22.6345532 C21.7450213,22.6345532 22.6355745,21.744 22.6355745,20.6502128 L22.6355745,3.34774468 Z M20.6522553,0 C22.4987234,0 24,1.5012766 24,3.34774468 L24,20.6502128 C24,22.4966809 22.4987234,24 20.6522553,24 L3.34876596,24 C1.50229787,24 0,22.4966809 0,20.6502128 L0,3.34774468 C0,1.5012766 1.50229787,0 3.34876596,0 L20.6522553,0 Z M3.50420426,18.3181277 C3.12735319,18.3181277 2.82199149,18.0117447 2.82199149,17.6359149 C2.82199149,17.2590638 3.12735319,16.9526809 3.50420426,16.9526809 L5.63867234,16.9526809 L5.63867234,14.8182128 C5.63867234,14.442383 5.94505532,14.136 6.32088511,14.136 C6.69773617,14.136 7.00411915,14.442383 7.00411915,14.8182128 L7.00411915,16.9526809 L9.13858723,16.9526809 C9.5154383,16.9526809 9.82182128,17.2590638 9.82182128,17.6359149 C9.82182128,18.0117447 9.5154383,18.3181277 9.13858723,18.3181277 L7.00411915,18.3181277 L7.00411915,20.4525957 C7.00411915,20.8294468 6.69773617,21.1358298 6.32088511,21.1358298 C5.94505532,21.1358298 5.63867234,20.8294468 5.63867234,20.4525957 L5.63867234,18.3181277 L3.50420426,18.3181277 Z M2.82148085,6.35009362 C2.82148085,5.97324255 3.12786383,5.66788085 3.50369362,5.66788085 L9.13909787,5.66788085 C9.51492766,5.66788085 9.82131064,5.97324255 9.82131064,6.35009362 C9.82131064,6.72694468 9.51492766,7.03230638 9.13909787,7.03230638 L3.50369362,7.03230638 C3.12786383,7.03230638 2.82148085,6.72694468 2.82148085,6.35009362 Z M6.32119149,4.77273191 C5.93821277,4.77273191 5.62570213,4.46022128 5.62570213,4.07724255 L5.62570213,3.49715745 C5.62570213,3.11417872 5.93821277,2.80166809 6.32119149,2.80166809 C6.70417021,2.80166809 7.01668085,3.11417872 7.01668085,3.49715745 L7.01668085,4.07724255 C7.01668085,4.46022128 6.70417021,4.77273191 6.32119149,4.77273191 Z M6.32119149,7.8605617 C6.70417021,7.8605617 7.01668085,8.17307234 7.01668085,8.55605106 L7.01668085,9.13511489 C7.01668085,9.51911489 6.70417021,9.83060426 6.32119149,9.83060426 C5.93821277,9.83060426 5.62570213,9.51911489 5.62570213,9.13511489 L5.62570213,8.55605106 C5.62570213,8.17307234 5.93821277,7.8605617 6.32119149,7.8605617 Z M20.4813957,9.88810213 C20.8582468,9.88810213 21.1636085,10.1944851 21.1636085,10.5703149 C21.1636085,10.947166 20.8582468,11.2535489 20.4813957,11.2535489 L14.8470128,11.2535489 C14.4701617,11.2535489 14.1637787,10.947166 14.1637787,10.5703149 C14.1637787,10.1944851 14.4701617,9.88810213 14.8470128,9.88810213 L20.4813957,9.88810213 Z M20.4813957,12.6801702 C20.8582468,12.6801702 21.1636085,12.9865532 21.1636085,13.362383 C21.1636085,13.739234 20.8582468,14.045617 20.4813957,14.045617 L14.8470128,14.045617 C14.4701617,14.045617 14.1637787,13.739234 14.1637787,13.362383 C14.1637787,12.9865532 14.4701617,12.6801702 14.8470128,12.6801702 L20.4813957,12.6801702 Z" id="calculator" fill="#7EA7C6"></path>
    </g>
</svg>