<?xml version="1.0" encoding="UTF-8"?>
<svg width="24px" height="24px" viewBox="0 0 24 24" version="1.1" xmlns="http://www.w3.org/2000/svg" xmlns:xlink="http://www.w3.org/1999/xlink">
    <!-- Generator: sketchtool 48.2 (47327) - http://www.bohemiancoding.com/sketch -->
    <title>EFC334D1-CC1F-44CD-9976-8AB681E74E26</title>
    <desc>Created with sketchtool.</desc>
    <defs>
        <path d="M7.5,6.43933983 L13.4696699,0.469669914 C13.7625631,0.176776695 14.2374369,0.176776695 14.5303301,0.469669914 C14.8232233,0.762563133 14.8232233,1.23743687 14.5303301,1.53033009 L8.56066017,7.5 L14.5303301,13.4696699 C14.8232233,13.7625631 14.8232233,14.2374369 14.5303301,14.5303301 C14.2374369,14.8232233 13.7625631,14.8232233 13.4696699,14.5303301 L7.5,8.56066017 L1.53033009,14.5303301 C1.23743687,14.8232233 0.762563133,14.8232233 0.469669914,14.5303301 C0.176776695,14.2374369 0.176776695,13.7625631 0.469669914,13.4696699 L6.43933983,7.5 L0.469669914,1.53033009 C0.176776695,1.23743687 0.176776695,0.762563133 0.469669914,0.469669914 C0.762563133,0.176776695 1.23743687,0.176776695 1.53033009,0.469669914 L7.5,6.43933983 Z" id="path-1"></path>
    </defs>
    <g id="Page-1" stroke="none" stroke-width="1" fill="none" fill-rule="evenodd">
        <g id="🌎Icons-/-24x24-/-Diario-de-Classe-Vazio">
            <g id="↳🎨Colors-/-Accent-Copy" transform="translate(5.000000, 5.000000)">
                <mask id="mask-2" fill="white">
                    <use xlink:href="#path-1"></use>
                </mask>
                <use id="Mask" fill="#000000" fill-rule="nonzero" xlink:href="#path-1"></use>
                <g id="🎨Colors-/-Accent" mask="url(#mask-2)" fill="#F68A33">
                    <g transform="translate(-6.000000, -6.000000)" id="Rectangle-3">
                        <rect x="0" y="0" width="26" height="26"></rect>
                    </g>
                </g>
            </g>
        </g>
    </g>
</svg>