<?xml version="1.0" encoding="UTF-8"?>
<svg width="14px" height="10px" viewBox="0 0 14 10" version="1.1" xmlns="http://www.w3.org/2000/svg" xmlns:xlink="http://www.w3.org/1999/xlink">
    <!-- Generator: sketchtool 51.3 (57544) - http://www.bohemiancoding.com/sketch -->
    <title>531F8188-67D6-4334-AE4B-28B4F9DB1DEE</title>
    <desc>Created with sketchtool.</desc>
    <defs></defs>
    <g id="Primeiro-acesso" stroke="none" stroke-width="1" fill="none" fill-rule="evenodd">
        <g id="9-Primeiro-Acesso-App" transform="translate(-256.000000, -440.000000)" fill="#50E3C2">
            <g id="Group-6" transform="translate(0.000000, 366.000000)">
                <g id="Group" transform="translate(30.000000, 49.000000)">
                    <g id="Group-8">
                        <g id="Group-3" transform="translate(20.000000, 20.000000)">
                            <path d="M219.109827,5.34818152 C218.644747,4.88393949 217.885528,4.88393949 217.418908,5.34818152 L214.483668,8.26693093 L212.792748,9.95076589 L210.702968,12.029896 L208.040308,9.38080537 C207.573688,8.91656334 206.816008,8.91809549 206.349388,9.38080537 C205.884308,9.8450474 205.882768,10.6003983 206.349388,11.0631082 L209.857508,14.5533502 L209.859048,14.5487538 L209.859048,14.5518181 C210.324128,15.0160601 211.084888,15.0160601 211.549968,14.5518181 L214.483668,11.6330687 L216.174588,9.95076589 L219.109827,7.03048433 C219.574907,6.5662423 219.574907,5.8108914 219.109827,5.34818152" id="Fill-1"></path>
                        </g>
                    </g>
                </g>
            </g>
        </g>
    </g>
</svg>