<?xml version="1.0" encoding="UTF-8"?>
<svg width="24px" height="24px" viewBox="0 0 24 24" version="1.1" xmlns="http://www.w3.org/2000/svg" xmlns:xlink="http://www.w3.org/1999/xlink">
    <!-- Generator: Sketch 52.6 (67491) - http://www.bohemiancoding.com/sketch -->
    <title>🌎Icons / 24x24 / Circular Add  Copy</title>
    <desc>Created with Sketch.</desc>
    <g id="🌎Icons-/-24x24-/-Circular-Add--Copy" stroke="none" stroke-width="1" fill="none" fill-rule="evenodd">
        <path d="M12,22 C17.5228475,22 22,17.5228475 22,12 C22,6.4771525 17.5228475,2 12,2 C6.4771525,2 2,6.4771525 2,12 C2,17.5228475 6.4771525,22 12,22 Z M12,24 C5.372583,24 0,18.627417 0,12 C0,5.372583 5.372583,0 12,0 C18.627417,0 24,5.372583 24,12 C24,18.627417 18.627417,24 12,24 Z M17.7647143,9.46459091 L16.5201429,10.6427727 C16.2715714,10.8767727 15.8704286,10.8767727 15.6201429,10.6427727 L13.0435714,8.20459091 C12.795,7.97059091 12.795,7.58931818 13.0435714,7.35368182 L14.2881429,6.1755 C14.5367143,5.9415 14.9395714,5.9415 15.1881429,6.1755 L17.7647143,8.61368182 C18.015,8.84931818 18.015,9.22895455 17.7647143,9.46459091 Z M14.4994286,12.7434545 L9.67542857,17.3056364 C9.55714286,17.4218182 9.38914286,17.4954545 9.20571429,17.4954545 L6.65485714,17.4954545 C6.29142857,17.4954545 6,17.2172727 6,16.8736364 L6,14.4632727 C6,14.3814545 6.01542857,14.3029091 6.04628571,14.2325455 C6.04628571,14.2309091 6.048,14.2292727 6.048,14.2276364 C6.05485714,14.2129091 6.06342857,14.1981818 6.07028571,14.1834545 C6.072,14.1801818 6.072,14.1752727 6.07371429,14.172 C6.08228571,14.1589091 6.09085714,14.1441818 6.09942857,14.1327273 C6.10285714,14.1294545 6.10628571,14.1245455 6.108,14.1196364 L6.13885714,14.0803636 C6.14228571,14.0770909 6.144,14.0721818 6.14571429,14.0689091 C6.16114286,14.0541818 6.17657143,14.0394545 6.192,14.0230909 L11.0211429,9.45436364 C11.2782857,9.21218182 11.6948571,9.21218182 11.9502857,9.45436364 L14.4994286,11.8663636 C14.7548571,12.1069091 14.7548571,12.4996364 14.4994286,12.7434545 Z" id="Combined-Shape" fill="#7EA7C6"></path>
    </g>
</svg>