<?xml version="1.0" encoding="UTF-8"?>
<svg width="100px" height="100px" viewBox="0 0 100 100" version="1.1" xmlns="http://www.w3.org/2000/svg" xmlns:xlink="http://www.w3.org/1999/xlink">
    <!-- Generator: sketchtool 51.3 (57544) - http://www.bohemiancoding.com/sketch -->
    <title>BB8BA4ED-9886-4A22-ACEB-0D4C6395F9BE</title>
    <desc>Created with sketchtool.</desc>
    <defs></defs>
    <g id="Page-1" stroke="none" stroke-width="1" fill="none" fill-rule="evenodd">
        <g id="🌎Icons-/-110x110-/-Conteudo">
            <g id="Group" transform="translate(51.272727, 48.227273) rotate(90.000000) translate(-51.272727, -48.227273) translate(6.772727, 3.227273)" fill="#C4E0EA">
                <ellipse id="Oval-6" cx="5.51126651" cy="5.49802372" rx="4.69308469" ry="4.6798419"></ellipse>
                <ellipse id="Oval-6-Copy" cx="7.71017871" cy="86.7944664" rx="2.34654235" ry="2.33992095"></ellipse>
                <ellipse id="Oval-6-Copy-2" cx="85.2470862" cy="85.2371542" rx="3.51981352" ry="3.50988142"></ellipse>
            </g>
            <g id="Group-5" transform="translate(19.090909, 20.000000)">
                <path d="M60.6000275,4.66071437 C55.8306423,4.7441881 51.2680444,5.14827681 47.02037,5.86349487 L40.8565943,0.320080654 C40.6099674,0.0981164294 40.2855581,-0.0138142477 39.9535603,0.00136279328 C39.6215626,0.0184369644 39.3123304,0.166413114 39.0903661,0.41493716 L29.6806007,10.8927868 C24.8808615,7.36412479 13.6062172,4.8769872 1.27297431,4.66071437 C0.93907941,4.65692011 0.612773029,4.78402783 0.373734634,5.01927196 C0.134696239,5.25261897 0,5.57513109 0,5.91092312 L0,51.9239171 C0,52.6011925 0.542579215,53.1570517 1.21985467,53.1741258 C14.0823969,53.4871523 25.4443092,56.063455 30.1681632,59.738196 C30.2004144,59.7609616 30.2307685,59.7837272 30.2630197,59.8045956 C30.2744025,59.8121841 30.2876824,59.8197726 30.3009623,59.8273612 C30.3237279,59.8387439 30.3483905,59.853921 30.3730532,59.8672009 C30.3882303,59.8728923 30.4015102,59.8804808 30.4166872,59.8880693 C30.4451442,59.9013492 30.4754983,59.9146291 30.5058523,59.9241148 C30.515338,59.9260119 30.5229265,59.9298062 30.530515,59.9336004 C30.5703548,59.9468804 30.6082974,59.9582631 30.6481371,59.9677488 C30.661417,59.9696459 30.6727998,59.9734402 30.6841826,59.9753373 C30.7145367,59.9810287 30.7448907,59.9867201 30.7752448,59.9905143 C30.7885247,59.9924115 30.7999075,59.9943086 30.8131874,59.9962057 C30.8530272,59.9981029 30.8928669,60 30.9308095,60 L30.938398,60 C30.9801349,60 31.0218717,59.9981029 31.0655057,59.9943086 C31.0730943,59.9943086 31.084477,59.9924115 31.0939627,59.9924115 C31.1300082,59.9867201 31.1660536,59.9810287 31.2020991,59.9734402 C31.2077905,59.971543 31.215379,59.9696459 31.2229675,59.9677488 C31.2647044,59.9582631 31.3083384,59.9449832 31.3500752,59.9298062 C31.3538695,59.9298062 31.3576638,59.9260119 31.3633552,59.9241148 C31.3994006,59.912732 31.4354461,59.897555 31.4695944,59.8804808 C31.4752858,59.8785837 31.4809772,59.8766865 31.4866686,59.8747894 C31.4904629,59.8728923 31.49236,59.8709952 31.4961543,59.869098 C31.5416854,59.8444353 31.5872165,59.8197726 31.6308505,59.7894186 C31.638439,59.7856243 31.6460275,59.7780358 31.6536161,59.7723444 C31.6706902,59.7609616 31.6877644,59.751476 31.7048386,59.738196 C36.4286926,56.063455 47.792502,53.4871523 60.6531471,53.1741258 C61.3323197,53.1570517 61.8730018,52.6011925 61.8730018,51.9239171 L61.8730018,5.91092312 C61.8730018,5.57513109 61.7383055,5.25261897 61.4992671,5.01927196 C61.2602287,4.78402783 60.9339224,4.65692011 60.6000275,4.66071437 Z" id="Path" fill="#C4E0EA"></path>
                <path d="M59.3725843,50.7097538 C53.5047608,50.9184381 47.851313,51.5919193 42.9510259,52.6675921 C38.51933,53.642717 34.8559717,54.9308683 32.1867096,56.4371896 L32.1867096,25.1440283 L47.2613056,8.36011811 C51.0574629,7.71129961 55.1230128,7.31859367 59.3725843,7.19148595 L59.3725843,50.7097538 Z M18.9219758,52.6675921 C14.0235859,51.5919193 8.37013809,50.9184381 2.5004175,50.7097538 L2.5004175,7.19148595 C15.1789381,7.57280911 24.3534594,10.2401741 27.9978463,12.7652542 L14.127928,28.2097906 C13.923038,28.4393433 13.8092102,28.7371927 13.8092102,29.0445278 L13.8092102,35.011002 C13.8092102,35.3411027 13.9420093,35.6598205 14.1772534,35.8950647 C14.4106004,36.1284117 14.7274211,36.2612108 15.0594189,36.2612108 L15.0632132,36.2612108 L21.6709174,36.2384452 C22.0237836,36.2384452 22.3614727,36.0866748 22.5967169,35.8229737 L29.6862921,27.9290153 L29.6862921,56.4371896 C27.0170301,54.9289712 23.3536718,53.642717 18.9219758,52.6675921 Z M40.1148164,3.01590256 L44.8633331,7.28823959 L21.1074697,33.7399249 L16.3096277,33.7551019 L16.3096277,29.5245017 L40.1148164,3.01590256 Z M60.6000275,4.66071437 C55.8306423,4.7441881 51.2680444,5.14827681 47.02037,5.86349487 L40.8565943,0.320080654 C40.6099674,0.0981164294 40.2855581,-0.0138142477 39.9535603,0.00136279328 C39.6215626,0.0184369644 39.3123304,0.166413114 39.0903661,0.41493716 L29.6806007,10.8927868 C24.8808615,7.36412479 13.6062172,4.8769872 1.27297431,4.66071437 C0.93907941,4.65692011 0.612773029,4.78402783 0.373734634,5.01927196 C0.134696239,5.25261897 0,5.57513109 0,5.91092312 L0,51.9239171 C0,52.6011925 0.542579215,53.1570517 1.21985467,53.1741258 C14.0823969,53.4871523 25.4443092,56.063455 30.1681632,59.738196 C30.2004144,59.7609616 30.2307685,59.7837272 30.2630197,59.8045956 C30.2744025,59.8121841 30.2876824,59.8197726 30.3009623,59.8273612 C30.3237279,59.8387439 30.3483905,59.853921 30.3730532,59.8672009 C30.3882303,59.8728923 30.4015102,59.8804808 30.4166872,59.8880693 C30.4451442,59.9013492 30.4754983,59.9146291 30.5058523,59.9241148 C30.515338,59.9260119 30.5229265,59.9298062 30.530515,59.9336004 C30.5703548,59.9468804 30.6082974,59.9582631 30.6481371,59.9677488 C30.661417,59.9696459 30.6727998,59.9734402 30.6841826,59.9753373 C30.7145367,59.9810287 30.7448907,59.9867201 30.7752448,59.9905143 C30.7885247,59.9924115 30.7999075,59.9943086 30.8131874,59.9962057 C30.8530272,59.9981029 30.8928669,60 30.9308095,60 L30.938398,60 C30.9801349,60 31.0218717,59.9981029 31.0655057,59.9943086 C31.0730943,59.9943086 31.084477,59.9924115 31.0939627,59.9924115 C31.1300082,59.9867201 31.1660536,59.9810287 31.2020991,59.9734402 C31.2077905,59.971543 31.215379,59.9696459 31.2229675,59.9677488 C31.2647044,59.9582631 31.3083384,59.9449832 31.3500752,59.9298062 C31.3538695,59.9298062 31.3576638,59.9260119 31.3633552,59.9241148 C31.3994006,59.912732 31.4354461,59.897555 31.4695944,59.8804808 C31.4752858,59.8785837 31.4809772,59.8766865 31.4866686,59.8747894 C31.4904629,59.8728923 31.49236,59.8709952 31.4961543,59.869098 C31.5416854,59.8444353 31.5872165,59.8197726 31.6308505,59.7894186 C31.638439,59.7856243 31.6460275,59.7780358 31.6536161,59.7723444 C31.6706902,59.7609616 31.6877644,59.751476 31.7048386,59.738196 C36.4286926,56.063455 47.792502,53.4871523 60.6531471,53.1741258 C61.3323197,53.1570517 61.8730018,52.6011925 61.8730018,51.9239171 L61.8730018,5.91092312 C61.8730018,5.57513109 61.7383055,5.25261897 61.4992671,5.01927196 C61.2602287,4.78402783 60.9339224,4.65692011 60.6000275,4.66071437 Z" id="Fill-12" fill="#004F6B"></path>
                <polygon id="Path" fill="#7EA7C6" points="40.1148164 3.01590256 44.8633331 7.28823959 21.1074697 33.7399249 16.3096277 33.7551019 16.3096277 29.5245017"></polygon>
            </g>
        </g>
    </g>
</svg>