<?xml version="1.0" encoding="UTF-8"?>
<svg width="24px" height="24px" viewBox="0 0 24 24" version="1.1" xmlns="http://www.w3.org/2000/svg" xmlns:xlink="http://www.w3.org/1999/xlink">
    <!-- Generator: Sketch 52.6 (67491) - http://www.bohemiancoding.com/sketch -->
    <title>🌎Icons / 24x24 / Calendar</title>
    <desc>Created with Sketch.</desc>
    <defs>
        <path d="M7.07346939,3.69208163 C7.07346939,3.89485714 6.90889796,4.05942857 6.70612245,4.05942857 C6.50334694,4.05942857 6.33877551,3.89485714 6.33877551,3.69208163 L6.33877551,1.90628571 C6.33877551,1.7035102 6.50334694,1.53893878 6.70612245,1.53893878 C6.90889796,1.53893878 7.07346939,1.7035102 7.07346939,1.90628571 L7.07346939,3.69208163 Z M17.5668571,3.69208163 C17.5668571,3.89485714 17.4022857,4.05942857 17.1995102,4.05942857 C16.9967347,4.05942857 16.8321633,3.89485714 16.8321633,3.69208163 L16.8321633,1.90628571 C16.8321633,1.7035102 16.9967347,1.53893878 17.1995102,1.53893878 C17.4022857,1.53893878 17.5668571,1.7035102 17.5668571,1.90628571 L17.5668571,3.69208163 Z M4.17583673,3.5764898 L4.80081633,3.5764898 L4.80081633,3.69208163 C4.80081633,4.74220408 5.65502041,5.59738776 6.70612245,5.59738776 C7.75722449,5.59738776 8.61240816,4.74220408 8.61240816,3.69208163 L8.61240816,3.5764898 L15.2942041,3.5764898 L15.2942041,3.69208163 C15.2942041,4.74220408 16.1493878,5.59738776 17.1995102,5.59738776 C18.2506122,5.59738776 19.1057959,4.74220408 19.1057959,3.69208163 L19.1057959,3.5764898 L19.7875918,3.5764898 C20.6907755,3.5764898 21.4244898,4.31118367 21.4244898,5.21338776 L21.4244898,7.6202449 L2.53893878,7.6202449 L2.53893878,5.21338776 C2.53893878,4.31118367 3.27265306,3.5764898 4.17583673,3.5764898 Z M19.7875918,22.4620408 L4.17583673,22.4620408 C3.27265306,22.4620408 2.53893878,21.7273469 2.53893878,20.8251429 L2.53893878,9.15918367 L21.4244898,9.15918367 L21.4244898,20.8251429 C21.4244898,21.7273469 20.6907755,22.4620408 19.7875918,22.4620408 Z M19.7875918,2.03755102 L19.1057959,2.03755102 L19.1057959,1.90628571 C19.1057959,0.855183673 18.2506122,0 17.1995102,0 C16.1493878,0 15.2942041,0.855183673 15.2942041,1.90628571 L15.2942041,2.03755102 L8.61240816,2.03755102 L8.61240816,1.90628571 C8.61240816,0.855183673 7.75722449,0 6.70612245,0 C5.65502041,0 4.80081633,0.855183673 4.80081633,1.90628571 L4.80081633,2.03755102 L4.17583673,2.03755102 C2.42432653,2.03755102 1,3.46187755 1,5.21338776 L1,20.8251429 C1,22.5756735 2.42432653,24 4.17583673,24 L19.7875918,24 C21.5381224,24 22.962449,22.5756735 22.962449,20.8251429 L22.962449,5.21338776 C22.962449,3.46187755 21.5381224,2.03755102 19.7875918,2.03755102 Z" id="path-1"></path>
    </defs>
    <g id="🌎Icons-/-24x24-/-Calendar" stroke="none" stroke-width="1" fill="none" fill-rule="evenodd">
        <mask id="mask-2" fill="white">
            <use xlink:href="#path-1"></use>
        </mask>
        <use id="Mask" fill="#7EA7C6" xlink:href="#path-1"></use>
    </g>
</svg>