<?xml version="1.0" encoding="UTF-8"?>
<svg width="24px" height="24px" viewBox="0 0 24 24" version="1.1" xmlns="http://www.w3.org/2000/svg" xmlns:xlink="http://www.w3.org/1999/xlink">
    <!-- Generator: sketchtool 49.3 (51167) - http://www.bohemiancoding.com/sketch -->
    <title>675F10E6-39AF-4A2B-B580-600AC92BB161</title>
    <desc>Created with sketchtool.</desc>
    <defs>
        <path d="M21.8978792,7.2085853 L21.8978792,7.20960736 L21.8978792,23.4603526 C21.8978792,23.7577719 21.6566732,24 21.3582318,24 L3.53964739,24 C3.24222809,24 3,23.7577719 3,23.4603526 L3,0.53862533 C3,0.24120603 3.24222809,0 3.53964739,0 L14.6862277,0 L14.6933822,0 C14.7087131,0 14.7240439,0.00102205945 14.7393748,0.0020441189 C14.7475513,0.00306617835 14.7557278,0.00511029725 14.7639043,0.0061323567 C14.7731028,0.00715441615 14.7823013,0.0081764756 14.7914999,0.0102205945 C14.7996763,0.0112426539 14.8088749,0.0143088323 14.8180734,0.0163529512 C14.8262499,0.0183970701 14.8354484,0.020441189 14.8426028,0.0224853079 C14.8507793,0.0255514862 14.8599779,0.0286176646 14.8681543,0.0316838429 C14.8763308,0.0347500213 14.8834852,0.0367941402 14.8916617,0.040882378 C14.8998382,0.0439485563 14.9080146,0.0480367941 14.9151691,0.0511029725 C14.9233455,0.0551912103 14.931522,0.0592794481 14.9396985,0.0633676859 C14.947875,0.0674559237 14.9540073,0.0715441615 14.9611617,0.0756323993 C14.9693382,0.0807426965 14.9775147,0.0848309343 14.9856912,0.090963291 C14.9928456,0.0960735883 15.0010221,0.101183886 15.0071544,0.106294183 C15.0143088,0.11140448 15.0214632,0.116514777 15.0275956,0.121625075 C15.0419044,0.132867728 15.0541692,0.144110382 15.0664339,0.157397155 L15.0674559,0.157397155 L21.73946,6.82837918 C21.7527468,6.84166596 21.7650115,6.85495273 21.7762542,6.8682395 C21.7803424,6.87437186 21.7844306,6.88152628 21.7895409,6.88765863 C21.7956733,6.89481305 21.8018056,6.90298952 21.8069159,6.91014394 C21.8120262,6.91832042 21.8171365,6.92649689 21.8202027,6.93365131 C21.825313,6.94080572 21.8294012,6.9489822 21.8345115,6.95613662 C21.8385998,6.96431309 21.841666,6.97248957 21.8457542,6.97964398 C21.8498424,6.98782046 21.8539307,6.99599693 21.8569968,7.00417341 C21.860063,7.01132783 21.8631292,7.0195043 21.8651733,7.02768078 C21.8682395,7.03585725 21.8713057,7.04505579 21.8743719,7.05425432 C21.876416,7.06140874 21.8784601,7.06958521 21.8805042,7.07776169 C21.8825483,7.08593817 21.8856145,7.0951367 21.8876586,7.10433524 C21.8897028,7.11353377 21.8907248,7.12273231 21.8917469,7.13193084 C21.8927689,7.14112938 21.894813,7.14828379 21.8958351,7.15646027 C21.8968572,7.17383528 21.8978792,7.19121029 21.8978792,7.2085853 Z M20.8196065,22.9217273 L20.8196065,7.74925475 L14.6862277,7.74925475 C14.3888084,7.74925475 14.1476024,7.50702666 14.1476024,7.20960736 L14.1476024,1.07725066 L4.07827272,1.07725066 L4.07827272,22.9217273 L20.8196065,22.9217273 Z M13.4406439,10.3670556 C13.4406439,10.0686143 13.6808279,9.82843029 13.9792692,9.82843029 L18.1247424,9.82843029 C18.4231837,9.82843029 18.6633677,10.0686143 18.6633677,10.3670556 C18.6633677,10.6644749 18.4231837,10.9056809 18.1247424,10.9056809 L13.9792692,10.9056809 C13.6808279,10.9056809 13.4406439,10.6644749 13.4406439,10.3670556 Z M15.2248531,1.83970701 L15.2248531,6.67098203 L20.0581722,6.67098203 L15.2248531,1.83970701 Z M11.3395963,7.49598842 C11.5613832,7.27522358 11.9211481,7.27522358 12.142935,7.49598842 C12.3636999,7.71777532 12.3636999,8.07754024 12.142935,8.29932714 L10.9747211,9.4675411 L10.1713823,10.2698578 L8.77831531,11.6639469 C8.5565284,11.8847117 8.19676348,11.8847117 7.97497658,11.6639469 L7.97497658,11.6629248 L7.97395452,11.6649689 L6.30901967,9.99901201 C6.08723277,9.77722511 6.08723277,9.41746018 6.30901967,9.19669534 C6.52978452,8.97490844 6.88954944,8.97490844 7.11133634,9.19669534 L8.37664594,10.4599608 L9.36804361,9.4675411 L10.1713823,8.66522443 L11.3395963,7.49598842 Z M18.1247424,14.327025 C18.4231837,14.327025 18.6633677,14.568231 18.6633677,14.8656503 C18.6633677,15.1640916 18.4231837,15.4052977 18.1247424,15.4052977 L13.9792692,15.4052977 C13.6808279,15.4052977 13.4406439,15.1640916 13.4406439,14.8656503 C13.4406439,14.568231 13.6808279,14.327025 13.9792692,14.327025 L18.1247424,14.327025 Z M11.3395963,11.9955029 C11.5613832,11.7747381 11.9211481,11.7747381 12.142935,11.9955029 C12.3636999,12.2162678 12.3636999,12.5770548 12.142935,12.7988417 L10.9747211,13.9670556 L10.1713823,14.7693723 L8.77831531,16.1634614 C8.5565284,16.3842262 8.19676348,16.3842262 7.97497658,16.1634614 L7.97497658,16.1624393 L7.97395452,16.1644834 L6.30901967,14.4985265 C6.08723277,14.2767396 6.08723277,13.9159526 6.30901967,13.6951878 C6.52978452,13.474423 6.88954944,13.4734009 7.11133634,13.6951878 L8.37664594,14.9594753 L9.36804361,13.9670556 L10.1713823,13.1637169 L11.3395963,11.9955029 Z M18.1247424,18.8265395 C18.4231837,18.8265395 18.6633677,19.0677455 18.6633677,19.3651648 C18.6633677,19.6625841 18.4231837,19.9048122 18.1247424,19.9048122 L13.9792692,19.9048122 C13.6808279,19.9048122 13.4406439,19.6625841 13.4406439,19.3651648 C13.4406439,19.0677455 13.6808279,18.8265395 13.9792692,18.8265395 L18.1247424,18.8265395 Z M11.3395963,16.4949153 C11.5613832,16.2731284 11.9211481,16.2731284 12.142935,16.4949153 C12.3636999,16.7156801 12.3636999,17.0764671 12.142935,17.2972319 L10.9747211,18.4664679 L10.1713823,19.2687846 L8.77831531,20.6618516 C8.5565284,20.8836385 8.19676348,20.8836385 7.97497658,20.6618516 L7.97497658,20.6608296 L7.97395452,20.6628737 L6.30901967,18.9979388 C6.08723277,18.7761519 6.08723277,18.415365 6.30901967,18.1946001 C6.52978452,17.9728132 6.88954944,17.9728132 7.11133634,18.1946001 L8.37664594,19.4588877 L9.36804361,18.4664679 L10.1713823,17.6631292 L11.3395963,16.4949153 Z" id="path-1"></path>
    </defs>
    <g id="Page-1" stroke="none" stroke-width="1" fill="none" fill-rule="evenodd">
        <g id="🌎Icons-/-24x24-/-Avalições-THIIN-/-Cinza">
            <mask id="mask-2" fill="white">
                <use xlink:href="#path-1"></use>
            </mask>
            <use id="Mask" fill="#7EA7C6" xlink:href="#path-1"></use>
        </g>
    </g>
</svg>