<?xml version="1.0" encoding="UTF-8"?>
<svg width="24px" height="24px" viewBox="0 0 24 24" version="1.1" xmlns="http://www.w3.org/2000/svg" xmlns:xlink="http://www.w3.org/1999/xlink">
    <!-- Generator: Sketch 52.6 (67491) - http://www.bohemiancoding.com/sketch -->
    <title>🌎Icons / 24x24 / Turma</title>
    <desc>Created with Sketch.</desc>
    <defs>
        <path d="M19.7929179,20.3152092 L19.7929179,0.955329188 L9.09943996,0.955329188 L17.6388411,2.7396922 C17.8600344,2.78590643 18.0187856,2.98099396 18.0187856,3.20712616 L18.0187856,20.3152092 L19.7929179,20.3152092 Z M17.0634564,22.9346033 L17.0634564,3.59518455 L4.95532919,1.06574944 L4.95532919,20.4048155 L17.0634564,22.9346033 Z M20.2705825,0 C20.5344622,0 20.7482471,0.214137673 20.7482471,0.477664594 L20.7482471,20.7928738 C20.7482471,21.0567535 20.5344622,21.2705384 20.2705825,21.2705384 L18.0187856,21.2705384 L18.0187856,23.5226882 C18.0187856,23.6662698 17.953874,23.802443 17.8423954,23.8934603 C17.7566698,23.9629581 17.6497773,24 17.5407682,24 C17.5083124,24 17.4758566,23.996825 17.4434008,23.9901222 L4.38276668,21.2613661 C4.37994444,21.2606606 4.37676941,21.2596022 4.37359439,21.2588967 C4.36195264,21.2560744 4.35031089,21.2532522 4.33866914,21.2497244 C4.33196631,21.2479605 4.32526348,21.245491 4.31891344,21.2430216 C4.31150505,21.2401993 4.30409666,21.2377299 4.29668827,21.2345548 C4.29069101,21.2324382 4.28469374,21.2296159 4.2783437,21.2264409 C4.27128809,21.2232659 4.26352692,21.2197381 4.25647131,21.2162103 L4.23989064,21.2066852 C4.23283503,21.2028046 4.22542664,21.1982185 4.21837104,21.1936323 C4.21343211,21.1901045 4.20814041,21.1872823 4.20355426,21.1837545 C4.19614587,21.1784628 4.18944305,21.1731711 4.18238744,21.1678793 C4.1778013,21.1639988 4.17356793,21.160471 4.16933457,21.1572959 C4.16192618,21.1509459 4.15522335,21.1449486 4.14852053,21.1382458 C4.14499272,21.134718 4.14111214,21.1311902 4.13723156,21.1276624 C4.13017595,21.120254 4.12312034,21.1124928 4.11606474,21.1043789 C4.11359527,21.1015566 4.11077303,21.0987344 4.10830357,21.0955594 C4.09948406,21.0846232 4.09066455,21.0729814 4.08290338,21.0613397 C4.08008114,21.0574591 4.07761168,21.0532257 4.07514221,21.0493452 C4.07020329,21.0412312 4.06491158,21.0331173 4.06032544,21.0246505 C4.0575032,21.019006 4.05468095,21.0133616 4.05150593,21.0077171 C4.04797813,21.0003087 4.04409754,20.9932531 4.0412753,20.9858447 C4.03845306,20.9798474 4.0359836,20.9734974 4.03351413,20.9671473 C4.03033911,20.9597389 4.02786965,20.9526833 4.02540019,20.9449222 C4.0232835,20.9385721 4.02116682,20.9322221 4.01905014,20.9255192 C4.01693346,20.9177581 4.01481677,20.9096441 4.01305287,20.9015302 C4.01164175,20.8955329 4.01023063,20.8891829 4.00881951,20.88248 C4.00705561,20.8733078 4.00564449,20.8641355 4.00458614,20.8542576 C4.00388058,20.8493187 4.00282224,20.844027 4.00246946,20.8383825 C4.00105834,20.8232129 4,20.8080434 4,20.7928738 L4,0.477664594 C4,0.460378357 4.00105834,0.44309212 4.00317502,0.425805883 C4.0035278,0.421925299 4.00423336,0.418044715 4.00493892,0.413811351 C4.00670283,0.400758478 4.00881951,0.388058385 4.01164175,0.375358293 L4.01481677,0.361599859 C4.0179918,0.349605327 4.02116682,0.337610795 4.02540019,0.325969044 C4.02681131,0.321382899 4.02822243,0.316796754 4.02998633,0.31221061 C4.03421969,0.300921639 4.03880584,0.289985448 4.04339198,0.279049257 C4.04586145,0.274110332 4.04833091,0.269524188 4.05080037,0.264585263 C4.05609208,0.254707413 4.061031,0.244476783 4.06702827,0.234951713 C4.06985051,0.230012788 4.07267275,0.225073863 4.07584778,0.220134938 C4.08184504,0.210962649 4.08819509,0.20179036 4.09489791,0.192970852 C4.09842572,0.188031927 4.10160074,0.183798562 4.10512854,0.179212418 C4.11324249,0.169687348 4.12100366,0.160162279 4.12982317,0.15134277 C4.13264541,0.148167747 4.13546765,0.144639944 4.1382899,0.14146492 C4.15028443,0.129823169 4.16263174,0.118534198 4.17533183,0.107950787 L4.17639018,0.106892446 C4.17885964,0.105128544 4.1813291,0.103717423 4.18344578,0.101953521 C4.19402919,0.0938395731 4.20496538,0.0853728447 4.21660713,0.0783172377 C4.2208405,0.0751422146 4.22542664,0.0726727521 4.22966001,0.0698505093 C4.23989064,0.0638532434 4.24976849,0.0578559774 4.26070468,0.0525642722 C4.26529082,0.0504475901 4.26987697,0.0479781276 4.27481589,0.0458614455 C4.2853993,0.0405697403 4.29633549,0.0363363761 4.30727168,0.0317502315 C4.31221061,0.0299863298 4.31679675,0.028222428 4.32173568,0.0264585263 C4.33302465,0.0229307228 4.3446664,0.0194029193 4.35630815,0.0162278961 C4.36124708,0.0148167747 4.36583322,0.0134056533 4.37041937,0.0123473123 C4.38206112,0.00952506945 4.39440843,0.0077611677 4.40640296,0.00599726595 C4.41098911,0.00529170525 4.41628081,0.0042333642 4.42121974,0.0035278035 C4.43286149,0.0021166821 4.44450324,0.00176390175 4.45649777,0.00105834105 C4.46214226,0.0007055607 4.46743396,0.00035278035 4.47272567,0.00035278035 C4.47448957,0.00035278035 4.47625347,0 4.47801737,0 L20.2705825,0 Z M14.3892402,13.7449927 C14.8983022,13.7449927 15.1904044,13.4701768 15.1904044,12.9903956 C15.1904044,12.3208185 14.6883979,12.2206288 14.3892402,12.2206288 C14.0241125,12.2206288 13.5884288,12.3543326 13.5884288,12.9903956 C13.5884288,13.4768797 13.8727698,13.7449927 14.3892402,13.7449927 Z M14.3892402,11.2652996 C15.4398201,11.2652996 16.1457336,11.9588658 16.1457336,12.9903956 C16.1457336,13.9972307 15.4235922,14.7003219 14.3892402,14.7003219 C13.355241,14.7003219 12.6330996,13.9972307 12.6330996,12.9903956 C12.6330996,11.9588658 13.3386603,11.2652996 14.3892402,11.2652996 Z" id="path-1"></path>
    </defs>
    <g id="🌎Icons-/-24x24-/-Turma" stroke="none" stroke-width="1" fill="none" fill-rule="evenodd">
        <mask id="mask-2" fill="white">
            <use xlink:href="#path-1"></use>
        </mask>
        <use id="Mask" fill="#7EA7C6" xlink:href="#path-1"></use>
    </g>
</svg>