<?xml version="1.0" encoding="UTF-8"?>
<svg width="60px" height="72px" viewBox="0 0 60 72" version="1.1" xmlns="http://www.w3.org/2000/svg" xmlns:xlink="http://www.w3.org/1999/xlink">
    <!-- Generator: sketchtool 49.3 (51167) - http://www.bohemiancoding.com/sketch -->
    <title>FEABD015-44BC-4D07-98BA-9C47C735D2C4</title>
    <desc>Created with sketchtool.</desc>
    <defs>
        <path d="M10.8465633,2 C10.1004599,2 9.5,2.60301508 9.5,3.34656333 C9.5,4.09011157 10.1004599,4.6956818 10.8465633,4.6956818 L26.2102461,4.6956818 C26.9563495,4.6956818 27.5568095,4.09011157 27.5568095,3.34656333 C27.5568095,2.60301508 26.9563495,2 26.2102461,2 L10.8465633,2 Z" id="path-1"></path>
        <path d="M10.8465633,2 C10.1004599,2 9.5,2.60301508 9.5,3.34656333 C9.5,4.09011157 10.1004599,4.6956818 10.8465633,4.6956818 L26.2102461,4.6956818 C26.9563495,4.6956818 27.5568095,4.09011157 27.5568095,3.34656333 C27.5568095,2.60301508 26.9563495,2 26.2102461,2 L10.8465633,2 Z" id="path-3"></path>
        <path d="M10.8465633,2 C10.1004599,2 9.5,2.60301508 9.5,3.34656333 C9.5,4.09011157 10.1004599,4.6956818 10.8465633,4.6956818 L26.2102461,4.6956818 C26.9563495,4.6956818 27.5568095,4.09011157 27.5568095,3.34656333 C27.5568095,2.60301508 26.9563495,2 26.2102461,2 L10.8465633,2 Z" id="path-5"></path>
        <path d="M10.8465633,2 C10.1004599,2 9.5,2.60301508 9.5,3.34656333 C9.5,4.09011157 10.1004599,4.6956818 10.8465633,4.6956818 L26.2102461,4.6956818 C26.9563495,4.6956818 27.5568095,4.09011157 27.5568095,3.34656333 C27.5568095,2.60301508 26.9563495,2 26.2102461,2 L10.8465633,2 Z" id="path-7"></path>
        <path d="M0,10 L0,1.34656333 C0,0.603015075 0.605570224,0 1.34911847,0 L10.5,0 L10.5,2.69312665 L2.6956818,2.69312665 L2.6956818,10 L0,10 Z" id="path-9"></path>
        <path d="M49,10 L49,1.34656333 C49,0.603015075 49.6055702,0 50.3491185,0 L59.5,0 L59.5,2.69312665 L51.6956818,2.69312665 L51.6956818,10 L49,10 Z" id="path-11"></path>
        <path d="M0,72 L0,63.3465633 C0,62.6030151 0.605570224,62 1.34911847,62 L10.5,62 L10.5,64.6931267 L2.6956818,64.6931267 L2.6956818,72 L0,72 Z" id="path-13"></path>
        <path d="M49,72 L49,63.3465633 C49,62.6030151 49.6055702,62 50.3491185,62 L59.5,62 L59.5,64.6931267 L51.6956818,64.6931267 L51.6956818,72 L49,72 Z" id="path-15"></path>
    </defs>
    <g id="OMR" stroke="none" stroke-width="1" fill="none" fill-rule="evenodd">
        <g id="13---OMR" transform="translate(-130.000000, -78.000000)">
            <g id="Group-3" transform="translate(15.000000, 38.000000)">
                <g id="omr" transform="translate(115.000000, 40.000000)">
                    <path d="M9.3,8.3 L9.3,63.7 L50.7,63.7 L50.7,8.3 L9.3,8.3 Z M9,5.7 L51,5.7 C52.2702549,5.7 53.3,6.72974508 53.3,8 L53.3,64 C53.3,65.2702549 52.2702549,66.3 51,66.3 L9,66.3 C7.72974508,66.3 6.7,65.2702549 6.7,64 L6.7,8 C6.7,6.72974508 7.72974508,5.7 9,5.7 Z" id="Rectangle-9" fill="#7EA7C6" fill-rule="nonzero"></path>
                    <g id="Group-2" transform="translate(16.500000, 15.000000)">
                        <g id="Group" transform="translate(0.000000, 36.000000)">
                            <circle id="Oval-2" fill="#7EA7C6" cx="3" cy="3" r="3"></circle>
                            <mask id="mask-2" fill="white">
                                <use xlink:href="#path-1"></use>
                            </mask>
                            <use id="Mask" fill="#7EA7C6" xlink:href="#path-1"></use>
                        </g>
                        <g id="Group-Copy">
                            <circle id="Oval-2" fill="#7EA7C6" cx="3" cy="3" r="3"></circle>
                            <mask id="mask-4" fill="white">
                                <use xlink:href="#path-3"></use>
                            </mask>
                            <use id="Mask" fill="#7EA7C6" xlink:href="#path-3"></use>
                        </g>
                        <g id="Group-Copy-2" transform="translate(0.000000, 24.000000)">
                            <circle id="Oval-2" fill="#7EA7C6" cx="3" cy="3" r="3"></circle>
                            <mask id="mask-6" fill="white">
                                <use xlink:href="#path-5"></use>
                            </mask>
                            <use id="Mask" fill="#7EA7C6" xlink:href="#path-5"></use>
                        </g>
                        <g id="Group-Copy-3" transform="translate(0.000000, 12.000000)">
                            <circle id="Oval-2" fill="#7EA7C6" cx="3" cy="3" r="3"></circle>
                            <mask id="mask-8" fill="white">
                                <use xlink:href="#path-7"></use>
                            </mask>
                            <use id="Mask" fill="#7EA7C6" xlink:href="#path-7"></use>
                        </g>
                    </g>
                    <mask id="mask-10" fill="white">
                        <use xlink:href="#path-9"></use>
                    </mask>
                    <use id="Combined-Shape" fill="#F68A33" xlink:href="#path-9"></use>
                    <mask id="mask-12" fill="white">
                        <use xlink:href="#path-11"></use>
                    </mask>
                    <use id="Combined-Shape-Copy" fill="#F68A33" transform="translate(54.250000, 5.000000) scale(-1, 1) translate(-54.250000, -5.000000) " xlink:href="#path-11"></use>
                    <mask id="mask-14" fill="white">
                        <use xlink:href="#path-13"></use>
                    </mask>
                    <use id="Combined-Shape" fill="#F68A33" transform="translate(5.250000, 67.000000) scale(1, -1) translate(-5.250000, -67.000000) " xlink:href="#path-13"></use>
                    <mask id="mask-16" fill="white">
                        <use xlink:href="#path-15"></use>
                    </mask>
                    <use id="Combined-Shape-Copy" fill="#F68A33" transform="translate(54.250000, 67.000000) scale(-1, -1) translate(-54.250000, -67.000000) " xlink:href="#path-15"></use>
                </g>
            </g>
        </g>
    </g>
</svg>