<?xml version="1.0" encoding="UTF-8"?>
<svg width="24px" height="24px" viewBox="0 0 24 24" version="1.1" xmlns="http://www.w3.org/2000/svg" xmlns:xlink="http://www.w3.org/1999/xlink">
    <!-- Generator: Sketch 52.6 (67491) - http://www.bohemiancoding.com/sketch -->
    <title>🌎Icons / 24x24 / Desconectar </title>
    <desc>Created with Sketch.</desc>
    <defs>
        <path d="M23.4826325,0 C23.7796251,0 24.021619,0.241 24.021619,0.539 L24.021619,23.461 C24.021619,23.759 23.7796251,24 23.4826325,24 L9.33898669,24 C9.04199413,24 8.80000019,23.759 8.80000019,23.461 L8.80000019,18.916 C8.80000019,18.619 9.04199413,18.378 9.33898669,18.378 C9.63697923,18.378 9.87897317,18.619 9.87897317,18.916 L9.87897317,22.922 L22.943646,22.922 L22.943646,1.078 L9.87897317,1.078 L9.87897317,4.775 C9.87897317,5.073 9.63697923,5.314 9.33898669,5.314 C9.04199413,5.314 8.80000019,5.073 8.80000019,4.775 L8.80000019,0.539 C8.80000019,0.241 9.04199413,0 9.33898669,0 L23.4826325,0 Z M1.83995393,12.3545 L6.69683231,17.2115 C6.90782703,17.4225 6.90782703,17.7635 6.69683231,17.9745 C6.59183494,18.0795 6.45383839,18.1315 6.31684182,18.1315 C6.17884528,18.1315 6.04084874,18.0795 5.93585136,17.9745 L0.157996044,12.1975 C0.155996094,12.1955 0.154996119,12.1935 0.152996169,12.1925 C0.142996419,12.1805 0.131996695,12.1695 0.121996945,12.1575 L0.106997321,12.1365 C0.101997446,12.1295 0.0959975962,12.1235 0.0909977214,12.1155 C0.0859978466,12.1075 0.0809979718,12.0985 0.075998097,12.0905 C0.0719981971,12.0835 0.0679982973,12.0775 0.0639983975,12.0705 L0.0519986979,12.0435 C0.0479987981,12.0375 0.0439988983,12.0305 0.0409989734,12.0225 C0.0379990485,12.0135 0.0349991236,12.0055 0.0319991987,11.9975 C0.0289992738,11.9895 0.0269993239,11.9805 0.023999399,11.9725 C0.0209994742,11.9635 0.0189995242,11.9555 0.0169995743,11.9475 L0.0109997246,11.9205 C0.00899977464,11.9115 0.00799979968,11.9015 0.00599984976,11.8915 C0.0049998748,11.8835 0.00399989984,11.8765 0.00299992488,11.8695 C-0.00099997496,11.8335 -0.00099997496,11.7975 0.00299992488,11.7625 C0.00399989984,11.7545 0.0049998748,11.7485 0.00599984976,11.7405 C0.00799979968,11.7305 0.00899977464,11.7205 0.0109997246,11.7095 C0.0129996745,11.7025 0.0149996244,11.6935 0.0169995743,11.6845 C0.0189995242,11.6765 0.0209994742,11.6675 0.023999399,11.6595 C0.0269993239,11.6515 0.0289992738,11.6425 0.0319991987,11.6345 C0.0349991236,11.6255 0.0379990485,11.6185 0.0409989734,11.6095 C0.0439988983,11.6015 0.0479987981,11.5945 0.0519986979,11.5865 C0.0559985978,11.5795 0.0599984976,11.5705 0.0639983975,11.5615 C0.0679982973,11.5545 0.0719981971,11.5475 0.075998097,11.5415 C0.0809979718,11.5335 0.0859978466,11.5245 0.0909977214,11.5165 C0.0959975962,11.5085 0.101997446,11.5015 0.106997321,11.4955 L0.121996945,11.4745 C0.131996695,11.4615 0.142996419,11.4515 0.152996169,11.4395 C0.154996119,11.4385 0.155996094,11.4365 0.157996044,11.4345 C0.158996019,11.4335 0.160995969,11.4325 0.161995944,11.4305 C0.164995868,11.4285 0.167995793,11.4255 0.169995743,11.4235 L5.93685134,5.6575 C6.14784606,5.4475 6.48783754,5.4475 6.69783228,5.6575 C6.908827,5.8685 6.908827,6.2085 6.69783228,6.4195 L1.84195388,11.2775 L20.0664975,11.2775 C20.3634901,11.2775 20.605484,11.5185 20.605484,11.8155 C20.605484,12.1135 20.3634901,12.3545 20.0664975,12.3545 L1.83995393,12.3545 Z" id="path-1"></path>
    </defs>
    <g id="🌎Icons-/-24x24-/-Desconectar-" stroke="none" stroke-width="1" fill="none" fill-rule="evenodd">
        <mask id="mask-2" fill="white">
            <use xlink:href="#path-1"></use>
        </mask>
        <use id="Mask" fill="#7EA7C6" xlink:href="#path-1"></use>
    </g>
</svg>