<?xml version="1.0" encoding="UTF-8"?>
<svg width="24px" height="24px" viewBox="0 0 24 24" version="1.1" xmlns="http://www.w3.org/2000/svg" xmlns:xlink="http://www.w3.org/1999/xlink">
    <!-- Generator: Sketch 52.6 (67491) - http://www.bohemiancoding.com/sketch -->
    <title>🌎Icons / 24x24 / Avalições</title>
    <desc>Created with Sketch.</desc>
    <defs>
        <path d="M21.3747755,6.88555102 L21.4100408,6.94432653 L21.5011429,7.30873469 L21.5011429,23.227102 C21.5011429,23.6532245 21.1543673,24 20.7282449,24 L3.27289796,24 C2.84677551,24 2.5,23.6532245 2.5,23.227102 L2.5,0.772897959 C2.5,0.34677551 2.84677551,0 3.27289796,0 L14.4872653,0.0587755102 L14.5499592,0.0891428571 L14.7321633,0.221387755 L21.3747755,6.88555102 Z M14.1914286,8.08163265 C13.7653061,8.08163265 13.4185306,7.73485714 13.4185306,7.30873469 L13.4185306,1.54579592 L4.04579592,1.54579592 L4.04579592,22.4542041 L19.9553469,22.4542041 L19.9553469,8.08163265 L14.1914286,8.08163265 Z M13.0177796,10.4008163 C13.0177796,9.97469388 13.3645551,9.62791837 13.7906776,9.62791837 L17.5601469,9.62791837 C17.9862694,9.62791837 18.3330449,9.97469388 18.3330449,10.4008163 C18.3330449,10.8269388 17.9862694,11.1737143 17.5601469,11.1737143 L13.7906776,11.1737143 C13.3645551,11.1737143 13.0177796,10.8269388 13.0177796,10.4008163 Z M14.9643265,6.53583673 L18.8621224,6.53583673 L14.9643265,2.63902041 L14.9643265,6.53583673 Z M10.8271184,7.50220408 C11.0818122,7.2475102 11.5314449,7.24653061 11.7871184,7.50220408 C12.0516082,7.76767347 12.0516082,8.19771429 11.7871184,8.46122449 L8.49079184,11.757551 C8.35854694,11.8897959 8.18515918,11.9564082 8.01079184,11.9564082 C7.88932245,11.9564082 7.76785306,11.9240816 7.66107755,11.8594286 L7.65128163,11.8770612 L7.53079184,11.7585306 L5.89879184,10.1275102 C5.63430204,9.86302041 5.63430204,9.432 5.89879184,9.1675102 C6.16328163,8.90302041 6.59430204,8.90302041 6.85879184,9.1675102 L8.01079184,10.3185306 L10.8271184,7.50220408 Z M17.5603429,14.0354939 C17.9864653,14.0354939 18.3332408,14.3822694 18.3332408,14.8083918 C18.3332408,15.2345143 17.9864653,15.5812898 17.5603429,15.5812898 L13.7908735,15.5812898 C13.364751,15.5812898 13.0179755,15.2345143 13.0179755,14.8083918 C13.0179755,14.3822694 13.364751,14.0354939 13.7908735,14.0354939 L17.5603429,14.0354939 Z M7.53059592,16.1659102 L5.89859592,14.5339102 C5.63410612,14.2704 5.63410612,13.8393796 5.89859592,13.5748898 C6.16308571,13.3084408 6.59410612,13.3094204 6.85859592,13.5748898 L8.01059592,14.7268898 L10.8269224,11.9095837 C11.0914122,11.6450939 11.5214531,11.6441143 11.7869224,11.9095837 C12.0514122,12.1740735 12.0514122,12.6050939 11.7869224,12.8695837 L8.49059592,16.1659102 C8.35933061,16.2981551 8.18496327,16.3637878 8.01157551,16.3637878 C7.88422857,16.3637878 7.75688163,16.3285224 7.64618776,16.2570122 L7.63737143,16.2697469 L7.53059592,16.1659102 Z M17.5603429,18.4427755 C17.9864653,18.4427755 18.3332408,18.789551 18.3332408,19.2156735 C18.3332408,19.6417959 17.9864653,19.9885714 17.5603429,19.9885714 L13.7908735,19.9885714 C13.364751,19.9885714 13.0179755,19.6417959 13.0179755,19.2156735 C13.0179755,18.789551 13.364751,18.4427755 13.7908735,18.4427755 L17.5603429,18.4427755 Z M10.8271184,16.3170612 C11.0916082,16.0515918 11.521649,16.0515918 11.7871184,16.3170612 C12.0516082,16.5825306 12.0516082,17.0125714 11.7871184,17.2760816 L8.49079184,20.5724082 C8.35854694,20.7046531 8.18515918,20.7712653 8.01079184,20.7712653 C7.88932245,20.7712653 7.76785306,20.7389388 7.66107755,20.6742857 L7.65128163,20.6919184 L7.53079184,20.5733878 L5.89879184,18.9423673 C5.63430204,18.6778776 5.63430204,18.2468571 5.89879184,17.9823673 C6.16328163,17.7178776 6.59430204,17.7178776 6.85879184,17.9823673 L8.01079184,19.1333878 L10.8271184,16.3170612 Z" id="path-1"></path>
    </defs>
    <g id="🌎Icons-/-24x24-/-Avalições" stroke="none" stroke-width="1" fill="none" fill-rule="evenodd">
        <mask id="mask-2" fill="white">
            <use xlink:href="#path-1"></use>
        </mask>
        <use id="Mask" fill="#7EA7C6" xlink:href="#path-1"></use>
    </g>
</svg>