<?xml version="1.0" encoding="UTF-8"?>
<svg width="100px" height="100px" viewBox="0 0 100 100" version="1.1" xmlns="http://www.w3.org/2000/svg" xmlns:xlink="http://www.w3.org/1999/xlink">
    <!-- Generator: sketchtool 48.2 (47327) - http://www.bohemiancoding.com/sketch -->
    <title>F050B541-5046-4744-B265-471CF3B053EF</title>
    <desc>Created with sketchtool.</desc>
    <defs></defs>
    <g id="Page-1" stroke="none" stroke-width="1" fill="none" fill-rule="evenodd">
        <g id="🌎Icons-/-110x110-/-Habilidades-sem-Conteúdo">
            <g id="Group" transform="translate(4.545455, 3.636364)">
                <g id="Group-2" stroke="#004F6B" stroke-linecap="round" stroke-linejoin="round" stroke-width="2.5">
                    <polygon id="Shape" fill="#7EA7C6" transform="translate(49.631740, 58.763214) rotate(-180.000000) translate(-49.631740, -58.763214) " points="62.5369979 52.832981 50.9818487 52.832981 36.726482 64.6934461 55.6154099 64.6934461"></polygon>
                    <polyline id="Shape" fill="#7EA7C6" transform="translate(27.494715, 37.198732) rotate(-180.000000) translate(-27.494715, -37.198732) " points="33.4249471 23.7209302 33.4249471 36.421166 21.564482 50.6765328 21.564482 30.7190194"></polyline>
                    <path d="M44.5531067,42.780828 C42.1663332,40.3939356 26.7849035,43.841669 17.5030062,53.3892385 C8.22110898,62.6715977 0,80.1754751 0,80.1754751 L7.16032073,87.3361522 C7.16032073,87.3361522 24.6633269,79.1146341 34.2104212,69.8322748 C43.4923185,60.2847053 46.9398803,45.1677203 44.5531067,42.780828 Z" id="Shape" fill="#C4E0EA" transform="translate(22.642706, 64.693446) rotate(-180.000000) translate(-22.642706, -64.693446) "></path>
                    <path d="M29.1120507,57.1458774 L48.5200846,37.7378436" id="Shape" transform="translate(38.816068, 47.441860) rotate(-180.000000) translate(-38.816068, -47.441860) "></path>
                    <circle id="Oval" fill="#F4F5F6" transform="translate(14.556025, 72.780127) rotate(-180.000000) translate(-14.556025, -72.780127) " cx="14.5560254" cy="72.7801268" r="4.85200846"></circle>
                    <path d="M57.1458774,32.346723 L89.4926004,0" id="Shape" transform="translate(73.319239, 16.173362) rotate(-360.000000) translate(-73.319239, -16.173362) "></path>
                    <path d="M69.0063425,7.54756871 L47.4418605,29.1120507" id="Shape" transform="translate(58.224101, 18.329810) rotate(-360.000000) translate(-58.224101, -18.329810) "></path>
                    <path d="M75.4756871,28.0338266 L61.4587738,42.05074" id="Shape" transform="translate(68.467230, 35.042283) rotate(-360.000000) translate(-68.467230, -35.042283) "></path>
                </g>
                <ellipse id="Oval-Copy" stroke="#7EA7C6" opacity="0.699999988" stroke-dasharray="1" cx="11.1596199" cy="9.00558282" rx="9.00317166" ry="9.00558282"></ellipse>
                <circle id="Oval-6-Copy-7" fill="#C4E0EA" cx="53.9112051" cy="88.4143763" r="4.31289641"></circle>
                <circle id="Oval-6-Copy-5" fill="#C4E0EA" cx="85.179704" cy="49.5983087" r="5.39112051"></circle>
                <circle id="Oval-6-Copy-6" fill="#C4E0EA" cx="3.2346723" cy="47.4418605" r="3.2346723"></circle>
            </g>
        </g>
    </g>
</svg>