<?xml version="1.0" encoding="UTF-8"?>
<svg width="24px" height="24px" viewBox="0 0 24 24" version="1.1" xmlns="http://www.w3.org/2000/svg" xmlns:xlink="http://www.w3.org/1999/xlink">
    <!-- Generator: sketchtool 48.2 (47327) - http://www.bohemiancoding.com/sketch -->
    <title>6E1C91C5-8F9C-42FF-AAA9-64F07B155FBF</title>
    <desc>Created with sketchtool.</desc>
    <defs>
        <path d="M14.2151852,10.4468571 L14.7921852,13.7970612 L11.7251852,12.211102 L8.65218524,13.7862857 L9.24418524,10.4390204 L6.76518524,8.06057143 L10.1981852,7.57861224 L11.7401852,4.53404082 L13.2691852,7.5844898 L16.7021852,8.08114286 L14.2151852,10.4468571 Z M23.3591852,19.8543673 C23.4871852,20.0816327 23.4841852,20.3617959 23.3501852,20.5851429 C23.2161852,20.8094694 22.9681852,20.9475918 22.7031852,20.9475918 L19.5041852,20.9417143 L17.8091852,23.6493061 C17.6741852,23.8657959 17.4291852,24 17.1701852,24 C16.8881852,23.9941224 16.6431852,23.8491429 16.5141852,23.6228571 L14.0111852,19.2166531 C12.4661852,19.5761633 10.9811852,19.5732245 9.44318524,19.2137143 L6.93918524,23.6228571 C6.80918524,23.8491429 6.56518524,23.9941224 6.29918524,24 C6.02418524,24 5.77918524,23.8657959 5.64418524,23.6493061 L3.94818524,20.9417143 L0.751185237,20.9475918 C0.484185237,20.9475918 0.236185237,20.8094694 0.103185237,20.5841633 C-0.0308147633,20.3617959 -0.0348147633,20.0816327 0.0941852367,19.8543673 L3.10318524,14.5596735 C2.24218524,13.0863673 1.78818524,11.4249796 1.78818524,9.74302041 C1.78818524,4.37093878 6.25018524,0 11.7341852,0 C17.2181852,0 21.6801852,4.37093878 21.6801852,9.74302041 C21.6801852,11.428898 21.2231852,13.0961633 20.3581852,14.5724082 L23.3591852,19.8553469 L23.3591852,19.8543673 Z M11.7341852,1.46938776 C7.07718524,1.46938776 3.28818524,5.18106122 3.28818524,9.74302041 C3.28818524,14.3049796 7.07718524,18.0166531 11.7341852,18.0166531 C16.3911852,18.0166531 20.1801852,14.3049796 20.1801852,9.74302041 C20.1801852,5.18106122 16.3911852,1.46938776 11.7341852,1.46938776 Z M5.58518524,8.98530612 C5.20018524,8.61795918 5.06418524,8.0762449 5.23018524,7.5717551 C5.39518524,7.07608163 5.84218524,6.70677551 6.36818524,6.63134694 L9.20518524,6.23363265 L10.4781852,3.72 C10.7181852,3.25273469 11.2011852,2.97453061 11.7471852,2.95395918 C12.2761852,2.95395918 12.7701852,3.25665306 13.0061852,3.72489796 L14.2681852,6.24342857 L17.1031852,6.65289796 C17.6361852,6.73028571 18.0711852,7.08979592 18.2381852,7.59330612 C18.4041852,8.09681633 18.2681852,8.6395102 17.8801852,9.00881633 L15.8251852,10.963102 L16.3021852,13.7324082 C16.3941852,14.2486531 16.1791852,14.7639184 15.7431852,15.0773878 C15.6151852,15.1626122 15.5151852,15.2145306 15.4131852,15.2527347 C15.2541852,15.3124898 15.0861852,15.3428571 14.9151852,15.3428571 C14.6841852,15.3428571 14.4551852,15.2860408 14.2521852,15.1802449 L11.7221852,13.8705306 L9.18418524,15.1724082 C8.71318524,15.4173061 8.12918524,15.3751837 7.69718524,15.0636735 C7.26318524,14.7521633 7.04918524,14.2339592 7.14218524,13.7137959 L7.63118524,10.9493878 L5.58518524,8.98530612 Z M4.05318524,15.909551 L2.02618524,19.4752653 L4.36718524,19.4723265 L4.37118524,19.4723265 C4.62818524,19.4723265 4.87218524,19.6065306 5.00718524,19.8230204 L6.25118524,21.8096327 L7.98618524,18.7562449 C6.45418524,18.1430204 5.10618524,17.1663673 4.05318524,15.909551 Z M19.4061852,15.9193469 C18.3521852,17.1761633 17.0011852,18.1508571 15.4691852,18.7611429 L17.2011852,21.8096327 L18.4451852,19.8230204 C18.5801852,19.6065306 18.8251852,19.4723265 19.0851852,19.4723265 L21.4261852,19.4752653 L19.4061852,15.9193469 Z" id="path-1"></path>
    </defs>
    <g id="Page-1" stroke="none" stroke-width="1" fill="none" fill-rule="evenodd">
        <g id="🌎Icons-/-24x24-/-Comportamento">
            <g id="↳🎨Colors-/-Accent-Copy">
                <mask id="mask-2" fill="white">
                    <use xlink:href="#path-1"></use>
                </mask>
                <use id="Mask" fill="#1D1D1B" xlink:href="#path-1"></use>
                <g id="🎨Colors-/-Accent" mask="url(#mask-2)" fill="#F68A33">
                    <g transform="translate(-1.000000, -1.000000)" id="Rectangle-3">
                        <rect x="0" y="0" width="26" height="26"></rect>
                    </g>
                </g>
            </g>
        </g>
    </g>
</svg>