<?xml version="1.0" encoding="UTF-8"?>
<svg width="18px" height="24px" viewBox="0 0 18 24" version="1.1" xmlns="http://www.w3.org/2000/svg" xmlns:xlink="http://www.w3.org/1999/xlink">
    <!-- Generator: sketchtool 48.2 (47327) - http://www.bohemiancoding.com/sketch -->
    <title>DDA7CD86-BE37-4853-8B31-1B1791F8C236</title>
    <desc>Created with sketchtool.</desc>
    <defs>
        <path d="M8.44738973,15.9815287 L8.56757324,15.982968 C11.3598609,15.982968 13.6311134,13.7117155 13.6311134,10.9194279 C13.6311134,9.8536088 13.3036673,8.83600708 12.6825992,7.9716933 L12.6825992,3.14708087 C12.6825992,2.15322798 13.4907793,1.34504783 14.4846322,1.34504783 C15.4784851,1.34504783 16.2873849,2.15322798 16.2873849,3.14708087 L16.2873849,22.6542325 L6.23874779,22.6542325 L6.23874779,20.0303457 C6.23874779,19.6590003 5.93720951,19.357462 5.56586404,19.357462 C5.19451858,19.357462 4.89369996,19.6590003 4.89369996,20.0303457 L4.89369996,22.6542325 L1.36375903,22.6542325 C1.51344868,20.0368227 2.55911721,18.1484302 4.47413716,17.0401511 C6.03796216,16.1333773 7.7817026,15.9973612 8.44738973,15.9815287 M8.60931362,14.6350415 L8.48265315,14.6357612 C6.47983448,14.5897028 4.84980059,12.9229662 4.84980059,10.9194279 C4.84980059,8.86983118 6.51725689,7.20165522 8.56757324,7.20165522 C10.6186093,7.20165522 12.2860655,8.86983118 12.2860655,10.9194279 C12.2860655,12.9316021 10.6502744,14.5990584 8.60931362,14.6350415 M14.4846322,0 C12.7495277,0 11.3375514,1.41197637 11.3375514,3.14708087 L11.3375514,6.68277909 C10.5135386,6.14087379 9.56286545,5.85660739 8.56757324,5.85660739 C5.77600528,5.85660739 3.50475277,8.12785991 3.50475277,10.9194279 C3.50475277,12.5739303 4.32660649,14.129839 5.67453297,15.0725959 C4.99949024,15.2762602 4.37050586,15.5454137 3.79981409,15.8757384 C2.66994513,16.5299109 1.77540556,17.4201325 1.14138355,18.5204954 C0.384299379,19.8353174 0,21.453117 0,23.3271163 C0,23.6984617 0.302257939,24 0.672883745,24 L16.959549,24 C17.3301748,24 17.6317131,23.6984617 17.6317131,23.3271163 L17.6317131,3.14708087 C17.6317131,1.41197637 16.2197367,0 14.4846322,0" id="path-1"></path>
    </defs>
    <g id="🌎Icons-/-24x24-/-Chamada" stroke="none" stroke-width="1" fill="none" fill-rule="evenodd" transform="translate(-3.000000, 0.000000)">
        <g id="↳🎨Colors-/-Accent" transform="translate(3.000000, 0.000000)">
            <mask id="mask-2" fill="white">
                <use xlink:href="#path-1"></use>
            </mask>
            <use id="Mask" fill="#1D1D1B" xlink:href="#path-1"></use>
        </g>
    </g>
</svg>