<?xml version="1.0" encoding="UTF-8"?>
<svg width="24px" height="24px" viewBox="0 0 24 24" version="1.1" xmlns="http://www.w3.org/2000/svg" xmlns:xlink="http://www.w3.org/1999/xlink">
    <!-- Generator: sketchtool 48.2 (47327) - http://www.bohemiancoding.com/sketch -->
    <title>0941DEE7-D597-43E6-ABA1-6F57211E0137</title>
    <desc>Created with sketchtool.</desc>
    <defs>
        <path d="M22.56,3.23159588 L22.56,19.2792694 C20.4058776,19.3684122 18.3193469,19.6231061 16.5129796,20.0198408 C14.9916735,20.3538816 13.7182041,20.7780449 12.72,21.2825347 L12.72,9.89477956 L18.3281633,3.6498816 C19.658449,3.42653466 21.0808163,3.28645303 22.56,3.23159588 Z M6.68669388,12.8266979 L6.68669388,11.5581265 L15.5059592,1.73869792 L16.9459592,3.03371833 L8.15608163,12.8218 L6.68669388,12.8266979 Z M5.43085714,10.8018816 C5.31232653,10.9331469 5.24669388,11.1045755 5.24669388,11.2828612 L5.24669388,13.5486571 C5.24669388,13.7396775 5.32408163,13.9258 5.45828571,14.0590245 C5.5924898,14.1922489 5.77763265,14.2696367 5.96963265,14.2696367 L8.47934694,14.2608204 C8.68212245,14.2608204 8.87706122,14.1736367 9.01322449,14.0227796 L11.28,11.4983714 L11.28,21.2825347 C10.2817959,20.7780449 9.00832653,20.3538816 7.488,20.0198408 L7.48702041,20.0198408 C5.68065306,19.6231061 3.59510204,19.3684122 1.44,19.2792694 L1.44,3.23159588 C5.79526531,3.39224895 9.05044898,4.27877956 10.5090612,5.14767752 L5.43085714,10.8018816 Z M23.7844898,1.97869792 C23.6473469,1.84351425 23.4524082,1.76906527 23.2672653,1.77200405 C21.4873469,1.80335099 19.7789388,1.95224895 18.187102,2.21379997 L15.9330612,0.186044864 C15.7900408,0.0577183331 15.6029388,-0.0157510546 15.4138776,0.00286119025 C15.2238367,0.0126571086 15.0426122,0.0988611903 14.9162449,0.239922415 L11.4857143,4.06033058 C9.51771429,2.74571833 5.34465306,1.85233058 0.731755102,1.77200405 C0.558367347,1.77592241 0.351673469,1.84449384 0.215510204,1.97869792 C0.0783673469,2.11290201 0,2.30000405 0,2.49200405 L0,19.9757591 C0,20.3695551 0.308571429,20.6849836 0.702367347,20.6957591 C5.53959184,20.8133102 9.80081633,21.7723306 11.5513469,23.1329836 C11.5709388,23.1496367 11.5915102,23.163351 11.6297143,23.1868612 L11.7707755,23.2524938 C11.7952653,23.259351 11.8187755,23.2671877 11.7952653,23.2573918 L11.8902857,23.280902 C11.9108571,23.2848204 11.9324082,23.2858 11.9216327,23.2858 L12,23.2906979 C12.026449,23.2906979 12.0519184,23.2887387 12.0930612,23.2848204 L12.1645714,23.2711061 C12.1880816,23.2652285 12.2115918,23.2583714 12.2370612,23.2505347 L12.2595918,23.2554326 L12.3213061,23.2142898 C12.3487347,23.2005755 12.3761633,23.184902 12.4417959,23.1378816 C14.1991837,21.7723306 18.4604082,20.8133102 23.2976327,20.6957591 C23.6914286,20.6849836 24,20.3695551 24,19.9757591 L24,2.49200405 C24,2.30000405 23.9216327,2.11290201 23.7844898,1.97869792 Z" id="path-1"></path>
    </defs>
    <g id="Page-1" stroke="none" stroke-width="1" fill="none" fill-rule="evenodd">
        <g id="🌎Icons-/-24x24-/-Conteudo">
            <mask id="mask-2" fill="white">
                <use xlink:href="#path-1"></use>
            </mask>
            <use id="Mask" fill="#1D1D1B" xlink:href="#path-1"></use>
            <g id="🎨Colors-/-Accent" mask="url(#mask-2)" fill="#F68A33">
                <g transform="translate(-1.000000, -1.000000)" id="Rectangle-3">
                    <rect x="0" y="0" width="26" height="26"></rect>
                </g>
            </g>
        </g>
    </g>
</svg>