<?xml version="1.0" encoding="UTF-8"?>
<svg width="24px" height="24px" viewBox="0 0 24 24" version="1.1" xmlns="http://www.w3.org/2000/svg" xmlns:xlink="http://www.w3.org/1999/xlink">
    <!-- Generator: Sketch 52.6 (67491) - http://www.bohemiancoding.com/sketch -->
    <title>🌎Icons / 24x24 / Notas</title>
    <desc>Created with Sketch.</desc>
    <defs>
        <path d="M14.1914286,8.08163265 C13.7653061,8.08163265 13.4185306,7.73485714 13.4185306,7.30873469 L13.4185306,1.54579592 L4.04579592,1.54579592 L4.04579592,22.4542041 L19.9553469,22.4542041 L19.9553469,8.08163265 L14.1914286,8.08163265 Z M14.9643265,6.53583673 L18.8621224,6.53583673 L14.9643265,2.63902041 L14.9643265,6.53583673 Z M21.2533061,7.25681633 L21.2542857,7.25681633 L21.2533061,7.25681633 Z M21.3747755,6.88555102 L21.4100408,6.94432653 L21.5011429,7.30873469 L21.5011429,23.227102 C21.5011429,23.6532245 21.1543673,24 20.7282449,24 L3.27289796,24 C2.84677551,24 2.5,23.6532245 2.5,23.227102 L2.5,0.772897959 C2.5,0.34677551 2.84677551,0 3.27289796,0 L14.4872653,0.0587755102 L14.5499592,0.0891428571 L14.7321633,0.221387755 L21.3747755,6.88555102 Z M13.3177306,11.4416327 C13.3177306,12.1694694 12.7280163,12.7591837 12.0001796,12.7591837 C11.2733224,12.7591837 10.6836082,12.1694694 10.6836082,11.4416327 C10.6836082,10.7137959 11.2733224,10.1240816 12.0001796,10.1240816 C12.7280163,10.1240816 13.3177306,10.7137959 13.3177306,11.4416327 Z M13.3177306,18.393502 C13.3177306,19.1203592 12.7280163,19.7100735 12.0001796,19.7100735 C11.2733224,19.7100735 10.6836082,19.1203592 10.6836082,18.393502 C10.6836082,17.6656653 11.2733224,17.075951 12.0001796,17.075951 C12.7280163,17.075951 13.3177306,17.6656653 13.3177306,18.393502 Z M17.3217143,15.6961959 L6.67942857,15.6961959 C6.24938776,15.6961959 5.90065306,15.3474612 5.90065306,14.9174204 C5.90065306,14.4873796 6.24938776,14.1386449 6.67942857,14.1386449 L17.3217143,14.1386449 C17.7517551,14.1386449 18.1004898,14.4873796 18.1004898,14.9174204 C18.1004898,15.3474612 17.7517551,15.6961959 17.3217143,15.6961959 Z" id="path-1"></path>
    </defs>
    <g id="🌎Icons-/-24x24-/-Notas" stroke="none" stroke-width="1" fill="none" fill-rule="evenodd">
        <mask id="mask-2" fill="white">
            <use xlink:href="#path-1"></use>
        </mask>
        <use id="Mask" fill="#7EA7C6" xlink:href="#path-1"></use>
    </g>
</svg>