<?xml version="1.0" encoding="UTF-8"?>
<svg width="24px" height="24px" viewBox="0 0 24 24" version="1.1" xmlns="http://www.w3.org/2000/svg" xmlns:xlink="http://www.w3.org/1999/xlink">
    <!-- Generator: sketchtool 51.1 (57501) - http://www.bohemiancoding.com/sketch -->
    <title>0E44E135-8EE8-46C2-A9CC-7BCC3784C80B</title>
    <desc>Created with sketchtool.</desc>
    <defs></defs>
    <g id="📱-Notas_App" stroke="none" stroke-width="1" fill="none" fill-rule="evenodd">
        <g id="11---Notas_App" transform="translate(-97.000000, -108.000000)" fill="#7EA7C6">
            <g id="Group-8" transform="translate(0.000000, 50.000000)">
                <g id="Card-Conteudo-Copy-3" transform="translate(15.000000, 47.000000)">
                    <g id="Group-3" transform="translate(82.000000, 11.000000)">
                        <g id="🌎Icons-/-24x24-/-calculator">
                            <path d="M11.082,1.336 L11.082,11.081 L1.337,11.081 L1.337,3.278 C1.337,2.208 2.208,1.336 3.279,1.336 L11.082,1.336 Z M11.082,12.418 L11.082,22.163 L3.279,22.163 C2.208,22.163 1.337,21.291 1.337,20.22 L1.337,12.418 L11.082,12.418 Z M22.164,3.278 L22.164,20.22 C22.164,21.291 21.292,22.163 20.222,22.163 L12.419,22.163 L12.419,1.336 L20.222,1.336 C21.292,1.336 22.164,2.208 22.164,3.278 Z M20.222,0 L3.279,0 C1.471,0 0,1.47 0,3.278 L0,20.22 C0,22.028 1.471,23.5 3.279,23.5 L20.222,23.5 C22.03,23.5 23.5,22.028 23.5,20.22 L23.5,3.278 C23.5,1.47 22.03,0 20.222,0 Z" id="Fill-1"></path>
                            <path d="M3.4312,17.9365 L5.5212,17.9365 L5.5212,20.0265 C5.5212,20.3955 5.8212,20.6955 6.1892,20.6955 C6.5582,20.6955 6.8582,20.3955 6.8582,20.0265 L6.8582,17.9365 L8.9482,17.9365 C9.3172,17.9365 9.6172,17.6365 9.6172,17.2685 C9.6172,16.8995 9.3172,16.5995 8.9482,16.5995 L6.8582,16.5995 L6.8582,14.5095 C6.8582,14.1415 6.5582,13.8415 6.1892,13.8415 C5.8212,13.8415 5.5212,14.1415 5.5212,14.5095 L5.5212,16.5995 L3.4312,16.5995 C3.0622,16.5995 2.7632,16.8995 2.7632,17.2685 C2.7632,17.6365 3.0622,17.9365 3.4312,17.9365" id="Fill-4"></path>
                            <path d="M2.7627,6.2178 C2.7627,6.5868 3.0627,6.8858 3.4307,6.8858 L8.9487,6.8858 C9.3167,6.8858 9.6167,6.5868 9.6167,6.2178 C9.6167,5.8488 9.3167,5.5498 8.9487,5.5498 L3.4307,5.5498 C3.0627,5.5498 2.7627,5.8488 2.7627,6.2178" id="Fill-6"></path>
                            <path d="M6.1895,4.6733 C6.5645,4.6733 6.8705,4.3673 6.8705,3.9923 L6.8705,3.4243 C6.8705,3.0493 6.5645,2.7433 6.1895,2.7433 C5.8145,2.7433 5.5085,3.0493 5.5085,3.4243 L5.5085,3.9923 C5.5085,4.3673 5.8145,4.6733 6.1895,4.6733" id="Fill-8"></path>
                            <path d="M6.1895,7.6968 C5.8145,7.6968 5.5085,8.0028 5.5085,8.3778 L5.5085,8.9448 C5.5085,9.3208 5.8145,9.6258 6.1895,9.6258 C6.5645,9.6258 6.8705,9.3208 6.8705,8.9448 L6.8705,8.3778 C6.8705,8.0028 6.5645,7.6968 6.1895,7.6968" id="Fill-10"></path>
                            <path d="M20.0547,9.6821 L14.5377,9.6821 C14.1687,9.6821 13.8687,9.9821 13.8687,10.3501 C13.8687,10.7191 14.1687,11.0191 14.5377,11.0191 L20.0547,11.0191 C20.4237,11.0191 20.7227,10.7191 20.7227,10.3501 C20.7227,9.9821 20.4237,9.6821 20.0547,9.6821" id="Fill-12"></path>
                            <path d="M20.0547,12.416 L14.5377,12.416 C14.1687,12.416 13.8687,12.716 13.8687,13.084 C13.8687,13.453 14.1687,13.753 14.5377,13.753 L20.0547,13.753 C20.4237,13.753 20.7227,13.453 20.7227,13.084 C20.7227,12.716 20.4237,12.416 20.0547,12.416" id="Fill-14"></path>
                        </g>
                    </g>
                </g>
            </g>
        </g>
    </g>
</svg>