<?xml version="1.0" encoding="UTF-8"?>
<svg width="36px" height="32px" viewBox="0 0 36 32" version="1.1" xmlns="http://www.w3.org/2000/svg" xmlns:xlink="http://www.w3.org/1999/xlink">
    <!-- Generator: sketchtool 49.3 (51167) - http://www.bohemiancoding.com/sketch -->
    <title>CA8F4D93-AAE5-4DE3-9AE4-84978982BF96</title>
    <desc>Created with sketchtool.</desc>
    <defs></defs>
    <g id="Symbols" stroke="none" stroke-width="1" fill="none" fill-rule="evenodd">
        <g id="Bars-/-Toolbar-/-Chamada" transform="translate(-15.000000, -9.000000)" fill="#757575" fill-rule="nonzero">
            <g id="Group-3">
                <g id="Group-6" transform="translate(15.000000, 9.000000)">
                    <path d="M34.8921253,11.4469428 L19.6300384,0.522653754 C18.6507672,-0.149639476 17.3491456,-0.149639476 16.3698744,0.522653754 L12.4318544,3.33914148 L12.4318544,0.666812201 C12.4318587,0.299778466 12.1303347,0.00174777967 11.7572264,0 L6.4183043,0 C6.04393483,-2.25500467e-17 5.74044841,0.298541991 5.74044841,0.666812201 L5.74044841,8.12875826 L1.10778756,11.4469428 C-0.00739957121,12.2450141 -0.328466059,13.7434047 0.364378753,14.9163699 C1.05722357,16.089335 2.53955243,16.5569263 3.79661594,15.9990474 L3.79661594,31.3331878 C3.79697183,31.7013129 4.10024987,31.9996499 4.47447183,32 L31.8469384,32 C32.2213078,32 32.5247943,31.701458 32.5247943,31.3331878 L32.5247943,16.1171684 C33.7810913,16.4941258 35.130443,15.9235433 35.7168082,14.7674037 C36.3031734,13.6112641 35.9551032,12.2076143 34.8934164,11.4469428 L34.8921253,11.4469428 Z M7.09616019,1.3336244 L11.0793705,1.3336244 L11.0793705,4.309512 L7.09616019,7.16092798 L7.09616019,1.3336244 Z M19.4008586,30.6663756 L19.4008586,22.5103098 C19.402995,20.9508281 20.6883654,19.6875356 22.2736764,19.6868364 L22.9121521,19.6868364 C24.4972107,19.6882364 25.7818993,20.9517106 25.7836788,22.5109448 L25.7836788,30.6663756 L19.4008586,30.6663756 Z M27.1380994,30.6663756 L27.1380994,22.5103098 C27.1348974,20.2152183 25.2439645,18.3556608 22.910861,18.353212 L22.2736764,18.353212 C19.9403213,18.3556615 18.0492844,20.2156053 18.046438,22.5109448 L18.046438,30.6663756 L5.15232772,30.6663756 L5.15232772,15.0972633 L17.9999564,5.90605092 L31.1697281,15.329695 L31.1697281,30.6663756 L27.1380994,30.6663756 Z M34.3879296,14.3593245 C33.9527005,14.9427029 33.1206801,15.0716954 32.5241487,14.6482764 L18.4002142,4.53940344 C18.1624137,4.3698027 17.840727,4.3698027 17.6029265,4.53940344 L3.47576415,14.6482764 C2.8798881,15.0666571 2.0526093,14.9346493 1.62173002,14.3524307 C1.19085075,13.7702121 1.31728071,12.9552092 1.90507521,12.5259084 L17.167162,1.60288952 C17.3936678,1.43935371 17.6673441,1.35124616 17.9483103,1.35140606 L17.9831714,1.35140606 C17.9945675,1.35204186 18.005991,1.35204186 18.017387,1.35140606 C18.3096278,1.34379252 18.5962486,1.43130232 18.8327508,1.60034928 L34.0948376,12.5233682 C34.3813854,12.7284604 34.5732876,13.0372059 34.6282636,13.3815809 C34.6832396,13.7259558 34.5967785,14.0777031 34.3879296,14.3593245 Z" id="Shape"></path>
                </g>
            </g>
        </g>
    </g>
</svg>