<?xml version="1.0" encoding="UTF-8"?>
<svg width="36px" height="32px" viewBox="0 0 36 32" version="1.1" xmlns="http://www.w3.org/2000/svg" xmlns:xlink="http://www.w3.org/1999/xlink">
    <!-- Generator: sketchtool 49.3 (51167) - http://www.bohemiancoding.com/sketch -->
    <title>15928FAD-4CC5-4542-8089-C69645434522</title>
    <desc>Created with sketchtool.</desc>
    <defs></defs>
    <g id="Symbols" stroke="none" stroke-width="1" fill="none" fill-rule="evenodd">
        <g id="Bars-/-Toolbar-/-Inicio" transform="translate(-15.000000, -9.000000)" fill="#004F6B" fill-rule="nonzero">
            <g id="Group-3">
                <g id="Group-6" transform="translate(15.000000, 9.000000)">
                    <g id="Asset-12">
                        <path d="M6.19631559,0 L10.4996904,0 L10.4996904,3.24571429 L6.19631559,6.35555556 L6.19631559,0 Z M27.8500278,31.9930159 L27.8500278,23.0971429 C27.8472087,20.5939111 25.804224,18.5653389 23.2832072,18.5625397 L22.5926211,18.5625397 C20.0717502,18.565688 18.0289712,20.5940559 18.0258005,23.0971429 L18.0258005,31.9930159 L4.09450386,31.9930159 L4.09450386,15.0120635 L17.9759248,4.98412698 L32.2051966,15.2628571 L32.2051966,31.9930159 L27.8500278,31.9930159 Z M35.684344,14.2069841 C35.2148897,14.8444467 34.3153121,14.9862295 33.6701344,14.5244444 L18.4094595,3.49650794 C18.1524534,3.31117907 17.8045117,3.31117907 17.5475056,3.49650794 L2.28171523,14.5225397 C1.63766876,14.9806493 0.742028632,14.8370083 0.275979119,14.2008636 C-0.190070395,13.5647189 -0.0519450378,12.6743732 0.585303152,12.2069841 L17.0762445,0.291428571 C17.3210087,0.113868782 17.6165287,0.018652523 17.9196548,0.0196825397 L17.9944683,0.0196825397 C18.3102536,0.0110971212 18.620039,0.106412916 18.8756051,0.290793651 L35.3671859,12.2069841 C36.0102688,12.6727348 36.1521668,13.567544 35.684344,14.2069841 Z M23.2832072,20.0171429 C24.9955993,20.0188927 26.3833277,21.3968312 26.38509,23.0971429 L26.38509,31.9930159 L22.9379142,31.9930159 L22.9379142,20.0171429 L23.2832072,20.0171429 Z" id="Combined-Shape"></path>
                    </g>
                </g>
            </g>
        </g>
    </g>
</svg>