<?xml version="1.0" encoding="UTF-8"?>
<svg width="24px" height="24px" viewBox="0 0 24 24" version="1.1" xmlns="http://www.w3.org/2000/svg" xmlns:xlink="http://www.w3.org/1999/xlink">
    <!-- Generator: Sketch 52.6 (67491) - http://www.bohemiancoding.com/sketch -->
    <title>🌎Icons / 24x24 / Ajuda </title>
    <desc>Created with Sketch.</desc>
    <defs>
        <path d="M12,22.890739 C18.0056647,22.890739 22.890739,18.0056647 22.890739,12.00103 C22.890739,5.99639516 18.0056647,1.11029096 12,1.11029096 C5.9953652,1.11029096 1.11029096,5.99639516 1.11029096,12.00103 C1.11029096,18.0056647 5.9953652,22.890739 12,22.890739 Z M20.4857952,3.51523474 C22.7516951,5.78216462 24,8.79478156 24,12.00103 C24,15.2062484 22.7516951,18.2198953 20.4857952,20.4868252 C18.2188653,22.7527251 15.2052184,24.00103 12,24.00103 C8.79478156,24.00103 5.78113467,22.7527251 3.51523474,20.4868252 C1.24830487,18.2198953 0,15.2062484 0,12.00103 C0,8.79478156 1.24830487,5.78216462 3.51523474,3.51523474 C5.78113467,1.24830487 8.79478156,0 12,0 C15.2052184,0 18.2188653,1.24830487 20.4857952,3.51523474 Z M12,6.96867222 C13.0000858,6.96867222 13.6211484,6.37747833 13.6211484,5.42580036 C13.6211484,4.44425371 13.0145052,3.85717964 12,3.85717964 C10.9700455,3.85717964 10.3788516,4.42880439 10.3788516,5.42580036 C10.3788516,6.39086774 10.9854948,6.96867222 12,6.96867222 Z M12,2.74688868 C13.6345378,2.74688868 14.7314394,3.82319114 14.7314394,5.42580036 C14.7314394,6.98824135 13.6087889,8.07896318 12,8.07896318 C10.3664921,8.07896318 9.26959059,7.01296026 9.26959059,5.42580036 C9.26959059,4.62964552 9.53016908,3.95502532 10.0235173,3.47403656 C10.5127457,2.99922753 11.1956055,2.74688868 12,2.74688868 Z M10.5885503,20.1442623 L13.4106257,20.1442623 L13.4106257,10.23301 L10.5885503,10.23301 L10.5885503,20.1442623 Z M9.47825938,21.2545533 L9.47825938,9.12271908 L14.5209167,9.12271908 L14.5209167,21.2545533 L9.47825938,21.2545533 Z" id="path-1"></path>
    </defs>
    <g id="🌎Icons-/-24x24-/-Ajuda-" stroke="none" stroke-width="1" fill="none" fill-rule="evenodd">
        <mask id="mask-2" fill="white">
            <use xlink:href="#path-1"></use>
        </mask>
        <use id="Mask" fill="#7EA7C6" xlink:href="#path-1"></use>
    </g>
</svg>