<?xml version="1.0" encoding="UTF-8"?>
<svg width="50px" height="53px" viewBox="0 0 50 53" version="1.1" xmlns="http://www.w3.org/2000/svg" xmlns:xlink="http://www.w3.org/1999/xlink">
    <!-- Generator: Sketch 49.3 (51167) - http://www.bohemiancoding.com/sketch -->
    <title>05_logo_v5-02</title>
    <desc>Created with Sketch.</desc>
    <defs></defs>
    <g id="Page-1" stroke="none" stroke-width="1" fill="none" fill-rule="evenodd">
        <g id="05_logo_v5-02" fill="#FFFFFF">
            <polyline id="Fill-2" points="20.5603221 44.7726618 11.8188688 43 11 47.702766 19.7610876 49.4026757 27.2593387 50.8623569 38.2206309 53 39 48.505725 28.1077746 46.2953297 20.5603221 44.7726618"></polyline>
            <path d="M44.3248249,43.7662873 L29.5406574,40.9440977 C29.265586,40.8930497 29.0199537,40.7301256 28.8628686,40.4958774 C28.7055535,40.2613907 28.6466754,39.9658372 28.6958939,39.6805411 L29.7862897,33.781399 C29.8844967,33.2108067 29.7665104,32.629957 29.4424505,32.1514419 C29.1280503,31.662431 28.6466754,31.3466014 28.0868729,31.2342482 L26.8196125,31 C25.7586557,34.5149154 22.585675,37.0825808 18.8528918,37.0825808 C18.7838939,37.0825808 9,37.0723235 9,37.0723235 C9.69733819,38.7738432 10.6207593,40.3937814 11.7700333,41.901605 L43.5683786,47.9641483 C44.6785539,48.1778819 45.7590601,47.4138321 45.9653636,46.2623902 C46.1716672,45.1009295 45.4350002,43.9902782 44.3248249,43.7662873" id="Fill-3"></path>
            <path d="M45.7181683,26.9699043 L41.4806042,26.9699043 L41.4806042,30.4444376 L36.6851042,30.4444376 C36.186055,30.4444376 36,30.6262996 36,31.0304636 C36,32.6766811 37.2233348,34.8183482 40.3060745,35.5758306 C40.6291504,35.6363724 40.7856474,35.7976596 40.7856474,36.0906726 C40.7856474,37.3128608 40.188759,38.7474183 39.3469286,39.8080828 L42.7919257,40.4544141 L45.6496579,41 C51.5901297,33.0200667 51.4531089,21.7980713 45.1994139,14 L41.5587382,16.4141054 C44.1424287,19.4442712 45.5419659,23.1820196 45.7181683,26.9699043" id="Fill-4"></path>
            <path d="M31.9040933,11.7800741 L28.1737268,15.8823067 L23,21.5627512 C24.4026654,22.3728886 25.5613993,23.5669417 26.3338886,25 L35.0347454,19.2782219 L40.157782,15.9029734 L44,13.3794391 C41.4792956,10.824783 38.5111851,9.03844449 35.3398382,8 L31.9040933,11.7800741" id="Fill-5"></path>
            <path d="M24.7933917,28.4560198 C24.7933917,24.8605346 21.895135,21.9223818 18.3259438,21.9223818 C14.7565144,21.9223818 11.8582577,24.8605346 11.8582577,28.4560198 C11.8582577,29.062122 11.3701754,29.5551814 10.7701913,29.5551814 C10.1802069,29.5551814 9.69212455,29.062122 9.69212455,28.4560198 C9.69212455,23.6483301 13.5665459,19.7341603 18.3259438,19.7341603 C19.0478294,19.7341603 19.7392397,19.8371014 20.4004127,20.0013744 L36,3.05119571 C32.7050872,2.02370808 29.12542,1.61290544 25.3933758,2.00326416 C19.6556705,2.60503711 14.4279516,5.11025976 10.3640115,8.88036009 L6.32268988,4.79782848 C6.90934102,3.55098955 6.69553716,2.01553051 5.67389752,0.983473062 C4.37583662,-0.327824354 2.27136848,-0.327824354 0.973545673,0.983473062 C-0.324515224,2.29452996 -0.324515224,4.42069819 0.973545673,5.73175509 C2.01304198,6.78209181 3.56942938,6.98869571 4.81487262,6.35661765 L8.83571863,10.4182243 C5.26700352,14.3124313 2.83111558,19.278381 2.10589667,24.7780374 C1.63828999,28.322533 1.85161768,31.7842908 2.66516759,35 L18.3259438,35 C21.895135,35 24.7933917,32.0616067 24.7933917,28.4560198" id="Fill-6"></path>
        </g>
    </g>
</svg>