<?xml version="1.0" encoding="UTF-8"?>
<svg width="24px" height="24px" viewBox="0 0 24 24" version="1.1" xmlns="http://www.w3.org/2000/svg" xmlns:xlink="http://www.w3.org/1999/xlink">
    <!-- Generator: Sketch 52.6 (67491) - http://www.bohemiancoding.com/sketch -->
    <title>🌎Icons / 24x24 / navigation drawer</title>
    <desc>Created with Sketch.</desc>
    <defs>
        <path d="M5,7.25 C4.63308829,7.25 4.25,6.91479774 4.25,6.5 C4.25,6.08520226 4.63308829,5.75 5,5.75 L20,5.75 C20.4380712,5.75 20.75,6.06192881 20.75,6.5 C20.75,6.93807119 20.4380712,7.25 20,7.25 L5,7.25 Z M20,11.75 C20.4380712,11.75 20.75,12.0619288 20.75,12.5 C20.75,12.9380712 20.4380712,13.25 20,13.25 L5,13.25 C4.63308829,13.25 4.25,12.9147977 4.25,12.5 C4.25,12.0852023 4.63308829,11.75 5,11.75 L20,11.75 Z M20,17.75 C20.4380712,17.75 20.75,18.0619288 20.75,18.5 C20.75,18.9380712 20.4380712,19.25 20,19.25 L5,19.25 C4.63308829,19.25 4.25,18.9147977 4.25,18.5 C4.25,18.0619288 4.56192881,17.75 5,17.75 L20,17.75 Z" id="path-1"></path>
    </defs>
    <g id="🌎Icons-/-24x24-/-navigation-drawer" stroke="none" stroke-width="1" fill="none" fill-rule="evenodd">
        <mask id="mask-2" fill="white">
            <use xlink:href="#path-1"></use>
        </mask>
        <use id="Combined-Shape" fill="#7EA7C6" xlink:href="#path-1"></use>
    </g>
</svg>