<?xml version="1.0" encoding="UTF-8"?>
<svg width="26px" height="32px" viewBox="0 0 26 32" version="1.1" xmlns="http://www.w3.org/2000/svg" xmlns:xlink="http://www.w3.org/1999/xlink">
    <!-- Generator: sketchtool 51.1 (57501) - http://www.bohemiancoding.com/sketch -->
    <title>B194B28C-054F-43EA-8BD0-FD3F95E428D5</title>
    <desc>Created with sketchtool.</desc>
    <defs>
        <path d="M24.1799123,30.562303 L1.85813396,30.562303 L1.85813396,1.43633421 L15.2839069,1.43633421 L15.2839069,9.61280981 C15.2839069,10.0107316 15.6055149,10.3323397 16.002074,10.3323397 L24.1799123,10.3323397 L24.1799123,30.562303 Z M25.6176093,9.61144707 L25.6176093,9.61280981 L25.6176093,31.2804701 C25.6176093,31.678392 25.2960013,32 24.8980794,32 L1.13996685,32 C0.743407786,32 0.420437,31.678392 0.420437,31.2804701 L0.420437,0.718167107 C0.420437,0.32160804 0.743407786,0 1.13996685,0 L16.002074,0 C16.0047995,0 16.007525,0 16.0116132,0 C16.0320544,0 16.0524956,0.00136274593 16.0729368,0.00272549187 C16.0852015,0.0040882378 16.0947407,0.00681372967 16.1056427,0.0081764756 C16.1179074,0.00953922153 16.1301721,0.0109019675 16.1424368,0.0136274593 C16.1533388,0.0163529512 16.1656035,0.0190784431 16.179231,0.0218039349 C16.1901329,0.0245294268 16.2010349,0.0272549187 16.2092114,0.0313431565 C16.2214761,0.0340686483 16.2337408,0.0381568861 16.2446428,0.0422451239 C16.2555447,0.0463333617 16.265084,0.0504215995 16.2759859,0.0545098373 C16.2868879,0.0585980751 16.2977899,0.0640490589 16.3086918,0.0695000426 C16.3182311,0.0735882804 16.329133,0.0790392641 16.340035,0.0844902478 C16.350937,0.0899412316 16.3604762,0.0953922153 16.3700154,0.100843199 C16.3795546,0.107656929 16.3904566,0.114470658 16.4013586,0.121284388 C16.4108978,0.128098118 16.4217997,0.134911847 16.4299762,0.143088323 C16.4395154,0.149902053 16.4490547,0.155353036 16.4572311,0.162166766 C16.4763096,0.177156971 16.4926625,0.192147177 16.5090155,0.209862874 C16.5090155,0.209862874 16.5090155,0.209862874 16.5103782,0.209862874 L25.4063837,9.10586832 C25.4240994,9.12222128 25.4404523,9.13993697 25.4554425,9.15765267 C25.4608935,9.16582915 25.4663445,9.17536837 25.4731582,9.18354484 C25.4813347,9.19308406 25.4895112,9.20398603 25.4963249,9.214888 C25.5031386,9.22442722 25.5099524,9.23532919 25.5140406,9.24486841 C25.5208543,9.25577038 25.5263053,9.2653096 25.5331191,9.27484882 C25.53857,9.28575079 25.5426583,9.29665276 25.5481093,9.30619198 C25.5535602,9.31709394 25.5590112,9.32799591 25.5630995,9.33889788 C25.5671877,9.34979985 25.5712759,9.35933907 25.5740014,9.37024104 C25.5780897,9.38250575 25.5821779,9.39340772 25.5862661,9.40567243 C25.5889916,9.41521165 25.5917171,9.42611362 25.5944426,9.43701559 C25.5971681,9.4492803 25.6012564,9.46154501 25.6039818,9.47244698 C25.6067073,9.48607444 25.6080701,9.49697641 25.6094328,9.50924112 C25.6107956,9.52150583 25.6135211,9.53104506 25.6148838,9.54330977 C25.6162466,9.5651137 25.6176093,9.58828038 25.6176093,9.61144707 Z M16.7202411,2.45294268 L16.7202411,8.89464271 L23.1633039,8.89464271 L16.7202411,2.45294268 Z M5.48480971,19.8212759 C5.48480971,20.2191977 5.80641775,20.539443 6.20297682,20.539443 L19.8358871,20.539443 C20.2324462,20.539443 20.555417,20.2191977 20.555417,19.8212759 C20.555417,19.4247168 20.2324462,19.1031088 19.8358871,19.1031088 L6.20297682,19.1031088 C5.80641775,19.1031088 5.48480971,19.4247168 5.48480971,19.8212759 Z M13.0198408,16.705221 C13.8238609,16.705221 14.4752535,16.0538285 14.4752535,15.2511711 C14.4752535,14.447151 13.8238609,13.7957585 13.0198408,13.7957585 C12.2158207,13.7957585 11.5657909,14.447151 11.5657909,15.2511711 C11.5657909,16.0538285 12.2158207,16.705221 13.0198408,16.705221 Z M13.0198408,23.1157142 C12.2158207,23.1157142 11.5657909,23.7671067 11.5657909,24.5711268 C11.5657909,25.3751469 12.2158207,26.0265395 13.0198408,26.0265395 C13.8238609,26.0265395 14.4752535,25.3751469 14.4752535,24.5711268 C14.4752535,23.7671067 13.8238609,23.1157142 13.0198408,23.1157142 Z" id="path-1"></path>
    </defs>
    <g id="Symbols" stroke="none" stroke-width="1" fill="none" fill-rule="evenodd">
        <g id="Bars-/-Toolbar-/-Chamada" transform="translate(-278.000000, -10.000000)">
            <g id="Group-4-Copy-4" transform="translate(277.000000, 10.000000)">
                <g id="↳🎨Colors-/-Accent" transform="translate(1.000000, 0.000000)">
                    <mask id="mask-2" fill="white">
                        <use xlink:href="#path-1"></use>
                    </mask>
                    <use id="toolbar-grades" fill="#757575" xlink:href="#path-1"></use>
                </g>
            </g>
        </g>
    </g>
</svg>