<?xml version="1.0" encoding="UTF-8"?>
<svg width="25px" height="32px" viewBox="0 0 25 32" version="1.1" xmlns="http://www.w3.org/2000/svg" xmlns:xlink="http://www.w3.org/1999/xlink">
    <!-- Generator: sketchtool 51.1 (57501) - http://www.bohemiancoding.com/sketch -->
    <title>31E4818B-A30B-4631-87C1-4AED2523230A</title>
    <desc>Created with sketchtool.</desc>
    <defs>
        <path d="M24.5243999,32 L0,32 L0,0 L14.7505732,0 L14.7505732,8.98329668 C14.7505732,9.42048379 15.1039162,9.77382679 15.539606,9.77382679 L24.5243999,9.77382679 L24.5243999,32 Z M16.3286389,1.11692322 L23.4074767,8.19426379 L16.3286389,8.19426379 L16.3286389,1.11692322 Z M3.98454124,20.1990923 C3.98454124,19.7634024 4.33788425,19.4100594 4.77357414,19.4100594 L19.7517241,19.4100594 C20.187414,19.4100594 20.5422542,19.7634024 20.5422542,20.1990923 C20.5422542,20.6362794 20.187414,20.9881252 19.7517241,20.9881252 L4.77357414,20.9881252 C4.33788425,20.9881252 3.98454124,20.6362794 3.98454124,20.1990923 Z M12.2630983,16.7755579 C11.3797408,16.7755579 10.6655687,16.0598886 10.6655687,15.1780284 C10.6655687,14.2946708 11.3797408,13.5790015 12.2630983,13.5790015 C13.1464558,13.5790015 13.8621251,14.2946708 13.8621251,15.1780284 C13.8621251,16.0598886 13.1464558,16.7755579 12.2630983,16.7755579 Z M12.2630983,23.8186123 C13.1464558,23.8186123 13.8621251,24.5342816 13.8621251,25.4176391 C13.8621251,26.3009966 13.1464558,27.0166659 12.2630983,27.0166659 C11.3797408,27.0166659 10.6655687,26.3009966 10.6655687,25.4176391 C10.6655687,24.5342816 11.3797408,23.8186123 12.2630983,23.8186123 Z" id="path-1"></path>
    </defs>
    <g id="Symbols" stroke="none" stroke-width="1" fill="none" fill-rule="evenodd">
        <g id="Bars-/-Toolbar-/-Notas" transform="translate(-279.000000, -10.000000)">
            <g id="Bars-/-Toolbar-/-Chamada">
                <g id="Group-3" transform="translate(0.000000, 1.000000)">
                    <g id="Group-4-Copy-4" transform="translate(277.000000, 9.000000)">
                        <g id="↳🎨Colors-/-Accent" transform="translate(2.000000, 0.000000)">
                            <mask id="mask-2" fill="white">
                                <use xlink:href="#path-1"></use>
                            </mask>
                            <use id="toolbar-grades-filled" fill="#004F6B" xlink:href="#path-1"></use>
                        </g>
                    </g>
                </g>
            </g>
        </g>
    </g>
</svg>