<?xml version="1.0" encoding="UTF-8"?>
<svg width="24px" height="24px" viewBox="0 0 24 24" version="1.1" xmlns="http://www.w3.org/2000/svg" xmlns:xlink="http://www.w3.org/1999/xlink">
    <!-- Generator: Sketch 52.6 (67491) - http://www.bohemiancoding.com/sketch -->
    <title>🌎Icons / 24x24 / Comportamento THIN</title>
    <desc>Created with Sketch.</desc>
    <defs>
        <path d="M17.9555479,8.07107851 C17.998802,8.02858317 18.0147378,7.96635786 17.9957667,7.90868562 C17.9767955,7.85025453 17.9274706,7.80851804 17.8675218,7.80017074 L14.3821454,7.28491479 L12.8310656,4.125083 C12.804506,4.07120498 12.7491103,4.0362981 12.6899204,4.0362981 L12.6891615,4.0362981 C12.6276951,4.0362981 12.5707817,4.07196383 12.5434633,4.12660069 L10.980242,7.27808518 L7.49486553,7.77740538 C7.4356756,7.78651152 7.38483297,7.82900686 7.36586184,7.88592026 C7.34764955,7.9435925 7.36282645,8.0073355 7.40608064,8.04983084 L9.92241162,10.5145603 L9.3206473,13.984001 C9.31002347,14.0439498 9.33430652,14.1038986 9.38439031,14.141082 C9.43067987,14.1744712 9.4982171,14.1797831 9.54905974,14.1524647 L12.672467,12.5179119 L15.7860092,14.1630885 C15.8277457,14.1858539 15.8740352,14.1896481 15.9150129,14.1729535 C15.9226013,14.1699181 15.9362605,14.1638473 15.9575082,14.1501881 C16.0037978,14.1130047 16.0265631,14.0560913 16.0166981,13.9991779 L15.4301107,10.5229076 L17.9555479,8.07107851 Z M20.872375,14.6335726 L23.9373511,20.1405129 C24.0231006,20.2953173 24.0208241,20.4850286 23.9305215,20.6375565 C23.8409778,20.7900844 23.6770672,20.8834224 23.5002562,20.8834224 L23.4994974,20.8834224 L20.1613369,20.8781105 L18.3924686,23.7609637 C18.3014071,23.9096974 18.1397731,24 17.9667564,24 L17.9553737,24 C17.7785627,23.9962058 17.615411,23.8983147 17.5289026,23.7435103 L14.9389637,19.0887533 C14.1687357,19.2868119 13.3613243,19.3915326 12.5303887,19.3915326 C11.6941412,19.3915326 10.8829356,19.2860531 10.1081545,19.0857179 L7.51669787,23.7435103 C7.4301895,23.8983147 7.26703777,23.9962058 7.09022681,24 L7.07884413,24 C6.90582741,24 6.74419336,23.9096974 6.65313193,23.7609637 L4.88426355,20.8781105 L1.54610312,20.8834224 L1.54534428,20.8834224 C1.36853332,20.8834224 1.20462274,20.7900844 1.115079,20.6375565 C1.02477641,20.4850286 1.02249987,20.2953173 1.10824939,20.1405129 L4.18081397,14.6199134 C3.32559533,13.1758308 2.83386358,11.4919531 2.83386358,9.69576628 C2.83386358,4.34894236 7.18432363,0 12.5303887,0 C17.8764538,0 22.2269138,4.34894236 22.2269138,9.69576628 C22.2269138,11.4980238 21.7321467,13.1864546 20.872375,14.6335726 Z M19.8820819,19.8779524 L22.6488318,19.8825055 L20.2448099,15.5623992 C19.1422077,17.0087583 17.6442471,18.1356436 15.913321,18.7829386 L17.9872452,22.5096278 L19.454852,20.1162298 C19.5459134,19.968255 19.7075475,19.8779524 19.881323,19.8779524 L19.8820819,19.8779524 Z M3.83478052,9.69576628 C3.83478052,14.4901508 7.73524531,18.3913745 12.5303887,18.3913745 C17.3255321,18.3913745 21.2259969,14.4901508 21.2259969,9.69576628 C21.2259969,4.90062289 17.3255321,0.999399247 12.5303887,0.999399247 C7.73524531,0.999399247 3.83478052,4.90062289 3.83478052,9.69576628 Z M18.9473587,7.59983558 C19.0847097,8.02251241 18.9716417,8.47781958 18.6529267,8.78818731 L16.5038768,10.874253 L17.003197,13.8307143 C17.0775639,14.2640149 16.9015118,14.6973156 16.5433368,14.9613937 L16.527401,14.9727764 C16.4408927,15.0304487 16.3581785,15.0744617 16.2716702,15.107092 C16.1396311,15.1586935 16.0007624,15.1829766 15.8618937,15.1829766 C15.6744589,15.1829766 15.4870241,15.1382047 15.3170428,15.0471433 L12.6701904,13.6485914 L10.0149907,15.0380371 C9.62797965,15.2429253 9.14687173,15.2072596 8.79249098,14.9477345 C8.434316,14.6844152 8.25902274,14.2503557 8.33490727,13.812502 L8.84712784,10.8613526 L6.70718412,8.7646631 C6.39074564,8.45733076 6.27767769,8.00126474 6.41502869,7.57707022 C6.55086199,7.16046416 6.91814311,6.85161413 7.35144377,6.78787112 L10.31777,6.36291776 L11.6480258,3.67964081 C11.8460844,3.28655895 12.2520667,3.03538116 12.6861262,3.03538116 L12.6929558,3.03538116 C13.1270153,3.03538116 13.5345152,3.28959433 13.7287796,3.68343504 L15.0484116,6.37278275 L18.0132201,6.80987764 C18.4518327,6.87437949 18.8100077,7.17715876 18.9473587,7.59983558 Z M7.05835531,22.5096278 L9.13455603,18.7776267 C7.40438876,18.128814 5.90718701,16.9988934 4.80762018,15.5510165 L2.39676869,19.8825055 L5.16351862,19.8779524 L5.16427747,19.8779524 C5.33805304,19.8779524 5.49968709,19.968255 5.59074852,20.1162298 L7.05835531,22.5096278 Z" id="path-1"></path>
    </defs>
    <g id="🌎Icons-/-24x24-/-Comportamento-THIN" stroke="none" stroke-width="1" fill="none" fill-rule="evenodd">
        <mask id="mask-2" fill="white">
            <use xlink:href="#path-1"></use>
        </mask>
        <use id="Mask" fill="#7EA7C6" xlink:href="#path-1"></use>
    </g>
</svg>