<?xml version="1.0" encoding="UTF-8"?>
<svg width="31px" height="32px" viewBox="0 0 31 32" version="1.1" xmlns="http://www.w3.org/2000/svg" xmlns:xlink="http://www.w3.org/1999/xlink">
    <!-- Generator: sketchtool 49.3 (51167) - http://www.bohemiancoding.com/sketch -->
    <title>22E94D52-CB7C-47B8-90F4-73F3E45283BA</title>
    <desc>Created with sketchtool.</desc>
    <defs>
        <path d="M46.5465965,10.761438 L43.179347,14.0305435 L43.9614635,18.6655706 C43.9746169,18.7414551 43.944263,18.8173396 43.8825436,18.8669175 C43.8542134,18.8851298 43.8360011,18.8932241 43.8258832,18.8972713 C43.7712463,18.9195308 43.7095269,18.9144718 43.6538782,18.884118 L39.5024886,16.6905492 L35.3379457,18.8699529 C35.2701555,18.9063775 35.1801058,18.8992949 35.1183864,18.854776 C35.051608,18.8051981 35.0192306,18.7252664 35.0333957,18.6453347 L35.8357482,14.0194138 L32.4806402,10.7331078 C32.4229679,10.6764473 32.4027321,10.5914567 32.4270151,10.5145603 C32.45231,10.4386758 32.5201001,10.3820154 32.5990201,10.3698738 L37.2461886,9.70411357 L39.3304837,5.50213425 C39.3669082,5.4292851 39.4427928,5.3817308 39.5247481,5.3817308 L39.5257599,5.3817308 C39.6046798,5.3817308 39.6785407,5.42827331 39.7139535,5.50011066 L41.7820599,9.71321972 L46.4292284,10.4002277 C46.5091601,10.4113574 46.5749267,10.467006 46.6002216,10.5449142 C46.6255164,10.6218105 46.6042687,10.7047776 46.5465965,10.761438 M50.4356993,19.5114301 L54.5223341,26.8540171 C54.6366668,27.0604231 54.6336315,27.3133715 54.513228,27.516742 C54.3938363,27.7201126 54.1752889,27.8445632 53.939541,27.8445632 L53.9385292,27.8445632 L49.4876486,27.8374806 L47.1291574,31.681285 C47.0077422,31.8795965 46.7922301,32 46.5615412,32 L46.5463642,32 C46.3106163,31.994941 46.0930807,31.8644196 45.9777362,31.6580137 L42.5244842,25.451671 C41.4975136,25.7157492 40.4209651,25.8553767 39.3130509,25.8553767 C38.1980543,25.8553767 37.1164468,25.7147374 36.0834054,25.4476239 L32.6281298,31.6580137 C32.5127853,31.8644196 32.2952497,31.994941 32.0595018,32 L32.0443249,32 C31.8136359,32 31.5981238,31.8795965 31.4767086,31.681285 L29.1182174,27.8374806 L24.6673368,27.8445632 L24.666325,27.8445632 C24.4305771,27.8445632 24.2120297,27.7201126 24.092638,27.516742 C23.9722345,27.3133715 23.9691992,27.0604231 24.0835319,26.8540171 L28.1802846,19.4932178 C27.0399931,17.5677744 26.3843508,15.3226041 26.3843508,12.9276884 C26.3843508,5.79858981 32.1849642,0 39.3130509,0 C46.4411377,0 52.2417511,5.79858981 52.2417511,12.9276884 C52.2417511,15.3306985 51.5820616,17.5819395 50.4356993,19.5114301 Z M49.1153085,26.5039365 L52.8043084,26.5100073 L49.5989459,20.7498656 C48.1288096,22.6783445 46.1315288,24.1808581 43.8236273,25.0439182 L46.5888596,30.0128371 L48.5456686,26.8216397 C48.6670839,26.62434 48.8825959,26.5039365 49.1142967,26.5039365 L49.1153085,26.5039365 Z M27.7189067,12.9276884 C27.7189067,19.3202011 32.9195264,24.5218326 39.3130509,24.5218326 C45.7065755,24.5218326 50.9071952,19.3202011 50.9071952,12.9276884 C50.9071952,6.53416385 45.7065755,1.33253233 39.3130509,1.33253233 C32.9195264,1.33253233 27.7189067,6.53416385 27.7189067,12.9276884 Z M47.8690109,10.1331141 C48.0521455,10.6966832 47.9013883,11.3037594 47.4764349,11.7175831 L44.6110351,14.499004 L45.2767954,18.4409524 C45.3759512,19.0186866 45.141215,19.5964208 44.6636484,19.948525 L44.6424007,19.9637019 C44.5270562,20.0405982 44.4167707,20.0992823 44.3014262,20.1427894 C44.1253741,20.2115914 43.9402159,20.2439688 43.7550576,20.2439688 C43.5051446,20.2439688 43.2552315,20.1842729 43.0285897,20.0628577 L39.4994532,18.1981219 L35.959187,20.0507162 C35.4431722,20.3239005 34.801695,20.2763462 34.3291873,19.9303127 C33.8516207,19.5792203 33.6178963,19.0004743 33.7190757,18.4166693 L34.4020365,14.4818035 L31.5487782,11.6862175 C31.1268602,11.276441 30.9761029,10.668353 31.1592376,10.1027603 C31.3403487,9.54728555 31.8300568,9.1354855 32.407791,9.05049483 L36.3628927,8.48389035 L38.1365671,4.90618775 C38.4006452,4.3820786 38.9419549,4.04717488 39.5207009,4.04717488 L39.529807,4.04717488 C40.108553,4.04717488 40.6518863,4.38612578 40.9109055,4.91124672 L42.6704147,8.49704367 L46.6234928,9.07983685 C47.2083096,9.16583931 47.6858762,9.56954501 47.8690109,10.1331141 Z M32.0170064,30.0128371 L34.785274,25.0368356 C32.4783844,24.171752 30.4821153,22.6651911 29.0160262,20.7346887 L25.8015576,26.5100073 L29.4905575,26.5039365 L29.4915693,26.5039365 C29.7232701,26.5039365 29.9387821,26.62434 30.0601974,26.8216397 L32.0170064,30.0128371 Z" id="path-1"></path>
    </defs>
    <g id="Symbols" stroke="none" stroke-width="1" fill="none" fill-rule="evenodd">
        <g id="Bars-/-Toolbar-/-Conteudo" transform="translate(-255.000000, -9.000000)">
            <g id="Group-3">
                <g id="Group-4" transform="translate(231.000000, 9.000000)">
                    <mask id="mask-2" fill="white">
                        <use xlink:href="#path-1"></use>
                    </mask>
                    <use id="Mask" fill="#757575" xlink:href="#path-1"></use>
                </g>
            </g>
        </g>
    </g>
</svg>