<?xml version="1.0" encoding="UTF-8"?>
<svg width="30px" height="32px" viewBox="0 0 30 32" version="1.1" xmlns="http://www.w3.org/2000/svg" xmlns:xlink="http://www.w3.org/1999/xlink">
    <!-- Generator: sketchtool 49.3 (51167) - http://www.bohemiancoding.com/sketch -->
    <title>14F99BC8-5ABF-4647-BF64-C9FFAA120102</title>
    <desc>Created with sketchtool.</desc>
    <defs></defs>
    <g id="Symbols" stroke="none" stroke-width="1" fill="none" fill-rule="evenodd">
        <g id="Bars-/-Toolbar-/-Comportamento" transform="translate(-255.000000, -9.000000)" fill="#004F6B" fill-rule="nonzero">
            <g id="Group-3">
                <g id="Group-4" transform="translate(230.000000, 9.000000)">
                    <path d="M52.8930062,12.9374268 C52.8930062,5.80380639 47.114582,0 40.0113823,0 C32.9081826,0 27.1291261,5.80380639 27.1291261,12.9374268 C27.1291261,20.0710473 32.9081826,25.8742186 40.0113823,25.8742186 C47.114582,25.8742186 52.8930062,20.067872 52.8930062,12.9374268 Z M47.827874,10.4886384 L44.0830909,14.1364187 L44.9525737,19.3058009 C44.9664099,19.3911958 44.9323993,19.4773184 44.8640445,19.5299768 C44.8441741,19.5435244 44.8229875,19.5550142 44.8008094,19.56427 C44.7384359,19.587104 44.6692828,19.5817796 44.6111041,19.5496636 L39.9987353,17.1027804 L35.3705577,19.5363274 C35.2911632,19.5771484 35.195609,19.5693622 35.1238058,19.5162209 C35.0520025,19.4630796 35.0163028,19.3737253 35.0316176,19.285479 L35.9232326,14.1237175 L32.195523,10.4562504 C32.1312507,10.3931214 32.1084267,10.2987233 32.1367143,10.2130227 C32.1650212,10.1280287 32.2382249,10.0660293 32.3264196,10.0523527 L37.4889339,9.30933339 L39.8046035,4.62005596 C39.8458636,4.53831212 39.928985,4.4864142 40.0202352,4.48542341 C40.1089605,4.48665274 40.1895351,4.53765663 40.2289111,4.61751573 L42.5268749,9.3169541 L47.6893891,10.0822005 C47.7782062,10.0951511 47.852009,10.1576008 47.8797853,10.2433082 C47.9075617,10.3290156 47.8844981,10.4231275 47.8202858,10.4860982 L47.827874,10.4886384 Z M28.5702542,21.6485344 C30.2144675,23.8229787 32.4366516,25.4869585 34.9810295,26.4489472 L31.9052738,32 L29.7306184,28.440493 C29.5957091,28.2197112 29.3562019,28.0852533 29.0982674,28.0854949 L25,28.0918454 L28.5702542,21.6485344 Z M51.4392311,21.665681 L55,28.0918454 L50.9017326,28.0854949 C50.6437981,28.0852533 50.4042909,28.2197112 50.2693816,28.440493 L48.0947262,32 L45.0227646,26.4559328 C47.5679459,25.4976118 49.7920545,23.8371901 51.4392311,21.665681 Z" id="Combined-Shape"></path>
                </g>
            </g>
        </g>
    </g>
</svg>