<?xml version="1.0" encoding="UTF-8"?>
<svg width="100px" height="100px" viewBox="0 0 100 100" version="1.1" xmlns="http://www.w3.org/2000/svg" xmlns:xlink="http://www.w3.org/1999/xlink">
    <!-- Generator: sketchtool 48.2 (47327) - http://www.bohemiancoding.com/sketch -->
    <title>27441E93-8AE2-498E-884C-C16A8D7D03FB</title>
    <desc>Created with sketchtool.</desc>
    <defs>
        <path d="M63.2748684,40.1776963 L56.9612756,46.3072691 L58.4277441,54.9979448 C58.4524066,55.1402283 58.3954932,55.2825118 58.2797693,55.3754703 C58.2266501,55.4096184 58.1925021,55.4247953 58.173531,55.4323837 C58.0710868,55.4741202 57.9553629,55.4646346 57.8510217,55.4077213 L50.0671661,51.2947798 L42.2586481,55.3811617 C42.1315415,55.4494577 41.9626984,55.4361779 41.8469745,55.352705 C41.7217651,55.2597464 41.6610574,55.1098745 41.687617,54.9600025 L43.1920278,46.2864009 L36.9012003,40.1245771 C36.7930649,40.0183388 36.7551226,39.8589813 36.8006533,39.7148006 C36.8480812,39.5725172 36.9751878,39.4662788 37.1231626,39.4435135 L45.8366036,38.195213 L49.7446569,30.3165017 C49.812953,30.1799096 49.9552365,30.0907452 50.1089026,30.0907452 L50.1107997,30.0907452 C50.2587746,30.0907452 50.3972638,30.1780125 50.4636628,30.3127075 L54.3413622,38.212287 L63.0548033,39.5004269 C63.2046752,39.5212951 63.3279876,39.6256363 63.3754154,39.771714 C63.4228432,39.9158946 63.3830039,40.0714579 63.2748684,40.1776963 M70.5669362,56.5839315 L78.2293765,70.3512821 C78.4437503,70.7382932 78.438059,71.2125715 78.2123025,71.5938913 C77.9884431,71.9752111 77.5786667,72.208556 77.1366393,72.208556 L77.1347422,72.208556 L68.7893411,72.1952762 L64.3671702,79.4024093 C64.1395166,79.7742435 63.7354315,80 63.3028897,80 L63.274433,80 C62.8324056,79.9905144 62.4245262,79.7457868 62.2082553,79.3587757 L55.7334079,67.7218832 C53.807838,68.2170298 51.7893095,68.4788314 49.7119705,68.4788314 C47.6213517,68.4788314 45.5933377,68.2151326 43.6563851,67.7142947 L37.1777434,79.3587757 C36.9614725,79.7457868 36.5535932,79.9905144 36.1115658,80 L36.0831091,80 C35.6505673,80 35.2464822,79.7742435 35.0188286,79.4024093 L30.5966576,72.1952762 L22.2512566,72.208556 L22.2493595,72.208556 C21.8073321,72.208556 21.3975556,71.9752111 21.1736963,71.5938913 C20.9479398,71.2125715 20.9422484,70.7382932 21.1566222,70.3512821 L28.8380337,56.5497834 C26.6999871,52.9395769 25.4706577,48.7298827 25.4706577,44.2394157 C25.4706577,30.8723559 36.3468078,20 49.7119705,20 C63.0771332,20 73.9532833,30.8723559 73.9532833,44.2394157 C73.9532833,48.7450596 72.7163655,52.9661365 70.5669362,56.5839315 Z M68.0912034,69.694881 L75.0080783,69.7062636 L68.9980236,58.905998 C66.2415181,62.5218958 62.4966165,65.339109 58.1693013,66.9573466 L63.3541117,76.2740696 L67.0231287,70.2905745 C67.2507823,69.9206374 67.6548674,69.694881 68.0893063,69.694881 L68.0912034,69.694881 Z M27.9729501,44.2394157 C27.9729501,56.2253771 37.724112,65.9784361 49.7119705,65.9784361 C61.699829,65.9784361 71.450991,56.2253771 71.450991,44.2394157 C71.450991,32.2515572 61.699829,22.4984981 49.7119705,22.4984981 C37.724112,22.4984981 27.9729501,32.2515572 27.9729501,44.2394157 Z M65.7543954,38.999589 C66.0977729,40.056281 65.815103,41.194549 65.0183155,41.9704683 L59.6456908,47.1856325 L60.8939913,54.5767857 C61.0799084,55.6600373 60.6397781,56.743289 59.7443407,57.4034844 L59.7045013,57.4319411 C59.4882304,57.5761217 59.2814451,57.6861542 59.0651742,57.7677301 C58.7350765,57.8967338 58.3879047,57.9574414 58.040733,57.9574414 C57.5721461,57.9574414 57.1035591,57.8455117 56.6786057,57.6178582 L50.0614748,54.1214785 L43.4234756,57.5950928 C42.4559479,58.1073134 41.2531781,58.018149 40.3672262,57.3693363 C39.4717888,56.711038 39.0335556,55.6258893 39.2232669,54.5312549 L40.5038184,47.1533816 L35.1539591,41.9116578 C34.3628629,41.1433269 34.080193,40.0031619 34.4235705,38.9426756 C34.7631537,37.9011604 35.6813565,37.1290353 36.7646082,36.9696778 L44.1804238,35.9072944 L47.5060633,29.199102 C48.0012098,28.2163974 49.0161654,27.5884529 50.1013142,27.5884529 L50.1183882,27.5884529 C51.203537,27.5884529 52.2222868,28.2239858 52.7079477,29.2085876 L56.0070276,35.9319569 L63.419049,37.0246941 C64.5155805,37.1859487 65.4110179,37.9428969 65.7543954,38.999589 Z M36.031887,76.2740696 L41.2223888,66.9440668 C36.8969707,65.322035 33.1539663,62.4972334 30.4050492,58.8775413 L24.3779205,69.7062636 L31.2947953,69.694881 L31.2966924,69.694881 C31.7311314,69.694881 32.1352165,69.9206374 32.3628701,70.2905745 L36.031887,76.2740696 Z" id="path-1"></path>
    </defs>
    <g id="Page-1" stroke="none" stroke-width="1" fill="none" fill-rule="evenodd">
        <g id="🌎Icons-/-110x110-/-Conteudo-Copy">
            <path d="M70.5669362,56.5839315 L78.2293765,70.3512821 C78.4437503,70.7382932 78.438059,71.2125715 78.2123025,71.5938913 C77.9884431,71.9752111 77.5786667,72.208556 77.1366393,72.208556 L77.1347422,72.208556 L68.7893411,72.1952762 L64.3671702,79.4024093 C64.1395166,79.7742435 63.7354315,80 63.3028897,80 L63.274433,80 C62.8324056,79.9905144 62.4245262,79.7457868 62.2082553,79.3587757 L55.7334079,67.7218832 C53.807838,68.2170298 51.7893095,68.4788314 49.7119705,68.4788314 C47.6213517,68.4788314 45.5933377,68.2151326 43.6563851,67.7142947 L37.1777434,79.3587757 C36.9614725,79.7457868 36.5535932,79.9905144 36.1115658,80 L36.0831091,80 C35.6505673,80 35.2464822,79.7742435 35.0188286,79.4024093 L30.5966576,72.1952762 L22.2512566,72.208556 L22.2493595,72.208556 C21.8073321,72.208556 21.3975556,71.9752111 21.1736963,71.5938913 C20.9479398,71.2125715 20.9422484,70.7382932 21.1566222,70.3512821 L28.8380337,56.5497834 C26.6999871,52.9395769 25.4706577,48.7298827 25.4706577,44.2394157 C25.4706577,30.8723559 36.3468078,20 49.7119705,20 C63.0771332,20 73.9532833,30.8723559 73.9532833,44.2394157 C73.9532833,48.7450596 72.7163655,52.9661365 70.5669362,56.5839315 Z M63.2748684,40.1776963 C63.3830039,40.0714579 63.4228432,39.9158946 63.3754154,39.771714 C63.3279876,39.6256363 63.2046752,39.5212951 63.0548033,39.5004269 L54.3413622,38.212287 L50.4636628,30.3127075 C50.3972638,30.1780125 50.2587746,30.0907452 50.1107997,30.0907452 L50.1089026,30.0907452 C49.9552365,30.0907452 49.812953,30.1799096 49.7446569,30.3165017 L45.8366036,38.195213 L37.1231626,39.4435135 C36.9751878,39.4662788 36.8480812,39.5725172 36.8006533,39.7148006 C36.7551226,39.8589813 36.7930649,40.0183388 36.9012003,40.1245771 L43.1920278,46.2864009 L41.687617,54.9600025 C41.6610574,55.1098745 41.7217651,55.2597464 41.8469745,55.352705 C41.9626984,55.4361779 42.1315415,55.4494577 42.2586481,55.3811617 L50.0671661,51.2947798 L57.8510217,55.4077213 C57.9553629,55.4646346 58.0710868,55.4741202 58.173531,55.4323837 C58.1925021,55.4247953 58.2266501,55.4096184 58.2797693,55.3754703 C58.3954932,55.2825118 58.4524066,55.1402283 58.4277441,54.9979448 L56.9612756,46.3072691 L63.2748684,40.1776963 Z" id="Combined-Shape" fill="#C4E0EA"></path>
            <path d="M68.0912034,69.694881 L68.0893063,69.694881 C67.6548674,69.694881 67.2507823,69.9206374 67.0231287,70.2905745 L63.3541117,76.2740696 L58.1693013,66.9573466 C62.4966165,65.339109 66.2415181,62.5218958 68.9980236,58.905998 L75.0080783,69.7062636 L68.0912034,69.694881 Z" id="Fill-10-Copy-4" fill="#7EA7C6"></path>
            <path d="M36.031887,76.2740696 L32.3628701,70.2905745 C32.1352165,69.9206374 31.7311314,69.694881 31.2966924,69.694881 L31.2947953,69.694881 L24.3779205,69.7062636 L30.4050492,58.8775413 C33.1539663,62.4972334 36.8969707,65.322035 41.2223888,66.9440668 L36.031887,76.2740696 Z" id="Fill-10-Copy-4" fill="#7EA7C6"></path>
            <mask id="mask-2" fill="white">
                <use xlink:href="#path-1"></use>
            </mask>
            <use id="Mask" fill="#004F6B" xlink:href="#path-1"></use>
            <ellipse id="Oval-6" fill="#C4E0EA" transform="translate(90.761461, 90.774704) rotate(180.000000) translate(-90.761461, -90.774704) " cx="90.7614608" cy="90.7747036" rx="4.69308469" ry="4.6798419"></ellipse>
            <ellipse id="Oval-6-Copy" fill="#C4E0EA" transform="translate(88.562549, 9.478261) rotate(180.000000) translate(-88.562549, -9.478261) " cx="88.5625486" cy="9.47826087" rx="2.34654235" ry="2.33992095"></ellipse>
            <ellipse id="Oval-6-Copy-2" fill="#C4E0EA" transform="translate(11.025641, 11.035573) rotate(180.000000) translate(-11.025641, -11.035573) " cx="11.025641" cy="11.0355731" rx="3.51981352" ry="3.50988142"></ellipse>
            <ellipse id="Oval-3" stroke="#7EA7C6" stroke-dasharray="4" transform="translate(50.000000, 50.133393) rotate(180.000000) translate(-50.000000, -50.133393) " cx="50" cy="50.1333927" rx="47.2727273" ry="47.1393346"></ellipse>
        </g>
    </g>
</svg>