<?xml version="1.0" encoding="UTF-8"?>
<svg width="24px" height="24px" viewBox="0 0 24 24" version="1.1" xmlns="http://www.w3.org/2000/svg" xmlns:xlink="http://www.w3.org/1999/xlink">
    <!-- Generator: sketchtool 48.2 (47327) - http://www.bohemiancoding.com/sketch -->
    <title>1DBE0374-AAE7-4441-A09A-E18B746E0365</title>
    <desc>Created with sketchtool.</desc>
    <defs></defs>
    <g id="Symbols" stroke="none" stroke-width="1" fill="none" fill-rule="evenodd">
        <g id="🌎Icons-/-24x24-/-Elogio" fill="#267C77">
            <path d="M11.9855944,16.8322143 L16.9101005,19.4053571 C16.9759619,19.4406429 17.0486838,19.4460714 17.113173,19.4202857 C17.125522,19.4162143 17.1474757,19.4053571 17.1804064,19.385 C17.2545004,19.3266429 17.2901753,19.2370714 17.2737099,19.1488571 L16.3475351,13.7121429 L20.3403779,9.87685714 C20.4089834,9.81035714 20.4336814,9.71264286 20.4048671,9.62307143 C20.3746807,9.53078571 20.2964703,9.46564286 20.2004226,9.45342857 L14.6900251,8.64728571 L12.2380628,3.70457143 C12.1941553,3.62042857 12.1077123,3.56614286 12.0144087,3.56614286 C11.9142446,3.56342857 11.8250574,3.62178571 11.782522,3.70592857 L9.30997807,8.63642857 L3.79820843,9.41814286 C3.70490489,9.43171429 3.62395034,9.49821429 3.59513601,9.58642857 C3.56494957,9.67871429 3.58964757,9.77642857 3.65825312,9.84292857 L7.63600272,13.6972143 L6.68512984,19.1244286 C6.66866451,19.2194286 6.70708362,19.3130714 6.78666605,19.3700714 C6.86076004,19.423 6.9677847,19.4311429 7.04736713,19.3890714 L11.9855944,16.8322143 Z M17.0294742,21 C16.7330982,21 16.4367223,20.9294286 16.1691606,20.7882857 L11.9814781,18.6005714 L7.78281859,20.772 C7.17085712,21.0936429 6.41207977,21.0393571 5.84951428,20.6308571 C5.28420458,20.2196429 5.00703817,19.5410714 5.12641182,18.8570714 L5.93595727,14.2414286 L2.5523317,10.9625714 C2.05288332,10.4794286 1.8745089,9.76692857 2.08993032,9.10464286 C2.30535173,8.45185714 2.88575466,7.96871429 3.57181013,7.86964286 L8.26168531,7.20464286 L10.3665035,3.007 C10.6793448,2.39221429 11.3214927,2 12.0075482,2 L12.0185251,2 C12.7045805,2 13.3494727,2.39764286 13.6568255,3.01378571 L15.7424341,7.21957143 L20.4309372,7.90492857 C21.1252253,8.00535714 21.6919072,8.479 21.9087007,9.13992857 C22.1268663,9.7995 21.9471198,10.5133571 21.4435551,10.9978571 L18.0448363,14.2617857 L18.8338001,18.8855714 C18.9518016,19.5627857 18.6732631,20.2413571 18.1065813,20.6525714 L18.0818833,20.6702143 C17.9460443,20.7625 17.8129495,20.8303571 17.6771106,20.8819286 C17.4685497,20.962 17.249012,21 17.0294742,21 Z" id="Fill-1"></path>
        </g>
    </g>
</svg>