<?xml version="1.0" encoding="UTF-8"?>
<svg width="24px" height="24px" viewBox="0 0 24 24" version="1.1" xmlns="http://www.w3.org/2000/svg" xmlns:xlink="http://www.w3.org/1999/xlink">
    <!-- Generator: Sketch 52.6 (67491) - http://www.bohemiancoding.com/sketch -->
    <title>🌎Icons / 24x24 / Portal Web</title>
    <desc>Created with Sketch.</desc>
    <defs>
        <path d="M15.1513903,22.4222451 C15.6601442,21.8661174 16.1277034,21.1678682 16.5427394,20.3398558 C16.8671473,19.6910402 17.1483007,18.9814624 17.3851699,18.2245108 L20.9289392,18.2245108 C19.5437693,20.2059732 17.5169928,21.7064882 15.1513903,22.4222451 Z M3.07106076,18.2245108 L6.61483007,18.2245108 C6.85066941,18.9814624 7.13285273,19.6910402 7.45726056,20.3398558 C7.8722966,21.1678682 8.33985582,21.8661174 8.84860968,22.4222451 C6.48403708,21.7064882 4.45623069,20.2059732 3.07106076,18.2245108 Z M8.84860968,1.57466529 C8.33985582,2.13182286 7.8722966,2.83007209 7.45726056,3.65808445 C7.13285273,4.30587024 6.85066941,5.01647786 6.61483007,5.77342945 L3.07106076,5.77342945 C4.45623069,3.79196704 6.48403708,2.29145211 8.84860968,1.57466529 Z M20.9289392,5.77342945 L17.3851699,5.77342945 C17.1483007,5.01647786 16.8671473,4.30587024 16.5427394,3.65808445 C16.1277034,2.83007209 15.6601442,2.13182286 15.1513903,1.57466529 C17.5169928,2.29145211 19.5437693,3.79196704 20.9289392,5.77342945 Z M18.2718847,11.5468589 C18.2420185,9.91040165 18.0432544,8.32852729 17.6930999,6.88362513 L21.6107106,6.88362513 C22.3594233,8.28424305 22.8105046,9.86714727 22.8795057,11.5468589 L18.2718847,11.5468589 Z M18.2677652,12.6580844 L22.869207,12.6580844 C22.7723996,14.2605561 22.3285273,15.7713697 21.6096807,17.1143151 L17.6930999,17.1143151 C18.0278064,15.7291452 18.2245108,14.2203913 18.2677652,12.6580844 Z M5.72811535,11.5468589 L1.12049434,11.5468589 C1.18949537,9.86714727 1.64057673,8.28424305 2.38928939,6.88362513 L6.3069001,6.88362513 C5.95674562,8.32852729 5.75901133,9.91040165 5.72811535,11.5468589 Z M16.5489186,6.88362513 C16.9196704,8.31204943 17.1297631,9.89598352 17.161689,11.5468589 L6.83831102,11.5468589 C6.87023687,9.89598352 7.08032956,8.31204943 7.45005149,6.88362513 L16.5489186,6.88362513 Z M12,1.10916581 C13.3069001,1.10916581 14.5684861,2.19052523 15.5499485,4.15447992 C15.800206,4.65602472 16.0236869,5.19773429 16.2183316,5.77342945 L7.78166838,5.77342945 C7.97631308,5.19773429 8.19979403,4.65602472 8.45005149,4.15447992 C9.4315139,2.19052523 10.6930999,1.10916581 12,1.10916581 Z M1.130793,12.6580844 L5.73223481,12.6580844 C5.77548919,14.2203913 5.97219361,15.7291452 6.3069001,17.1143151 L2.38928939,17.1143151 C1.67147271,15.7713697 1.22657055,14.2605561 1.130793,12.6580844 Z M7.45005149,17.1143151 C7.09680742,15.7466529 6.88877446,14.2337796 6.84346035,12.6580844 L17.1565396,12.6580844 C17.1112255,14.2337796 16.9031926,15.7466529 16.5489186,17.1143151 L7.45005149,17.1143151 Z M12,22.8877446 C10.6930999,22.8877446 9.4315139,21.8063852 8.45005149,19.8434604 C8.19979403,19.3419156 7.97631308,18.7991761 7.78166838,18.2245108 L16.2183316,18.2245108 C16.0236869,18.7991761 15.800206,19.3419156 15.5499485,19.8434604 C14.5684861,21.8063852 13.3069001,22.8877446 12,22.8877446 Z M20.4850669,3.51390319 C18.2193615,1.24716787 15.2059732,0 12,0 C8.79505664,0 5.78063852,1.24716787 3.51493306,3.51390319 C1.24819773,5.78063852 0,8.79402678 0,11.9989701 C0,15.2039135 1.24819773,18.2173018 3.51493306,20.4840371 C5.78063852,22.7497425 8.79505664,23.9979403 12,23.9979403 C15.2059732,23.9979403 18.2193615,22.7497425 20.4850669,20.4840371 C22.7518023,18.2173018 24,15.2039135 24,11.9989701 C24,8.79402678 22.7518023,5.78063852 20.4850669,3.51390319 Z" id="path-1"></path>
    </defs>
    <g id="🌎Icons-/-24x24-/-Portal-Web" stroke="none" stroke-width="1" fill="none" fill-rule="evenodd">
        <mask id="mask-2" fill="white">
            <use xlink:href="#path-1"></use>
        </mask>
        <use id="Mask" fill="#7EA7C6" xlink:href="#path-1"></use>
    </g>
</svg>