<?xml version="1.0" encoding="UTF-8"?>
<svg width="112px" height="120px" viewBox="0 0 112 120" version="1.1" xmlns="http://www.w3.org/2000/svg" xmlns:xlink="http://www.w3.org/1999/xlink">
    <!-- Generator: sketchtool 49.2 (51160) - http://www.bohemiancoding.com/sketch -->
    <title>5ABFA144-42FE-4742-A03C-2D413AF0AA4D</title>
    <desc>Created with sketchtool.</desc>
    <defs>
        <polygon id="path-1" points="0.496814371 0.186538922 32.8081437 0.186538922 32.8081437 60.5745629 0.496814371 60.5745629"></polygon>
        <polygon id="path-3" points="0 0.143173653 14.7599387 0.143173653 14.7599387 14.9054141 0 14.9054141"></polygon>
    </defs>
    <g id="Primeiro-acesso---MVP" stroke="none" stroke-width="1" fill="none" fill-rule="evenodd">
        <g id="Splash-Screen" transform="translate(-104.000000, -224.000000)">
            <g id="Logo" transform="translate(104.000000, 224.000000)">
                <g id="Group-3" transform="translate(78.323353, 32.192335)">
                    <mask id="mask-2" fill="white">
                        <use xlink:href="#path-1"></use>
                    </mask>
                    <g id="Clip-2"></g>
                    <path d="M21.7289102,0.186538922 L13.3310659,5.59731737 C19.2915449,12.3762395 22.5171737,20.7216287 22.9389701,29.1992335 L13.1399281,29.1992335 L13.1399281,36.958994 L2.09130539,36.958994 C0.919329341,36.958994 0.496814371,37.3621078 0.496814371,38.2653413 C0.496814371,41.9551617 3.32148503,46.7587545 10.4496287,48.4301317 C11.1796886,48.5839042 11.5447186,48.9295329 11.5447186,49.5827066 C11.5447186,52.3218683 10.1765749,55.5446228 8.23214371,57.8979162 L22.778012,60.5745629 C36.4738204,42.7362395 36.1626826,17.6253413 21.7289102,0.186538922" id="Fill-1" fill="#FEFEFE" mask="url(#mask-2)"></path>
                </g>
                <path d="M61.5838563,34.2468503 L50.1019401,46.5996647 C53.209006,48.357988 55.7836168,50.9484072 57.5067305,54.0784671 L76.8418204,41.620024 C74.7587066,39.9651737 72.4700838,38.5007425 69.9752335,37.2533174 C67.2446946,35.9045749 64.4322395,34.9014611 61.5838563,34.2468503" id="Fill-4" fill="#F08626"></path>
                <path d="M69.8950419,25.305485 C73.256479,25.9313533 76.5927665,27.0192575 79.7831856,28.6065629 C82.9067784,30.1687186 85.7314491,32.0836886 88.2212695,34.2868024 L96.7613892,28.7840479 C91.1659401,23.2460838 84.5515689,19.3579401 77.5197126,17.1023713 L69.8950419,25.305485 Z" id="Fill-6" fill="#F08626"></path>
                <polygon id="Fill-8" fill="#F08626" points="45.2527186 101.884383 25.1969102 98.1938443 23.3207425 108.390251 43.3794251 112.08079"></polygon>
                <polygon id="Fill-10" fill="#F08626" points="85.640982 119.856862 87.5171497 109.661892 62.5427784 105.066683 60.5394251 115.23794"></polygon>
                <path d="M99.2571737,97.3119521 L65.2626826,91.0575808 C64.6332216,90.9411737 64.0770539,90.579018 63.7163353,90.0515928 C63.3548982,89.5248862 63.2183713,88.8753054 63.3376527,88.2472814 L65.8260359,75.1608144 C66.0574132,73.8997365 65.7829222,72.6106347 65.0471138,71.545006 C64.3127425,70.4786587 63.2061557,69.7622515 61.9321437,69.5272814 L59.0126228,68.9897964 C56.5817246,76.7941078 49.2897485,82.476503 40.6957365,82.476503 C40.5383713,82.476503 18.0337006,82.4700359 18.0337006,82.4700359 C19.6454371,86.2367425 21.7680719,89.8266826 24.404479,93.1629701 L97.5261557,106.620934 C100.085677,107.084407 102.568311,105.397222 103.045437,102.832671 C103.523281,100.265246 101.823162,97.790515 99.2571737,97.3119521" id="Fill-12" fill="#FEFEFE"></path>
                <path d="M69.8950419,25.305485 L61.5841437,34.2465629 C64.4318084,34.9011737 67.244982,35.9042874 69.975521,37.2530299 C72.4696527,38.5004551 74.758994,39.9648862 76.8413892,41.6197365 L88.2212695,34.2868024 C85.7314491,32.0836886 82.9067784,30.1687186 79.7831856,28.6065629 C76.5927665,27.0192575 73.256479,25.9313533 69.8950419,25.305485" id="Fill-14" fill="#FEFEFE"></path>
                <path d="M40.6960958,48.9205509 C32.7689102,48.9205509 26.3198084,55.3703713 26.3198084,63.2961198 C26.3198084,64.6225868 25.2448383,65.6982754 23.9176527,65.6982754 C22.5911856,65.6982754 21.5162156,64.6225868 21.5162156,63.2961198 C21.5162156,52.7203114 30.1202874,44.1169581 40.6960958,44.1169581 C42.2898683,44.1169581 43.8311856,44.3339641 45.3128623,44.7025868 L79.9605269,7.41779641 C72.6347784,5.15576048 64.6896287,4.26905389 56.4017246,5.1262994 C43.658012,6.44414371 32.0467545,11.9497725 23.0194491,20.2362395 L14.0496287,11.2577964 L14.0496287,11.258515 C13.6960958,12.0043832 13.2196886,12.7057006 12.6031617,13.3222275 C12.0290299,13.8963593 11.3823234,14.3512096 10.6946587,14.6961198 C10.6939401,14.6968383 10.6932216,14.6968383 10.6932216,14.6968383 C14.6812455,18.6884551 19.5933413,23.6034251 19.6163353,23.6257006 C11.6891497,32.1880958 6.27765269,43.1073772 4.66232335,55.1993533 C3.62040719,63.0007904 4.10543713,70.6060599 5.90759281,77.6666587 L40.6960958,77.6731257 C48.6232814,77.6731257 55.0723832,71.224024 55.0723832,63.2961198 C55.0723832,55.3703713 48.6232814,48.9205509 40.6960958,48.9205509" id="Fill-16" fill="#FEFEFE"></path>
                <g id="Group-20" transform="translate(0.000000, 0.575569)">
                    <mask id="mask-4" fill="white">
                        <use xlink:href="#path-3"></use>
                    </mask>
                    <g id="Clip-19"></g>
                    <path d="M12.6033772,12.7465868 C13.2199042,12.1300599 13.6963114,11.4287425 14.0491257,10.6828743 L14.0498443,10.6821557 C15.3461317,7.94227545 14.8697246,4.57221557 12.6033772,2.30586826 C9.71978443,-0.577724551 5.04553293,-0.577724551 2.16265868,2.30586826 C-0.720934132,5.18874251 -0.720934132,9.86299401 2.16265868,12.7465868 C4.4714012,15.0553293 7.9262515,15.5101796 10.6927186,14.1211976 C10.6927186,14.1211976 10.6934371,14.1211976 10.6941557,14.120479 C11.3818204,13.7755689 12.0292455,13.3207186 12.6033772,12.7465868" id="Fill-18" fill="#F08626" mask="url(#mask-4)"></path>
                </g>
                <polygon id="Fill-21" fill="#FEFEFE" points="60.5397126 115.238156 62.5430659 105.066898 45.253006 101.884383 43.3797126 112.08079"></polygon>
            </g>
        </g>
    </g>
</svg>