<?xml version="1.0" encoding="UTF-8"?>
<svg width="24px" height="24px" viewBox="0 0 24 24" version="1.1" xmlns="http://www.w3.org/2000/svg" xmlns:xlink="http://www.w3.org/1999/xlink">
    <!-- Generator: Sketch 52.6 (67491) - http://www.bohemiancoding.com/sketch -->
    <title>🌎Icons / 24x24 / Student </title>
    <desc>Created with Sketch.</desc>
    <defs>
        <path d="M18.1698889,12.1697032 C19.5381295,12.9628595 20.6234954,14.042657 21.3925813,15.3763533 C22.3110887,16.9708821 22.7755952,18.9329263 22.7755952,21.2048735 C22.7755952,21.6437672 22.4193625,22 21.9804688,22 L2.79512649,22 C2.35623276,22 2,21.6437672 2,21.2048735 C2,18.9329263 2.46450653,16.9708821 3.38296308,15.3764415 C4.15116392,14.0426828 5.23656978,12.9628455 6.60580091,12.1696484 C7.33187566,11.7492893 8.10906273,11.4239241 8.9216104,11.1832543 C7.27494265,10.0520021 6.25750744,8.1772713 6.25750744,6.13029018 C6.25750744,2.74952996 9.0073254,0 12.3877976,0 C15.7681077,0 18.5171875,2.74936783 18.5171875,6.13029018 C18.5171875,8.17722526 17.4997981,10.0519178 15.8531957,11.1831779 C16.6660913,11.4237627 17.4434757,11.7491481 18.1698889,12.1697032 Z M12.4382143,10.6658259 L12.4816847,10.6672785 C14.9515549,10.6114897 16.9278348,8.59374372 16.9278348,6.13029018 C16.9278348,3.62701129 14.8910765,1.59025298 12.3877976,1.59025298 C9.88451873,1.59025298 7.84776042,3.62701129 7.84776042,6.13029018 C7.84776042,8.59374372 9.82404038,10.6114897 12.2788616,10.6676265 C12.3031031,10.6669563 12.3044739,10.66691 12.3144959,10.6667923 C12.3184144,10.6664596 12.3596539,10.6661375 12.4382143,10.6658259 Z M21.164066,20.409747 C20.9871827,17.2004704 19.7144243,14.9021114 17.3723887,13.5467388 C15.8423163,12.6600487 14.0956217,12.294446 12.5332403,12.2577286 C12.4952789,12.2589679 12.4952789,12.2589679 12.4585961,12.2594455 C12.422555,12.2596808 12.422555,12.2596808 12.3877976,12.2596801 C12.3167524,12.2596927 12.2831908,12.2593653 12.2537235,12.2578263 C10.6798657,12.2944663 8.93298602,12.6601078 7.40223234,13.5467816 C5.06116248,14.9020926 3.78840839,17.2004642 3.61068338,20.409747 L21.164066,20.409747 Z" id="path-1"></path>
    </defs>
    <g id="🌎Icons-/-24x24-/-Student-" stroke="none" stroke-width="1" fill="none" fill-rule="evenodd">
        <mask id="mask-2" fill="white">
            <use xlink:href="#path-1"></use>
        </mask>
        <use id="Mask" fill="#7EA7C6" xlink:href="#path-1"></use>
    </g>
</svg>