<?xml version="1.0" encoding="UTF-8"?>
<svg width="24px" height="24px" viewBox="0 0 24 24" version="1.1" xmlns="http://www.w3.org/2000/svg" xmlns:xlink="http://www.w3.org/1999/xlink">
    <!-- Generator: Sketch 52.6 (67491) - http://www.bohemiancoding.com/sketch -->
    <title>🌎Icons / 24x24 / Student / Remove </title>
    <desc>Created with Sketch.</desc>
    <g id="🌎Icons-/-24x24-/-Student-/-Remove-" stroke="none" stroke-width="1" fill="none" fill-rule="evenodd">
        <path d="M18.894,18.836 L16.961,16.903 L15.047,18.817 C14.781,19.085 14.345,19.082 14.077,18.815 C13.808,18.546 13.806,18.11 14.074,17.843 L15.988,15.929 L14.055,13.997 C13.787,13.729 13.785,13.293 14.051,13.026 C14.318,12.76 14.753,12.762 15.022,13.029 L16.955,14.962 L18.869,13.048 C19.135,12.781 19.571,12.783 19.839,13.052 C20.107,13.32 20.11,13.756 19.843,14.023 L17.929,15.937 L19.862,17.869 C20.129,18.138 20.131,18.573 19.865,18.84 C19.598,19.107 19.163,19.105 18.894,18.836 Z M12.709,10.054 C12.031,10.44 11.259,10.654 10.491,10.671 C10.468,10.669 10.446,10.669 10.423,10.669 C10.363,10.669 10.297,10.669 10.233,10.67 C7.72,10.597 5.676,8.511 5.676,6.02 C5.676,3.454 7.782,1.367 10.372,1.367 C12.961,1.367 15.067,3.454 15.067,6.02 C15.067,7.501 14.343,8.908 13.142,9.775 C12.991,9.864 12.843,9.96 12.709,10.054 Z M1.394,20.414 C1.549,17.111 2.857,14.733 5.282,13.342 C7.228,12.225 9.393,12.058 10.226,12.038 L10.372,12.04 C10.508,12.04 10.646,12.035 10.785,12.025 C10.029,13.176 9.632,14.507 9.632,15.897 C9.632,17.554 10.209,19.146 11.263,20.414 L1.394,20.414 Z M21.896,10.861 C20.54,9.517 18.736,8.776 16.816,8.776 C16.452,8.776 16.086,8.803 15.727,8.857 C16.198,7.987 16.446,7.013 16.446,6.02 C16.446,2.7 13.721,0 10.372,0 C7.023,0 4.298,2.7 4.298,6.02 C4.298,8.094 5.378,10.014 7.141,11.115 C6.218,11.365 5.363,11.716 4.593,12.157 C3.228,12.94 2.148,14.005 1.382,15.323 C0.465,16.899 0,18.843 0,21.099 C0,21.476 0.31,21.782 0.689,21.782 L12.77,21.782 C13.961,22.59 15.359,23.018 16.816,23.018 C18.735,23.018 20.54,22.276 21.896,20.933 C23.252,19.587 24,17.799 24,15.897 C24,13.995 23.252,12.207 21.896,10.861 Z" id="Fill-1" fill="#7EA7C6"></path>
    </g>
</svg>