<?xml version="1.0" encoding="UTF-8"?>
<svg width="15px" height="19px" viewBox="0 0 15 19" version="1.1" xmlns="http://www.w3.org/2000/svg" xmlns:xlink="http://www.w3.org/1999/xlink">
    <!-- Generator: Sketch 48.2 (47327) - http://www.bohemiancoding.com/sketch -->
    <title>Fill 1@1x</title>
    <desc>Created with Sketch.</desc>
    <defs></defs>
    <g id="8_conteudo-fechado" stroke="none" stroke-width="1" fill="none" fill-rule="evenodd" transform="translate(-15.000000, -222.000000)">
        <path d="M29.9972233,236.293727 C29.9964829,236.286283 29.9954307,236.278954 29.9942615,236.271665 L29.993599,236.26709 C29.992274,236.257396 29.9908321,236.247664 29.9889615,236.238242 C29.9873637,236.230216 29.9854152,236.222383 29.9825703,236.211333 L29.9815571,236.207339 C29.9796085,236.199313 29.977582,236.191325 29.9751658,236.183454 C29.9727496,236.175583 29.9700217,236.167906 29.9671768,236.16019 L29.9651503,236.15449 C29.9622665,236.146309 29.9593047,236.138166 29.956226,236.130838 C29.9531863,236.123432 29.9498348,236.116298 29.9464054,236.109163 L29.9436774,236.103463 C29.9398972,236.09536 29.9360391,236.087295 29.9318303,236.079462 C29.928245,236.072754 29.9243868,236.066279 29.9204118,236.059843 L29.9171383,236.054337 C29.9125397,236.046504 29.9078242,236.038788 29.9024463,236.030762 C29.8978087,236.02386 29.8928205,236.017191 29.8877932,236.0106 L29.8840131,236.00552 C29.8792586,235.998967 29.8743873,235.992453 29.8692041,235.986211 C29.8598122,235.974772 29.8498746,235.963838 29.8392745,235.952865 L29.8310517,235.944257 C29.8280899,235.941272 29.8250502,235.93848 29.8219325,235.935727 C29.8209193,235.934719 29.819945,235.933905 29.8191266,235.933168 L25.7338532,231.868566 C25.5089526,231.644802 25.1428995,231.644802 24.917843,231.868566 C24.6928644,232.092409 24.6928644,232.456613 24.917843,232.680455 L28.0292353,235.776094 L16.1540043,235.776094 L16.1540043,222.574088 C16.1540043,222.257537 15.89516,222 15.5770021,222 C15.2588443,222 15,222.257537 15,222.574088 L15,236.350221 C15,236.666772 15.2588443,236.924309 15.5770021,236.924309 L28.0300147,236.924309 L24.9186614,240.019948 C24.80966,240.12836 24.7496449,240.272522 24.7496449,240.425873 C24.7496449,240.579224 24.80966,240.723386 24.9187003,240.831915 C25.0277407,240.940288 25.1726343,241 25.326647,241 C25.4807377,241 25.6256312,240.940288 25.7346716,240.831837 L29.8310517,236.756146 C29.8337797,236.753432 29.8364297,236.75064 29.8390017,236.74781 C29.8494849,236.736992 29.8596173,236.725864 29.8691262,236.71427 C29.8743873,236.70795 29.8792586,236.701436 29.8840131,236.694883 L29.8877932,236.689804 C29.8928205,236.683212 29.8978087,236.676543 29.902758,236.669254 C29.9078242,236.661615 29.9125397,236.653899 29.9171383,236.646067 L29.9204118,236.640561 C29.9243868,236.634124 29.928245,236.627649 29.9317913,236.62098 C29.9360391,236.613109 29.9398972,236.605044 29.9436774,236.59694 L29.9464443,236.591124 C29.9497958,236.584145 29.9530694,236.577165 29.9559142,236.570302 C29.9592268,236.562392 29.9621496,236.554444 29.9649944,236.546418 L29.9673717,236.539787 C29.9701386,236.532188 29.9728276,236.524627 29.9751269,236.517027 C29.977582,236.509078 29.9796085,236.501091 29.9824144,236.489652 L29.9833887,236.485775 C29.9854152,236.47802 29.9873637,236.470188 29.9888836,236.462433 C29.9908321,236.452778 29.992274,236.443046 29.993599,236.433314 L29.9942615,236.428738 C29.9954307,236.421449 29.9964829,236.414121 29.9972233,236.406792 C30.0009256,236.36922 30.0009256,236.331183 29.9972233,236.293727" id="Fill-1" fill="#7EA7C6"></path>
    </g>
</svg>