<?xml version="1.0" encoding="UTF-8"?>
<svg width="124px" height="197px" viewBox="0 0 124 197" version="1.1" xmlns="http://www.w3.org/2000/svg" xmlns:xlink="http://www.w3.org/1999/xlink">
    <!-- Generator: sketchtool 49.2 (51160) - http://www.bohemiancoding.com/sketch -->
    <title>B97EC375-5169-4C84-A263-74C2C596B4AF</title>
    <desc>Created with sketchtool.</desc>
    <defs></defs>
    <g id="Primeiro-acesso" stroke="none" stroke-width="1" fill="none" fill-rule="evenodd">
        <g id="10-Primeiro-Acesso-App" transform="translate(-147.000000, -279.000000)">
            <g id="seta" transform="translate(149.000000, 281.000000)">
                <polyline id="Triangle-2" stroke="#F68A33" stroke-width="3" stroke-linecap="round" stroke-linejoin="round" transform="translate(11.500000, 186.500000) scale(1, -1) translate(-11.500000, -186.500000) " points="0 193 11.5 180 11.5 180 23 193"></polyline>
                <path d="M83.3005884,1.30655736 C82.5789966,0.899621351 82.3239178,-0.0152311171 82.7308538,-0.736822821 C83.1377898,-1.45841452 84.0526423,-1.71349337 84.774234,-1.30655736 C87.2064616,0.0650783847 89.5177659,1.45262727 91.7081677,2.85620176 C92.4056798,3.30315634 92.6087968,4.23092989 92.1618422,4.92844196 C91.7148876,5.62595404 90.7871141,5.82907102 90.089602,5.38211643 C87.947561,4.00953083 85.6845495,2.65097366 83.3005884,1.30655736 Z M96.5925129,9.86782459 C95.9283682,9.37264455 95.7913952,8.43282613 96.2865753,7.7686814 C96.7817553,7.10453666 97.7215737,6.96756371 98.3857185,7.46274375 C100.653225,9.15337557 102.754265,10.8667059 104.688758,12.6030146 C105.305272,13.156369 105.356474,14.1047354 104.803119,14.7212501 C104.249765,15.3377648 103.301399,15.3889663 102.684884,14.8356119 C100.819493,13.1613251 98.7887292,11.5053027 96.5925129,9.86782459 Z M108.213073,20.395435 C107.666728,19.7727001 107.728654,18.8249737 108.351389,18.2786287 C108.974124,17.7322838 109.92185,17.79421 110.468195,18.4169448 C112.361397,20.5748543 114.012239,22.7673735 115.419913,24.9947971 C115.862485,25.6950981 115.653555,26.6215798 114.953254,27.0641518 C114.252953,27.5067239 113.326471,27.2977933 112.883899,26.5974923 C111.561862,24.5055763 110.00519,22.4381256 108.213073,20.395435 Z M116.35235,33.4733655 C116.057904,32.6990314 116.44693,31.8326142 117.221264,31.5381685 C117.995598,31.2437227 118.862015,31.632749 119.156461,32.407083 C120.16584,35.06155 120.849754,37.7601169 121.207056,40.5006804 C121.314156,41.3221553 120.735041,42.0749141 119.913566,42.1820141 C119.092091,42.2891141 118.339332,41.7099989 118.232232,40.8885239 C117.905406,38.3817143 117.279161,35.910696 116.35235,33.4733655 Z M118.317413,48.5025756 C118.403466,47.6786299 119.141165,47.0804494 119.965111,47.166502 C120.789056,47.2525546 121.387237,47.9902539 121.301184,48.8141996 C121.021701,51.4902284 120.447803,54.1982182 119.580785,56.9372226 C119.330777,57.7270248 118.487844,58.1646144 117.698042,57.9146063 C116.90824,57.6645983 116.47065,56.8216656 116.720658,56.0318634 C117.527542,53.4828309 118.059363,50.9733837 118.317413,48.5025756 Z M113.755329,63.2454183 C114.127633,62.5053633 115.029378,62.2072421 115.769433,62.579546 C116.509488,62.9518498 116.807609,63.8535948 116.435305,64.5936498 C115.262088,66.9257377 113.885579,69.279585 112.306184,71.6554893 C111.847568,72.3453903 110.916512,72.5328844 110.226611,72.074269 C109.53671,71.6156536 109.349216,70.6845971 109.807831,69.9946961 C111.321919,67.7170338 112.637616,65.4671753 113.755329,63.2454183 Z M105.104628,76.3764799 C105.625156,75.7320097 106.569574,75.6315348 107.214044,76.152063 C107.858515,76.6725912 107.958989,77.6170091 107.438461,78.2614793 C105.805588,80.2831532 104.030591,82.3209582 102.11352,84.3750712 C101.548285,84.980712 100.599102,85.0134673 99.9934614,84.4482322 C99.3878206,83.8829972 99.3550652,82.9338147 99.9203003,82.3281739 C101.789518,80.3253359 103.517611,78.341379 105.104628,76.3764799 Z M94.306182,87.9962784 C94.9051814,87.4240099 95.8546817,87.4456797 96.4269501,88.0446792 C96.9992185,88.6436786 96.9775487,89.5931789 96.3785493,90.1654473 C94.495842,91.9641366 92.5071791,93.775295 90.4125549,95.5989985 C89.7877577,96.1429838 88.8402723,96.0774728 88.296287,95.4526757 C87.7523017,94.8278785 87.8178127,93.8803931 88.4426099,93.3364078 C90.5029285,91.5425728 92.4574544,89.7625043 94.306182,87.9962784 Z M82.4902711,98.32006 C83.1350408,97.7999028 84.0794006,97.9009212 84.5995579,98.5456909 C85.1197151,99.1904606 85.0186967,100.13482 84.373927,100.654978 C82.3416626,102.294473 80.225771,103.944001 78.0262421,105.603598 C77.364939,106.102566 76.4243529,105.970968 75.9253842,105.309665 C75.4264155,104.648362 75.5580135,103.707776 76.2193166,103.208807 C78.3932881,101.568495 80.4836097,99.9389007 82.4902711,98.32006 Z M69.9074278,108.250842 C70.5453818,107.722348 71.490975,107.811082 72.0194693,108.449036 C72.5479636,109.08699 72.4592291,110.032583 71.8212752,110.561078 C69.7264685,112.296459 67.6876623,114.004914 65.7048619,115.686435 C65.0730443,116.222251 64.1264908,116.144425 63.5906756,115.512608 C63.0548603,114.88079 63.1326856,113.934237 63.7645032,113.398421 C65.7561994,111.709356 67.8038392,109.993499 69.9074278,108.250842 Z M57.679621,118.626944 C58.3042576,118.082775 59.2517623,118.148006 59.795932,118.772643 C60.3401016,119.397279 60.2748702,120.344784 59.6502336,120.888954 C57.5895256,122.684197 55.597223,124.44652 53.6733349,126.175909 C53.0572339,126.729723 52.1088296,126.679231 51.5550146,126.06313 C51.0011997,125.447029 51.0516925,124.498624 51.6677936,123.944809 C53.6034066,122.204881 55.607346,120.432265 57.679621,118.626944 Z M45.7494615,129.36144 C46.3552257,128.796337 47.304401,128.8293 47.8695039,129.435064 C48.4346067,130.040828 48.4016441,130.990004 47.7958799,131.555106 C45.7865081,133.429601 43.8645155,135.261975 42.0299207,137.052192 C41.4370071,137.630764 40.4873308,137.619137 39.9087593,137.026224 C39.3301878,136.43331 39.3418144,135.483634 39.934728,134.905062 C41.7856932,133.09887 43.7239316,131.251008 45.7494615,129.36144 Z M34.2545812,140.599362 C34.8310153,140.00437 35.7806436,139.989326 36.3756354,140.565761 C36.9706271,141.142195 36.985671,142.091823 36.4092369,142.686815 C34.4793144,144.678869 32.6697585,146.61269 30.9806106,148.488168 C30.4262012,149.103734 29.4777486,149.153311 28.8621824,148.598902 C28.2466162,148.044492 28.1970389,147.09604 28.7514483,146.480474 C30.4655393,144.577302 32.2999031,142.616969 34.2545812,140.599362 Z M23.4892971,152.60534 C24.0125368,151.963069 24.9573697,151.866575 25.5996405,152.389815 C26.2419113,152.913054 26.3384051,153.857887 25.8151654,154.500158 C24.0334283,156.68722 22.4415632,158.781474 21.0396329,160.782379 C20.5642661,161.460846 19.6288987,161.625492 18.9504314,161.150125 C18.2719641,160.674758 18.1073187,159.739391 18.5826855,159.060924 C20.0277602,156.998441 21.6632764,154.84676 23.4892971,152.60534 Z M14.2590069,165.996662 C14.6511404,165.266921 15.5605999,164.993235 16.2903415,165.385369 C17.0200831,165.777502 17.2937685,166.686962 16.901635,167.416704 C15.5241795,169.980082 14.5459084,172.33905 13.9635003,174.488856 C13.746878,175.28846 12.923064,175.76106 12.1234602,175.544438 C11.3238563,175.327815 10.8512564,174.504001 11.0678786,173.704397 C11.7142867,171.318353 12.7791032,168.750692 14.2590069,165.996662 Z" id="Path-2" fill="#F68A33" fill-rule="nonzero"></path>
            </g>
        </g>
    </g>
</svg>