<?xml version="1.0" encoding="UTF-8"?>
<svg width="24px" height="24px" viewBox="0 0 24 24" version="1.1" xmlns="http://www.w3.org/2000/svg" xmlns:xlink="http://www.w3.org/1999/xlink">
    <!-- Generator: Sketch 52.6 (67491) - http://www.bohemiancoding.com/sketch -->
    <title>🌎Icons / 24x24 / Lixeira</title>
    <desc>Created with Sketch.</desc>
    <defs>
        <path d="M2.54481633,5.54155102 L20.5957551,5.54155102 L20.5957551,4.31608163 L2.54481633,4.31608163 L2.54481633,5.54155102 Z M8.6084898,2.77126531 L14.5330612,2.77126531 L14.5330612,1.54481633 L8.6084898,1.54481633 L8.6084898,2.77126531 Z M18.9588571,7.08636735 L4.18269388,7.08636735 L5.42971429,22.4767347 L17.7128163,22.4551837 L18.9588571,7.08636735 Z M20.6555102,2.77126531 C21.474449,2.77126531 22.1405714,3.43738776 22.1405714,4.25632653 L22.1405714,5.60228571 C22.1405714,6.42122449 21.474449,7.08636735 20.6555102,7.08636735 L20.5085714,7.08636735 L19.2497959,22.6138776 C19.1753469,23.4053878 18.5219592,24 17.730449,24 L5.41012245,24 C4.61861224,24 3.96522449,23.4053878 3.89077551,22.6168163 L2.632,7.08636735 L2.48506122,7.08636735 C1.66612245,7.08636735 1,6.42122449 1,5.60228571 L1,4.25632653 C1,3.43738776 1.66612245,2.77126531 2.48506122,2.77126531 L7.06269388,2.77126531 L7.06269388,1.48506122 C7.06269388,0.666122449 7.72979592,0 8.5477551,0 L14.5928163,0 C15.4107755,0 16.0778776,0.666122449 16.0778776,1.48506122 L16.0778776,2.77126531 L20.6555102,2.77126531 Z M7.29946122,21.0162612 C6.87333878,21.0162612 6.52656327,20.6694857 6.52656327,20.2433633 L6.52656327,8.9956898 C6.52656327,8.57054694 6.87333878,8.22377143 7.29946122,8.22377143 C7.72558367,8.22377143 8.07235918,8.57054694 8.07235918,8.9956898 L8.07235918,20.2433633 C8.07235918,20.6694857 7.72558367,21.0162612 7.29946122,21.0162612 Z M11.5702857,21.0162612 C11.1441633,21.0162612 10.7973878,20.6694857 10.7973878,20.2433633 L10.7973878,8.9956898 C10.7973878,8.57054694 11.1441633,8.22377143 11.5702857,8.22377143 C11.9964082,8.22377143 12.3431837,8.57054694 12.3431837,8.9956898 L12.3431837,20.2433633 C12.3431837,20.6694857 11.9964082,21.0162612 11.5702857,21.0162612 Z M15.8412082,21.0162612 C15.4150857,21.0162612 15.0683102,20.6694857 15.0683102,20.2433633 L15.0683102,8.9956898 C15.0683102,8.57054694 15.4150857,8.22377143 15.8412082,8.22377143 C16.2673306,8.22377143 16.6141061,8.57054694 16.6141061,8.9956898 L16.6141061,20.2433633 C16.6141061,20.6694857 16.2673306,21.0162612 15.8412082,21.0162612 Z" id="path-1"></path>
    </defs>
    <g id="🌎Icons-/-24x24-/-Lixeira" stroke="none" stroke-width="1" fill="none" fill-rule="evenodd">
        <mask id="mask-2" fill="white">
            <use xlink:href="#path-1"></use>
        </mask>
        <use id="lixeira" fill="#7EA7C6" xlink:href="#path-1"></use>
    </g>
</svg>