<?xml version="1.0" encoding="UTF-8"?>
<svg width="24px" height="24px" viewBox="0 0 24 24" version="1.1" xmlns="http://www.w3.org/2000/svg" xmlns:xlink="http://www.w3.org/1999/xlink">
    <!-- Generator: Sketch 52.6 (67491) - http://www.bohemiancoding.com/sketch -->
    <title>🌎Icons / 24x24 / Professor </title>
    <desc>Created with Sketch.</desc>
    <g id="🌎Icons-/-24x24-/-Professor-" stroke="none" stroke-width="1" fill="none" fill-rule="evenodd">
        <path d="M18.47,10.931677 C18.6204623,10.9334071 18.7637078,10.8677044 18.86,10.752795 C19.7016897,9.48391255 20.1020936,7.97601684 20,6.45962733 C20,6.18520012 19.7761424,5.96273292 19.5,5.96273292 C19.2238576,5.96273292 19,6.18520012 19,6.45962733 C19.0826384,7.74401484 18.7611115,9.02213422 18.08,10.1167702 C17.9551537,10.265701 17.9288512,10.4731857 18.012627,10.6482357 C18.0964029,10.8232857 18.2749617,10.9339414 18.47,10.931677 Z M23.47,19.8757764 L22.67,19.8757764 C22.1819291,19.1415314 21.9468191,18.2697039 22,17.3913043 C21.9406042,16.5019431 22.2030602,15.6207746 22.74,14.9068323 L23.46,14.9068323 C23.7361424,14.9068323 23.96,14.6843651 23.96,14.4099379 C23.96,14.1355107 23.7361424,13.9130435 23.46,13.9130435 L20.42,13.9130435 C22.1507591,12.0117539 23.0751536,9.51928491 23,6.95652174 C23,3.28944099 20.93,1.98757764 19,1.98757764 C18.2882334,2.01879404 17.5977731,2.23836901 17,2.62360248 L17,0.49689441 C17,0.222467205 16.7761424,1.68038199e-17 16.5,0 C16.2238576,-1.68038199e-17 16,0.222467205 16,0.49689441 L16,2.48447205 C15.3831687,2.1616068 14.6971491,1.99116717 14,1.98757764 C12.07,1.98757764 10,3.28944099 10,6.95652174 C9.92484642,9.51928491 10.8492409,12.0117539 12.58,13.9130435 L3.06,13.9130435 C1.47582949,13.8220874 0.112265402,15.0133308 0,16.5863354 L0,18.1863354 C0.107059113,19.763305 1.4721929,20.9603532 3.06,20.8695652 L6,20.8695652 L6,23.3540373 C6.00087849,23.5440955 6.11077202,23.7170064 6.28308692,23.7994575 C6.45540181,23.8819086 6.65994795,23.8594543 6.81,23.7416149 L9,22.0024845 L11.19,23.7416149 C11.340052,23.8594543 11.5445982,23.8819086 11.7169131,23.7994575 C11.889228,23.7170064 11.9991215,23.5440955 12,23.3540373 L12,20.8695652 L23.5,20.8695652 C23.7761424,20.8695652 24,20.647098 24,20.3726708 C24,20.0982436 23.7761424,19.8757764 23.5,19.8757764 L23.47,19.8757764 Z M11,6.95652174 C11,4.47204969 12.12,2.98136646 14,2.98136646 C14.6342712,2.98857259 15.2540287,3.17093642 15.79,3.50807453 C15.42,3.83602484 15.17,4.09440994 15.15,4.11428571 L14.15,5.10807453 C13.9539389,5.30291785 13.9539389,5.61882128 14.15,5.81366459 C14.3460611,6.0085079 14.6639389,6.00850791 14.86,5.8136646 L15.86,4.81987578 C16.34,4.2931677 17.8,2.98136646 19,2.98136646 C20.88,2.98136646 22,4.47204969 22,6.95652174 C22,10.8124224 19.93,13.9130435 18.21,13.9130435 C17.21,13.9130435 17,13.0981366 17,12.4223602 C17,12.147933 16.7761424,11.9254658 16.5,11.9254658 C16.2238576,11.9254658 16,12.147933 16,12.4223602 C16,13.0981366 15.79,13.9130435 14.79,13.9130435 C13.07,13.9130435 11,10.8124224 11,6.95652174 Z M11,22.3204969 L9.31,20.978882 C9.12827762,20.8361751 8.87172238,20.8361751 8.69,20.978882 L7,22.3204969 L7,17.8881988 L11,17.8881988 L11,22.3204969 Z M12,19.8757764 L12,17.8881988 L21.06,17.8881988 C21.0966782,18.5753687 21.2628925,19.2495805 21.55,19.8757764 L12,19.8757764 Z M21.06,16.8944099 L4.5,16.8944099 C4.22385763,16.8944099 4,17.1168771 4,17.3913043 C4,17.6657316 4.22385763,17.8881988 4.5,17.8881988 L6,17.8881988 L6,19.8757764 L3.06,19.8757764 C2.02541018,19.9626669 1.11046825,19.2123074 1,18.1863354 L1,16.5863354 C1.11546931,15.5643566 2.02889707,14.8196456 3.06,14.9068323 L21.59,14.9068323 C21.2803754,15.5270998 21.1000992,16.2031618 21.06,16.8944099 Z" id="Shape" fill="#7EA7C6"></path>
    </g>
</svg>