<?xml version="1.0" encoding="UTF-8"?>
<svg width="24px" height="24px" viewBox="0 0 24 24" version="1.1" xmlns="http://www.w3.org/2000/svg" xmlns:xlink="http://www.w3.org/1999/xlink">
    <!-- Generator: sketchtool 48.2 (47327) - http://www.bohemiancoding.com/sketch -->
    <title>058D4295-C041-4819-9C08-70BFB18DFCDB</title>
    <desc>Created with sketchtool.</desc>
    <defs>
        <path d="M1.54481633,5.54155102 L19.5957551,5.54155102 L19.5957551,4.31608163 L1.54481633,4.31608163 L1.54481633,5.54155102 Z M7.6084898,2.77126531 L13.5330612,2.77126531 L13.5330612,1.54481633 L7.6084898,1.54481633 L7.6084898,2.77126531 Z M17.9588571,7.08636735 L16.7128163,22.4551837 L4.42971429,22.4767347 L3.18269388,7.08636735 L17.9588571,7.08636735 Z M19.6555102,2.77126531 C20.474449,2.77126531 21.1405714,3.43738776 21.1405714,4.25632653 L21.1405714,5.60228571 C21.1405714,6.42122449 20.474449,7.08636735 19.6555102,7.08636735 L19.5085714,7.08636735 L18.2497959,22.6138776 C18.1753469,23.4053878 17.5219592,24 16.730449,24 L4.41012245,24 C3.61861224,24 2.96522449,23.4053878 2.89077551,22.6168163 L1.632,7.08636735 L1.48506122,7.08636735 C0.666122449,7.08636735 0,6.42122449 0,5.60228571 L0,4.25632653 C0,3.43738776 0.666122449,2.77126531 1.48506122,2.77126531 L6.06269388,2.77126531 L6.06269388,1.48506122 C6.06269388,0.666122449 6.72979592,0 7.5477551,0 L13.5928163,0 C14.4107755,0 15.0778776,0.666122449 15.0778776,1.48506122 L15.0778776,2.77126531 L19.6555102,2.77126531 Z M6.29946122,21.0162612 C6.72558367,21.0162612 7.07235918,20.6694857 7.07235918,20.2433633 L7.07235918,8.9956898 C7.07235918,8.57054694 6.72558367,8.22377143 6.29946122,8.22377143 C5.87333878,8.22377143 5.52656327,8.57054694 5.52656327,8.9956898 L5.52656327,20.2433633 C5.52656327,20.6694857 5.87333878,21.0162612 6.29946122,21.0162612 Z M10.5702857,21.0162612 C10.9964082,21.0162612 11.3431837,20.6694857 11.3431837,20.2433633 L11.3431837,8.9956898 C11.3431837,8.57054694 10.9964082,8.22377143 10.5702857,8.22377143 C10.1441633,8.22377143 9.79738776,8.57054694 9.79738776,8.9956898 L9.79738776,20.2433633 C9.79738776,20.6694857 10.1441633,21.0162612 10.5702857,21.0162612 Z M14.8412082,21.0162612 C15.2673306,21.0162612 15.6141061,20.6694857 15.6141061,20.2433633 L15.6141061,8.9956898 C15.6141061,8.57054694 15.2673306,8.22377143 14.8412082,8.22377143 C14.4150857,8.22377143 14.0683102,8.57054694 14.0683102,8.9956898 L14.0683102,20.2433633 C14.0683102,20.6694857 14.4150857,21.0162612 14.8412082,21.0162612 Z" id="path-1"></path>
    </defs>
    <g id="Symbols" stroke="none" stroke-width="1" fill="none" fill-rule="evenodd">
        <g id="🌎Icons-/-24x24-/-Lixeira">
            <g id="↳🎨Colors-/-Accent" transform="translate(1.000000, 0.000000)">
                <mask id="mask-2" fill="white">
                    <use xlink:href="#path-1"></use>
                </mask>
                <use id="Mask" fill="#1D1D1B" xlink:href="#path-1"></use>
                <g id="🎨Colors-/-Accent" mask="url(#mask-2)" fill="#F68A33">
                    <g transform="translate(-2.000000, -1.000000)" id="Rectangle-3">
                        <rect x="0" y="0" width="26" height="26"></rect>
                    </g>
                </g>
            </g>
        </g>
    </g>
</svg>