<?xml version="1.0" encoding="UTF-8"?>
<svg width="74px" height="74px" viewBox="0 0 74 74" version="1.1" xmlns="http://www.w3.org/2000/svg" xmlns:xlink="http://www.w3.org/1999/xlink">
    <!-- Generator: sketchtool 49.3 (51167) - http://www.bohemiancoding.com/sketch -->
    <title>A9C2FDD1-7835-473D-AECF-F804A99DCE18</title>
    <desc>Created with sketchtool.</desc>
    <defs></defs>
    <g id="OMR" stroke="none" stroke-width="1" fill="none" fill-rule="evenodd">
        <g id="11---OMR" transform="translate(-123.000000, -196.000000)" fill="#F68A33" fill-rule="nonzero">
            <g id="Group" transform="translate(15.000000, 156.000000)">
                <g id="Group-2">
                    <g id="report-problem-circle.3.3.1" transform="translate(108.000000, 40.000000)">
                        <g id="Group">
                            <path d="M63.0596583,10.3116911 C55.9836224,3.55687045 46.9777585,-0.303027065 37.0069807,0.018631061 C27.0362029,0.340289187 17.708701,4.2001867 10.6326651,11.2766655 C3.55662925,18.3531442 -0.303026688,27.6812299 0.0186113064,37.6526318 C0.340249301,58.2387518 16.422149,74 36.3637047,74 C36.6853427,74 36.6853427,74 37.0069807,74 C57.9134503,73.6783419 74.3169881,56.6304612 73.9953501,36.3659993 C73.6737121,26.3945974 69.8140561,17.3881699 63.0596583,10.3116911 Z M36.9974638,70.9947075 C18.2179124,71.3184918 3.32378537,56.7481974 3,37.6449224 C3,28.5789614 6.2378537,20.160569 12.7135611,13.3610983 C19.1892685,6.88541186 27.9314735,3 36.9974638,3 C37.3212492,3 37.3212492,3 37.6450345,3 C46.3872395,3 54.8056591,6.23784322 60.9575811,12.3897453 C67.4332885,18.5416474 70.9949276,27.2838241 70.9949276,36.3497851 C71.318713,55.1292758 56.1008006,70.6709232 36.9974638,70.9947075 Z" id="Shape"></path>
                            <path d="M36.5,44 C37.4,44 38,43.35 38,42.375 L38,19.625 C38,18.65 37.4,18 36.5,18 C35.6,18 35,18.65 35,19.625 L35,42.375 C35,43.35 35.6,44 36.5,44 Z" id="Shape"></path>
                            <path d="M37,50 C35.2,50 34,51.2 34,53 C34,54.8 35.2,56 37,56 C38.8,56 40,54.8 40,53 C40,51.2 38.8,50 37,50 Z M37,53 C37,53 37,53 37,53 L38.5,53 L37,53 Z" id="Shape"></path>
                        </g>
                    </g>
                </g>
            </g>
        </g>
    </g>
</svg>