<?xml version="1.0" encoding="UTF-8"?>
<svg width="24px" height="24px" viewBox="0 0 24 24" version="1.1" xmlns="http://www.w3.org/2000/svg" xmlns:xlink="http://www.w3.org/1999/xlink">
    <!-- Generator: Sketch 52.6 (67491) - http://www.bohemiancoding.com/sketch -->
    <title>🌎Icons / 24x24 / Close </title>
    <desc>Created with Sketch.</desc>
    <g id="🌎Icons-/-24x24-/-Close-" stroke="none" stroke-width="1" fill="none" fill-rule="evenodd">
        <path d="M12.5,11.4393398 L18.4696699,5.46966991 C18.7625631,5.1767767 19.2374369,5.1767767 19.5303301,5.46966991 C19.8232233,5.76256313 19.8232233,6.23743687 19.5303301,6.53033009 L13.5606602,12.5 L19.5303301,18.4696699 C19.8232233,18.7625631 19.8232233,19.2374369 19.5303301,19.5303301 C19.2374369,19.8232233 18.7625631,19.8232233 18.4696699,19.5303301 L12.5,13.5606602 L6.53033009,19.5303301 C6.23743687,19.8232233 5.76256313,19.8232233 5.46966991,19.5303301 C5.1767767,19.2374369 5.1767767,18.7625631 5.46966991,18.4696699 L11.4393398,12.5 L5.46966991,6.53033009 C5.1767767,6.23743687 5.1767767,5.76256313 5.46966991,5.46966991 C5.76256313,5.1767767 6.23743687,5.1767767 6.53033009,5.46966991 L12.5,11.4393398 Z" id="Mask" fill="#7EA7C6"></path>
    </g>
</svg>