<?xml version="1.0" encoding="UTF-8"?>
<svg width="24px" height="24px" viewBox="0 0 24 24" version="1.1" xmlns="http://www.w3.org/2000/svg" xmlns:xlink="http://www.w3.org/1999/xlink">
    <!-- Generator: Sketch 52.6 (67491) - http://www.bohemiancoding.com/sketch -->
    <title>🌎Icons / 24x24 / Notas THIN</title>
    <desc>Created with Sketch.</desc>
    <defs>
        <path d="M20.8196065,22.9217273 L20.8196065,7.74925475 L14.6862277,7.74925475 C14.3888084,7.74925475 14.1476024,7.50804872 14.1476024,7.20960736 L14.1476024,1.07725066 L4.07827272,1.07725066 L4.07827272,22.9217273 L20.8196065,22.9217273 Z M15.2248531,1.83970701 L15.2248531,6.67098203 L20.0571502,6.67098203 L15.2248531,1.83970701 Z M21.8978792,7.2085853 L21.8978792,23.4603526 C21.8978792,23.758794 21.6566732,24 21.3582318,24 L3.53964739,24 C3.24222809,24 3,23.758794 3,23.4603526 L3,0.53862533 C3,0.24120603 3.24222809,0 3.53964739,0 L14.6933822,0 C14.7087131,0 14.7240439,0.00102205945 14.7393748,0.0020441189 C14.7485734,0.00306617835 14.7557278,0.00511029725 14.7639043,0.0061323567 C14.7731028,0.00715441615 14.7823013,0.0081764756 14.7914999,0.0102205945 C14.7996763,0.0122647134 14.8088749,0.0143088323 14.8190955,0.0163529512 C14.827272,0.0183970701 14.8354484,0.020441189 14.8415808,0.0235073673 C14.8507793,0.0255514862 14.8599779,0.0286176646 14.8681543,0.0316838429 C14.8763308,0.0347500213 14.8834852,0.0378161996 14.8916617,0.040882378 C14.8998382,0.0439485563 14.9080146,0.0480367941 14.9161911,0.0521250319 C14.9233455,0.0551912103 14.931522,0.0592794481 14.9396985,0.0633676859 C14.947875,0.0674559237 14.9550294,0.0715441615 14.9621838,0.0756323993 C14.9693382,0.0807426965 14.9775147,0.0858529938 14.9856912,0.090963291 C14.9928456,0.0960735883 15.0010221,0.101183886 15.0071544,0.107316242 C15.0143088,0.112426539 15.0214632,0.116514777 15.0275956,0.121625075 C15.0419044,0.132867728 15.0541692,0.144110382 15.0664339,0.157397155 L15.0674559,0.157397155 L21.73946,6.82940124 C21.7527468,6.84166596 21.7650115,6.85495273 21.7762542,6.8682395 C21.7803424,6.87437186 21.7844306,6.88152628 21.7895409,6.88765863 C21.7956733,6.89481305 21.8018056,6.90298952 21.8069159,6.911166 C21.8120262,6.91832042 21.8171365,6.92649689 21.8202027,6.93365131 C21.825313,6.94182778 21.8294012,6.9489822 21.8345115,6.95613662 C21.8385998,6.96431309 21.841666,6.97248957 21.8457542,6.97964398 C21.8498424,6.98782046 21.8539307,6.99599693 21.8569968,7.00417341 C21.860063,7.01234989 21.8631292,7.0195043 21.8651733,7.02768078 C21.8682395,7.03687931 21.8713057,7.04505579 21.8743719,7.05425432 C21.876416,7.06140874 21.8784601,7.06958521 21.8805042,7.07776169 C21.8825483,7.08696022 21.8856145,7.09615876 21.8876586,7.10433524 C21.8897028,7.11455583 21.8907248,7.12273231 21.8917469,7.13193084 C21.8927689,7.14112938 21.894813,7.14828379 21.8958351,7.15748233 C21.8968572,7.17383528 21.8978792,7.19121029 21.8978792,7.2085853 Z M6.79827953,14.8659569 C6.79827953,14.5685376 7.03948556,14.3273316 7.33690486,14.3273316 L17.5615876,14.3273316 C17.8590069,14.3273316 18.101235,14.5685376 18.101235,14.8659569 C18.101235,15.1643983 17.8590069,15.4045822 17.5615876,15.4045822 L7.33690486,15.4045822 C7.03948556,15.4045822 6.79827953,15.1643983 6.79827953,14.8659569 Z M12.4495528,12.5289158 C11.8465378,12.5289158 11.3590154,12.0403713 11.3590154,11.4383783 C11.3590154,10.8353633 11.8465378,10.3468188 12.4495528,10.3468188 C13.0525679,10.3468188 13.5411123,10.8353633 13.5411123,11.4383783 C13.5411123,12.0403713 13.0525679,12.5289158 12.4495528,12.5289158 Z M12.4495528,17.3367856 C13.0525679,17.3367856 13.5411123,17.82533 13.5411123,18.4283451 C13.5411123,19.0313602 13.0525679,19.5199046 12.4495528,19.5199046 C11.8465378,19.5199046 11.3590154,19.0313602 11.3590154,18.4283451 C11.3590154,17.82533 11.8465378,17.3367856 12.4495528,17.3367856 Z" id="path-1"></path>
    </defs>
    <g id="🌎Icons-/-24x24-/-Notas-THIN" stroke="none" stroke-width="1" fill="none" fill-rule="evenodd">
        <mask id="mask-2" fill="white">
            <use xlink:href="#path-1"></use>
        </mask>
        <use id="Mask" fill="#7EA7C6" xlink:href="#path-1"></use>
    </g>
</svg>