<?xml version="1.0" encoding="UTF-8"?>
<svg width="24px" height="24px" viewBox="0 0 24 24" version="1.1" xmlns="http://www.w3.org/2000/svg" xmlns:xlink="http://www.w3.org/1999/xlink">
    <!-- Generator: Sketch 52.6 (67491) - http://www.bohemiancoding.com/sketch -->
    <title>🌎Icons / 24x24 / Home</title>
    <desc>Created with Sketch.</desc>
    <g id="🌎Icons-/-24x24-/-Home" stroke="none" stroke-width="1" fill="none" fill-rule="evenodd">
        <path d="M23.2614168,8.86977316 L13.0866923,1.35932446 C12.4338448,0.897122861 11.5660971,0.897122861 10.9132496,1.35932446 L8.28790296,3.29565977 L8.28790296,1.45843339 C8.28790578,1.2060977 8.08688981,1.0012016 7.83815095,1 L4.27886953,1 C4.02928989,1 3.82696561,1.20524762 3.82696561,1.45843339 L3.82696561,6.5885213 L0.738525041,8.86977316 C-0.00493304748,9.41844718 -0.218977373,10.4485907 0.242919169,11.2550043 C0.70481571,12.0614178 1.69303496,12.3828868 2.53107729,11.9993451 L2.53107729,22.5415666 C2.53131455,22.7946526 2.73349992,22.9997593 2.98298122,23 L21.2312922,23 C21.4808719,23 21.6831962,22.7947524 21.6831962,22.5415666 L21.6831962,12.0805533 C22.5207275,12.3397115 23.4202953,11.947436 23.8112055,11.1525901 C24.2021156,10.3577441 23.9700688,9.39273486 23.2622776,8.86977316 L23.2614168,8.86977316 Z M4.73077346,1.91686678 L7.38624702,1.91686678 L7.38624702,3.9627895 L4.73077346,5.92313799 L4.73077346,1.91686678 Z M12.9339057,22.0831332 L12.9339057,16.475838 C12.93533,15.4036943 13.7922436,14.5351807 14.8491176,14.5347 L15.2747681,14.5347 C16.3314738,14.5356625 17.1879328,15.404301 17.1891192,16.4762746 L17.1891192,22.0831332 L12.9339057,22.0831332 Z M18.0920663,22.0831332 L18.0920663,16.475838 C18.0899316,14.8979626 16.8293096,13.6195168 15.2739073,13.6178333 L14.8491176,13.6178333 C13.2935475,13.6195173 12.0328562,14.8982287 12.0309586,16.4762746 L12.0309586,22.0831332 L3.43488515,22.0831332 L3.43488515,11.3793685 L11.9999709,5.06041001 L20.7798187,11.5391653 L20.7798187,22.0831332 L18.0920663,22.0831332 Z M22.9252864,10.8720356 C22.6351336,11.2731082 22.0804534,11.3617906 21.6827658,11.07069 L12.2668095,4.12083987 C12.1082758,4.00423936 11.893818,4.00423936 11.7352844,4.12083987 L2.3171761,11.07069 C1.9199254,11.3583267 1.3684062,11.2675714 1.08115335,10.8672961 C0.793900498,10.4670208 0.878187139,9.90670631 1.27005014,9.61156205 L11.4447747,2.10198654 C11.5957785,1.98955568 11.7782294,1.92898174 11.9655402,1.92909167 L11.9887809,1.92909167 C11.9963783,1.92952878 12.003994,1.92952878 12.0115913,1.92909167 C12.2064185,1.92385736 12.3974991,1.98402034 12.5551672,2.10024013 L22.7298918,9.60981563 C22.9209236,9.75081653 23.0488584,9.96307907 23.0855091,10.1998368 C23.1221598,10.4365946 23.064519,10.6784209 22.9252864,10.8720356 Z" id="home" fill="#7EA7C6"></path>
    </g>
</svg>