<?xml version="1.0" encoding="UTF-8"?>
<svg width="24px" height="24px" viewBox="0 0 24 24" version="1.1" xmlns="http://www.w3.org/2000/svg" xmlns:xlink="http://www.w3.org/1999/xlink">
    <!-- Generator: Sketch 52.6 (67491) - http://www.bohemiancoding.com/sketch -->
    <title>🌎Icons / 24x24 / Senha THIN</title>
    <desc>Created with Sketch.</desc>
    <defs>
        <path d="M5.65732681,6.97093972 C5.99387926,6.97093972 6.33043171,6.84288045 6.58690303,6.58640914 C7.0991401,6.07417207 7.0991401,5.2405521 6.58690303,4.72831503 C6.07431318,4.21572518 5.24034043,4.21572518 4.72810336,4.72831503 C4.2158663,5.2405521 4.2158663,6.07417207 4.72810336,6.58640914 C4.98457468,6.84288045 5.32077435,6.97093972 5.65732681,6.97093972 Z M8.26493804,0 C12.8221546,0 16.5298761,3.70772148 16.5298761,8.26493804 C16.5298761,9.17193632 16.3848834,10.0595317 16.0984257,10.9072629 L23.3374785,18.1470212 C23.5336244,18.3431671 23.6419279,18.6049301 23.6419279,18.8825682 L23.6419279,22.959298 C23.6419279,23.5332716 23.1751995,24 22.6015787,24 L19.2413459,24 C18.9637077,24 18.7026503,23.892402 18.5061516,23.6959033 L17.3737267,22.5655951 C17.177228,22.3687437 17.0685717,22.1073334 17.0685717,21.8289897 L17.0685717,20.9117608 L16.1527539,20.9117608 C15.5787803,20.9117608 15.1120519,20.4446796 15.1120519,19.870706 L15.1120519,19.7870971 L15.0284429,19.7870971 C14.4544693,19.7870971 13.9877409,19.3203687 13.9877409,18.746395 L13.9877409,17.9974423 L13.2387882,17.9974423 C12.9607973,17.9974423 12.699387,17.8891388 12.5028884,17.6926401 L10.9079684,16.0977202 C10.0598845,16.3848834 9.1722891,16.5298761 8.26493804,16.5298761 C3.70772148,16.5298761 0,12.8221546 0,8.26493804 C0,3.70772148 3.70772148,0 8.26493804,0 Z M8.26493804,15.584072 C9.16100013,15.584072 10.0351898,15.4246152 10.862107,15.1095824 C11.0360277,15.0436125 11.2332319,15.0855933 11.364819,15.2171804 L13.1710544,17.0237686 C13.189399,17.0417604 13.2130352,17.0516382 13.2387882,17.0516382 L14.4604666,17.0516382 C14.721524,17.0516382 14.9331922,17.2633064 14.9331922,17.5243639 L14.9331922,18.746395 C14.9331922,18.7986065 14.9758786,18.8412929 15.0284429,18.8412929 L15.5851303,18.8412929 C15.845835,18.8412929 16.057856,19.0533139 16.057856,19.3143714 L16.057856,19.870706 C16.057856,19.9232703 16.1005424,19.9659567 16.1527539,19.9659567 L17.5412973,19.9659567 C17.8023548,19.9659567 18.0143758,20.1776249 18.0143758,20.4386824 L18.0143758,21.8289897 C18.0143758,21.8543899 18.0239009,21.878379 18.0422454,21.8963708 L19.1743176,23.026679 C19.1923094,23.0446708 19.2159457,23.0545487 19.2413459,23.0545487 L22.6015787,23.0545487 C22.6537902,23.0545487 22.6961238,23.012215 22.6961238,22.959298 L22.6961238,18.8825682 C22.6961238,18.8568153 22.6865988,18.833179 22.668607,18.8151872 L15.217886,11.3641134 C15.0862989,11.2325263 15.044318,11.0356749 15.110288,10.8617542 C15.424968,10.0348371 15.584072,9.16064735 15.584072,8.26493804 C15.584072,4.22877806 12.3007452,0.945804119 8.26493804,0.945804119 C4.22913084,0.945804119 0.945804119,4.22877806 0.945804119,8.26493804 C0.945804119,12.3007452 4.22913084,15.584072 8.26493804,15.584072 Z M5.65732681,3.39762755 C6.26093399,3.39762755 6.82855757,3.63257927 7.25506901,4.05944349 C7.68193324,4.48630771 7.91723773,5.05357852 7.91723773,5.65718569 C7.91723773,6.26079287 7.68193324,6.82841646 7.25506901,7.25528068 C6.82855757,7.6821449 6.26093399,7.91709662 5.65732681,7.91709662 C5.05371963,7.91709662 4.48644882,7.6821449 4.0595846,7.25528068 C3.63272038,6.82841646 3.39776866,6.26079287 3.39776866,5.65718569 C3.39776866,5.05357852 3.63272038,4.48630771 4.0595846,4.05944349 C4.48644882,3.63257927 5.05371963,3.39762755 5.65732681,3.39762755 Z" id="path-1"></path>
    </defs>
    <g id="🌎Icons-/-24x24-/-Senha-THIN" stroke="none" stroke-width="1" fill="none" fill-rule="evenodd">
        <mask id="mask-2" fill="white">
            <use xlink:href="#path-1"></use>
        </mask>
        <use id="Mask" fill="#7EA7C6" xlink:href="#path-1"></use>
    </g>
</svg>