<?xml version="1.0" encoding="UTF-8"?>
<svg width="24px" height="24px" viewBox="0 0 24 24" version="1.1" xmlns="http://www.w3.org/2000/svg" xmlns:xlink="http://www.w3.org/1999/xlink">
    <!-- Generator: Sketch 52.6 (67491) - http://www.bohemiancoding.com/sketch -->
    <title>🌎Icons / 24x24 / Editar</title>
    <desc>Created with Sketch.</desc>
    <defs>
        <path d="M18.3499541,7.21614985 L15.6827771,4.86004187 L16.7766982,3.66395896 L19.4439421,6.02000126 L18.3499541,7.21614985 Z M6.09976285,20.6099666 L3.40469269,20.6185049 L3.40469269,18.2843337 L14.7442417,5.88621284 L17.4114187,8.24232081 L6.09976285,20.6099666 Z M20.905157,5.45542332 L17.1936244,2.17691743 C17.0551618,2.05455718 16.8732876,1.99130817 16.6865303,2.000963 C16.500442,2.01068352 16.3258588,2.09265109 16.2013094,2.22880396 L2.17980066,17.5593016 C2.06401385,17.6858653 2,17.8499975 2,18.0201065 L2,21.310369 C2,21.4936795 2.07438182,21.6694369 2.20648983,21.7987591 C2.33819649,21.9276216 2.51652557,22 2.70234635,22 L2.70462061,22 L6.41622005,21.9882434 C6.61481684,21.9875866 6.80378145,21.9045025 6.93649147,21.7594173 L20.9580002,6.42891961 C21.2169987,6.14571114 21.1933865,5.70999569 20.905157,5.45542332 Z" id="path-1"></path>
    </defs>
    <g id="🌎Icons-/-24x24-/-Editar" stroke="none" stroke-width="1" fill="none" fill-rule="evenodd">
        <mask id="mask-2" fill="white">
            <use xlink:href="#path-1"></use>
        </mask>
        <use id="Mask" fill="#7EA7C6" xlink:href="#path-1"></use>
    </g>
</svg>