<?xml version="1.0" encoding="UTF-8"?>
<svg width="24px" height="24px" viewBox="0 0 24 24" version="1.1" xmlns="http://www.w3.org/2000/svg" xmlns:xlink="http://www.w3.org/1999/xlink">
    <!-- Generator: Sketch 52.6 (67491) - http://www.bohemiancoding.com/sketch -->
    <title>🌎Icons / 24x24 / Relatórios </title>
    <desc>Created with Sketch.</desc>
    <defs>
        <path d="M23,22 L23.5,22 C23.7761424,22 24,22.2238576 24,22.5 C24,22.7761424 23.7761424,23 23.5,23 L0.5,23 C0.223857625,23 0,22.7761424 0,22.5 C0,22.2238576 0.223857625,22 0.5,22 L1,22 L1,15.210612 C1,14.9344696 1.22385763,14.710612 1.5,14.710612 L4.5,14.710612 C4.77614237,14.710612 5,14.9344696 5,15.210612 L5,22 L7,22 L7,7.92122396 C7,7.64508158 7.22385763,7.42122396 7.5,7.42122396 L10.5,7.42122396 C10.7761424,7.42122396 11,7.64508158 11,7.92122396 L11,22 L13,22 L13,10.8369792 C13,10.5608368 13.2238576,10.3369792 13.5,10.3369792 L16.5,10.3369792 C16.7761424,10.3369792 17,10.5608368 17,10.8369792 L17,22 L19,22 L19,0.631835938 C19,0.355693563 19.2238576,0.131835938 19.5,0.131835938 L22.5,0.131835938 C22.7761424,0.131835938 23,0.355693563 23,0.631835938 L23,22 Z M22,22 L22,1.13183594 L20,1.13183594 L20,22 L22,22 Z M14,22 L16,22 L16,11.3369792 L14,11.3369792 L14,22 Z M10,22 L10,8.42122396 L8,8.42122396 L8,22 L10,22 Z M2,22 L4,22 L4,15.710612 L2,15.710612 L2,22 Z" id="path-1"></path>
    </defs>
    <g id="🌎Icons-/-24x24-/-Relatórios-" stroke="none" stroke-width="1" fill="none" fill-rule="evenodd">
        <mask id="mask-2" fill="white">
            <use xlink:href="#path-1"></use>
        </mask>
        <use id="Mask" fill="#7EA7C6" xlink:href="#path-1"></use>
    </g>
</svg>