<?xml version="1.0" encoding="UTF-8"?>
<svg width="24px" height="24px" viewBox="0 0 24 24" version="1.1" xmlns="http://www.w3.org/2000/svg" xmlns:xlink="http://www.w3.org/1999/xlink">
    <!-- Generator: Sketch 52.6 (67491) - http://www.bohemiancoding.com/sketch -->
    <title>🌎Icons / 24x24 / Buscar</title>
    <desc>Created with Sketch.</desc>
    <defs>
        <path d="M14.2842547,3.21833333 C10.818338,3.21833333 7.99867138,6.038 7.99867138,9.50208333 C7.99867138,12.968 10.818338,15.7876667 14.2842547,15.7876667 C17.748338,15.7876667 20.567088,12.968 20.567088,9.50208333 C20.567088,6.038 17.748338,3.21833333 14.2842547,3.21833333 Z M1.81025471,21.1208333 L7.77500471,14.97 C6.48617138,13.4364167 5.77942138,11.5095833 5.77942138,9.50208333 C5.77942138,4.81425 9.59458805,1 14.2842547,1 C18.972088,1 22.786338,4.81425 22.786338,9.50208333 C22.786338,14.19175 18.972088,18.006 14.2842547,18.006 C12.5242547,18.006 10.8449214,17.4761667 9.41217138,16.466 L3.40708805,22.659 C3.19625471,22.879 2.91300471,23 2.60775471,23 C2.32083805,23 2.04858805,22.89 1.84050471,22.68925 C1.39775471,22.2648333 1.38583805,21.5635833 1.81025471,21.1208333 Z" id="path-1"></path>
    </defs>
    <g id="🌎Icons-/-24x24-/-Buscar" stroke="none" stroke-width="1" fill="none" fill-rule="evenodd">
        <mask id="mask-2" fill="white">
            <use xlink:href="#path-1"></use>
        </mask>
        <use id="Mask" fill="#7EA7C6" xlink:href="#path-1"></use>
    </g>
</svg>