<?xml version="1.0" encoding="UTF-8"?>
<svg width="24px" height="24px" viewBox="0 0 24 24" version="1.1" xmlns="http://www.w3.org/2000/svg" xmlns:xlink="http://www.w3.org/1999/xlink">
    <!-- Generator: Sketch 52.6 (67491) - http://www.bohemiancoding.com/sketch -->
    <title>🌎Icons / 24x24 / Ficha do aluno</title>
    <desc>Created with Sketch.</desc>
    <defs>
        <path d="M20.8196065,22.9217273 L20.8196065,7.74925475 L14.6862277,7.74925475 C14.3888084,7.74925475 14.1476024,7.50804872 14.1476024,7.20960736 L14.1476024,1.07725066 L4.07827272,1.07725066 L4.07827272,22.9217273 L20.8196065,22.9217273 Z M15.2248531,1.83970701 L15.2248531,6.67098203 L20.0571502,6.67098203 L15.2248531,1.83970701 Z M21.8978792,7.2085853 L21.8978792,23.4603526 C21.8978792,23.758794 21.6566732,24 21.3582318,24 L3.53964739,24 C3.24222809,24 3,23.758794 3,23.4603526 L3,0.53862533 C3,0.24120603 3.24222809,0 3.53964739,0 L14.6933822,0 C14.7087131,0 14.7240439,0.00102205945 14.7393748,0.0020441189 C14.7485734,0.00306617835 14.7557278,0.00511029725 14.7639043,0.0061323567 C14.7731028,0.00715441615 14.7823013,0.0081764756 14.7914999,0.0102205945 C14.7996763,0.0122647134 14.8088749,0.0143088323 14.8190955,0.0163529512 C14.827272,0.0183970701 14.8354484,0.020441189 14.8415808,0.0235073673 C14.8507793,0.0255514862 14.8599779,0.0286176646 14.8681543,0.0316838429 C14.8763308,0.0347500213 14.8834852,0.0378161996 14.8916617,0.040882378 C14.8998382,0.0439485563 14.9080146,0.0480367941 14.9161911,0.0521250319 C14.9233455,0.0551912103 14.931522,0.0592794481 14.9396985,0.0633676859 C14.947875,0.0674559237 14.9550294,0.0715441615 14.9621838,0.0756323993 C14.9693382,0.0807426965 14.9775147,0.0858529938 14.9856912,0.090963291 C14.9928456,0.0960735883 15.0010221,0.101183886 15.0071544,0.107316242 C15.0143088,0.112426539 15.0214632,0.116514777 15.0275956,0.121625075 C15.0419044,0.132867728 15.0541692,0.144110382 15.0664339,0.157397155 L15.0674559,0.157397155 L21.73946,6.82940124 C21.7527468,6.84166596 21.7650115,6.85495273 21.7762542,6.8682395 C21.7803424,6.87437186 21.7844306,6.88152628 21.7895409,6.88765863 C21.7956733,6.89481305 21.8018056,6.90298952 21.8069159,6.911166 C21.8120262,6.91832042 21.8171365,6.92649689 21.8202027,6.93365131 C21.825313,6.94182778 21.8294012,6.9489822 21.8345115,6.95613662 C21.8385998,6.96431309 21.841666,6.97248957 21.8457542,6.97964398 C21.8498424,6.98782046 21.8539307,6.99599693 21.8569968,7.00417341 C21.860063,7.01234989 21.8631292,7.0195043 21.8651733,7.02768078 C21.8682395,7.03687931 21.8713057,7.04505579 21.8743719,7.05425432 C21.876416,7.06140874 21.8784601,7.06958521 21.8805042,7.07776169 C21.8825483,7.08696022 21.8856145,7.09615876 21.8876586,7.10433524 C21.8897028,7.11455583 21.8907248,7.12273231 21.8917469,7.13193084 C21.8927689,7.14112938 21.894813,7.14828379 21.8958351,7.15748233 C21.8968572,7.17383528 21.8978792,7.19121029 21.8978792,7.2085853 Z M8.84928301,12.0651451 C8.84928301,10.266023 10.2606222,8.8 12,8.8 C13.7392789,8.8 15.1502836,10.2659194 15.1502836,12.0651451 C15.1502836,13.0144358 14.7526236,13.9050609 14.0748774,14.5200711 C14.3599567,14.6288545 14.6308397,14.75989 14.8861924,14.9134589 C15.5748595,15.3281541 16.1219998,15.8936614 16.5092158,16.5911849 C16.9685136,17.4194465 17.2,18.4334248 17.2,19.6024368 C17.2,19.9306739 16.9407284,20.2 16.6172786,20.2 L7.3827214,20.2 C7.05927163,20.2 6.8,19.9306739 6.8,19.6024368 C6.8,18.4334329 7.0314832,17.4194523 7.49075474,16.591238 C7.8775151,15.8936999 8.42471452,15.3281318 9.11385312,14.9134315 C9.36905343,14.7599543 9.63982451,14.6289535 9.92479111,14.5201635 C9.2469835,13.9051507 8.84928301,13.0144841 8.84928301,12.0651451 Z M12.0242673,14.3329129 L12.045191,14.3336392 C13.2340235,14.3057448 14.1852742,13.2968719 14.1852742,12.0651451 C14.1852742,10.8135056 13.2049132,9.79512649 12,9.79512649 C10.7950868,9.79512649 9.81472581,10.8135056 9.81472581,12.0651451 C9.81472581,13.2968719 10.7659765,14.3057448 11.9475654,14.3338132 C11.9592336,14.3334781 11.9598935,14.333455 11.9647174,14.3333961 C11.9666035,14.3332298 11.9864535,14.3330687 12.0242673,14.3329129 Z M16.2243162,19.2048735 C16.1391763,17.6002352 15.5265544,16.4510557 14.3992531,15.7733694 C13.6627773,15.3300244 12.8220338,15.147223 12.0700065,15.1288643 C12.0517344,15.1294839 12.0517344,15.1294839 12.0340777,15.1297228 C12.0167299,15.1298404 12.0167299,15.1298404 12,15.12984 C11.9658035,15.1298464 11.9496492,15.1296827 11.9354656,15.1289131 C11.1779143,15.1472332 10.3370818,15.3300539 9.60027801,15.7733908 C8.47344153,16.4510463 7.86082173,17.6002321 7.77527665,19.2048735 L16.2243162,19.2048735 Z" id="path-1"></path>
    </defs>
    <g id="🌎Icons-/-24x24-/-Ficha-do-aluno" stroke="none" stroke-width="1" fill="none" fill-rule="evenodd">
        <mask id="mask-2" fill="white">
            <use xlink:href="#path-1"></use>
        </mask>
        <use id="Combined-Shape" fill="#7EA7C6" xlink:href="#path-1"></use>
    </g>
</svg>